fira-sans_extrabold.sfdir
StartChar: exclam
Encoding: 33 33 2122
Width: 240
Flags: MW
HStem: -18 21G<93 147> -18 193<93 147> 675 20G<26 214 214 214>
VStem: 23 194<51.5 104.5> 37.5 165
LayerCount: 2
Back
Fore
SplineSet
214 695 m 1xa8
 191 262 l 1
 49 262 l 1
 26 695 l 1
 214 695 l 1xa8
120 175 m 0x70
 174 175 217 131 217 78 c 0
 217 25 174 -18 120 -18 c 0
 66 -18 23 25 23 78 c 0
 23 131 66 175 120 175 c 0x70
EndSplineSet
EndChar
StartChar: quotedbl
Encoding: 34 34 2129
Width: 452
Flags: MW
HStem: 410 285<64 64 64 180 272 272 272 387>
VStem: 54 136
LayerCount: 2
Back
Fore
SplineSet
272 410 m 1
 251 695 l 1
 408 695 l 1
 387 410 l 1
 272 410 l 1
64 410 m 1
 44 695 l 1
 200 695 l 1
 180 410 l 1
 64 410 l 1
EndSplineSet
EndChar

StartChar: numbersign
Encoding: 35 35 987
Width: 568
Flags: MW
HStem: 0 21G<50 197 50 50 281 428 281 281> 137 115<15 68 15 83 230 299 461 516> 438 116<52 108 52 124 270 339 502 553>
VStem: 15 538<137 554 252 554>
LayerCount: 2
Fore
SplineSet
486 438 m 1
 461 252 l 1
 516 252 l 1
 516 137 l 1
 446 137 l 1
 428 0 l 1
 281 0 l 1
 299 137 l 1
 215 137 l 1
 197 0 l 1
 50 0 l 1
 68 137 l 1
 15 137 l 1
 15 252 l 1
 83 252 l 1
 108 438 l 1
 52 438 l 1
 52 554 l 1
 124 554 l 1
 140 678 l 1
 286 678 l 1
 270 554 l 1
 355 554 l 1
 371 678 l 1
 518 678 l 1
 502 554 l 1
 553 554 l 1
 553 438 l 1
 486 438 l 1
339 438 m 1
 254 438 l 1
 230 252 l 1
 314 252 l 1
 339 438 l 1
EndSplineSet
Substitution2: "'onum' Oldstyle Figures lookup 22 subtable" numbersign.osf
Substitution2: "'tnum' Tabular Numbers lookup 21 subtable" numbersign.tf
AlternateSubs2: "'aalt' Access All Alternates lookup 1 subtable" numbersign.tf numbersign.osf
EndChar
StartChar: dollar
Encoding: 36 36 2200
Width: 555
GlyphClass: 2
Flags: MW
HStem: -8 21G<224 224> -8 127<224 288> -1 21G<349 349> 561 271<268.5 320.5>
VStem: 33 181<486 523 486 543.5> 224 125<-163 -8 -8 -8 684 832> 351 184<168 211>
LayerCount: 2
Back
Fore
SplineSet
535 204 m 0x3a
 535 101 467 24 349 -1 c 1x24
 349 -163 l 1
 224 -163 l 1
 224 -8 l 1x84
 125 0 53 41 5 88 c 1
 93 184 l 1
 140 143 194 119 257 119 c 0
 319 119 351 147 351 189 c 0
 351 233 328 253 237 281 c 0
 83 329 33 394 33 491 c 0x5a
 33 596 112 667 224 684 c 1
 224 832 l 1
 349 832 l 1
 349 683 l 1x34
 419 672 473 644 517 600 c 1
 437 507 l 1
 393 543 347 561 294 561 c 0
 243 561 214 541 214 505 c 0
 214 467 239 453 338 421 c 0
 468 380 535 324 535 204 c 0x3a
EndSplineSet
Substitution2: "'onum' Oldstyle Figures lookup 25 subtable" dollar.osf
Substitution2: "'tnum' Tabular Numbers lookup 24 subtable" dollar.tf
AlternateSubs2: "'aalt' Access All Alternates lookup 1 subtable" dollar.tf dollar.osf
EndChar
StartChar: percent
Encoding: 37 37 2294
Width: 869
GlyphClass: 2
Flags: MW
HStem: -18 104<638 686 638 713> 243 104<638 686> 327 104<183 231 183 258> 589 104<183 231>
VStem: 25 122<490.5 529.5 490.5 566> 266 123<490.5 529.5> 479 123<144.5 184 144.5 220> 721 123<144.5 183.5>
LayerCount: 2
Back
Fore
SplineSet
614 722 m 1xbf
 722 655 l 1
 258 -42 l 1
 151 25 l 1
 614 722 l 1xbf
207 693 m 0
 309 693 389 622 389 510 c 0
 389 398 309 327 207 327 c 0
 106 327 25 398 25 510 c 0
 25 622 106 693 207 693 c 0
207 589 m 0
 159 589 147 549 147 510 c 0
 147 471 159 431 207 431 c 0
 255 431 266 471 266 510 c 0
 266 549 255 589 207 589 c 0
662 347 m 0xdf
 764 347 844 276 844 164 c 0
 844 52 764 -18 662 -18 c 0
 561 -18 479 52 479 164 c 0
 479 276 561 347 662 347 c 0xdf
662 243 m 0
 614 243 602 204 602 164 c 0
 602 125 614 86 662 86 c 0
 710 86 721 125 721 164 c 0
 721 203 710 243 662 243 c 0
EndSplineSet
Substitution2: "'onum' Oldstyle Figures lookup 25 subtable" percent.osf
Substitution2: "'tnum' Tabular Numbers lookup 24 subtable" percent.tf
AlternateSubs2: "'aalt' Access All Alternates lookup 1 subtable" percent.tf percent.osf
EndChar
StartChar: ampersand
Encoding: 38 38 2373
Width: 799
GlyphClass: 2
Flags: MW
HStem: -18 124<309 348> 601 112<301 335>
VStem: 53 188<164 206 164 219> 92 170<528 560.5 528 586> 371 169<527 562.5>
LayerCount: 2
Back
Fore
SplineSet
316 713 m 0xe8
 459 713 540 642 540 551 c 0
 540 467 488 412 410 360 c 1
 533 244 l 1
 550 282 565 327 577 380 c 1
 723 338 l 1
 697 264 666 204 630 155 c 1
 754 48 l 1
 599 -18 l 1
 526 51 l 1
 461 3 388 -18 308 -18 c 0
 155 -18 53 59 53 178 c 0xe8
 53 260 96 313 188 372 c 1
 115 443 92 482 92 543 c 0xd8
 92 629 162 713 316 713 c 0xe8
318 601 m 0xd8
 284 601 262 578 262 543 c 0
 262 513 273 493 313 452 c 1
 353 481 371 508 371 546 c 0
 371 579 352 601 318 601 c 0xd8
289 277 m 1xe8
 255 251 241 223 241 189 c 0
 241 139 278 106 340 106 c 0
 378 106 410 115 439 134 c 1
 289 277 l 1xe8
EndSplineSet
Substitution2: "'ss03' Style Set 3 lookup 35 subtable" ampersand.ss03
Substitution2: "'aalt' Access All Alternates lookup 0 subtable" ampersand.ss03
EndChar
StartChar: quotesingle
Encoding: 39 39 2130
Width: 244
Flags: MW
HStem: 410 285<64 64 64 180>
VStem: 54 136
LayerCount: 2
Back
Fore
SplineSet
64 410 m 1
 44 695 l 1
 200 695 l 1
 180 410 l 1
 64 410 l 1
EndSplineSet
EndChar

StartChar: parenleft
Encoding: 40 40 1007
Width: 325
Flags: MW
HStem: -163 1026<207 207>
VStem: 12 178<262 438 262 469.5>
LayerCount: 2
Fore
SplineSet
321 786 m 1
 228 654 190 526 190 350 c 0
 190 174 228 46 321 -86 c 1
 207 -163 l 1
 106 -25 12 111 12 350 c 0
 12 589 106 725 207 863 c 1
 321 786 l 1
EndSplineSet
Substitution2: "'case' Case-Sensitive Forms lookup 25 subtable" parenleft.case
Substitution2: "'dnom' Denominators lookup 14 subtable" parenleft.dnom
Substitution2: "'numr' Numerators lookup 13 subtable" parenleft.numr
Substitution2: "'sups' Superscript lookup 12 subtable" parenleftsuperior
Substitution2: "'subs' Subscript lookup 11 subtable" uni208D
AlternateSubs2: "'aalt' Access All Alternates lookup 1 subtable" uni208D parenleftsuperior parenleft.numr parenleft.dnom parenleft.case
EndChar
StartChar: parenright
Encoding: 41 41 2155
Width: 325
Flags: MW
HStem: -163 1026<117 117>
VStem: 134 179<262 438>
LayerCount: 2
Back
Fore
SplineSet
117 863 m 1
 219 725 313 589 313 350 c 0
 313 111 219 -25 117 -163 c 1
 3 -86 l 1
 97 46 134 174 134 350 c 0
 134 526 97 654 3 786 c 1
 117 863 l 1
EndSplineSet
Substitution2: "'case' Case-Sensitive Forms lookup 28 subtable" parenright.case
Substitution2: "'dnom' Denominators lookup 16 subtable" parenright.dnom
Substitution2: "'numr' Numerators lookup 15 subtable" parenright.numr
Substitution2: "'sups' Superscript lookup 14 subtable" uni207E
Substitution2: "'subs' Subscript lookup 13 subtable" uni208E
AlternateSubs2: "'aalt' Access All Alternates lookup 1 subtable" uni208E uni207E parenright.numr parenright.dnom parenright.case
EndChar

StartChar: asterisk
Encoding: 42 42 978
Width: 452
Flags: MW
HStem: 723 20G<151 301 301 301>
VStem: 4 444<527 528>
LayerCount: 2
Fore
SplineSet
310 507 m 1
 411 410 l 1
 289 321 l 1
 226 446 l 1
 165 320 l 1
 43 409 l 1
 142 507 l 1
 4 527 l 1
 50 667 l 1
 174 603 l 1
 151 743 l 1
 301 743 l 1
 278 602 l 1
 402 668 l 1
 448 528 l 1
 310 507 l 1
EndSplineSet
EndChar

StartChar: plus
Encoding: 43 43 1113
Width: 540
Flags: MW
HStem: 264 136<44 197 44 197 343 496>
VStem: 197 146<106 264 106 264 400 558>
LayerCount: 2
Fore
SplineSet
343 400 m 1
 496 400 l 1
 496 264 l 1
 343 264 l 1
 343 106 l 1
 197 106 l 1
 197 264 l 1
 44 264 l 1
 44 400 l 1
 197 400 l 1
 197 558 l 1
 343 558 l 1
 343 400 l 1
EndSplineSet
Substitution2: "'onum' Oldstyle Figures lookup 22 subtable" plus.osf
Substitution2: "'tnum' Tabular Numbers lookup 21 subtable" plus.tf
Substitution2: "'dnom' Denominators lookup 14 subtable" plus.dnom
Substitution2: "'numr' Numerators lookup 13 subtable" plus.numr
Substitution2: "'sups' Superscript lookup 12 subtable" plussuperior
Substitution2: "'subs' Subscript lookup 11 subtable" uni208A
AlternateSubs2: "'aalt' Access All Alternates lookup 1 subtable" uni208A plussuperior plus.numr plus.dnom plus.tf plus.osf
EndChar
StartChar: comma
Encoding: 44 44 2119
Width: 240
Flags: MW
HStem: -1 21G<66 66>
VStem: 23 194<62 105.5 62 106>
LayerCount: 2
Back
Fore
SplineSet
120 175 m 0
 175 175 217 133 217 78 c 0
 217 46 205 17 181 -38 c 2
 118 -181 l 1
 23 -181 l 1
 66 -1 l 1
 38 17 23 45 23 79 c 0
 23 133 65 175 120 175 c 0
EndSplineSet
EndChar

StartChar: hyphen
Encoding: 45 45 1025
Width: 409
Flags: MW
HStem: 245 136<40 369 40 369>
VStem: 40 329<245 381 245 381>
LayerCount: 2
Fore
SplineSet
40 381 m 1
 369 381 l 1
 369 245 l 1
 40 245 l 1
 40 381 l 1
EndSplineSet
Substitution2: "'case' Case-Sensitive Forms lookup 25 subtable" hyphen.case
Substitution2: "'aalt' Access All Alternates lookup 0 subtable" hyphen.case
EndChar

StartChar: period
Encoding: 46 46 988
Width: 240
Flags: MW
HStem: -18 193<93 147>
VStem: 23 194<51.5 104.5>
LayerCount: 2
Fore
SplineSet
120 175 m 0
 174 175 217 131 217 78 c 0
 217 25 174 -18 120 -18 c 0
 66 -18 23 25 23 78 c 0
 23 131 66 175 120 175 c 0
EndSplineSet
EndChar

StartChar: slash
Encoding: 47 47 994
Width: 520
Flags: MW
HStem: -115 934<221 300>
VStem: 64 392
LayerCount: 2
Fore
SplineSet
456 783 m 1
 221 -115 l 1
 64 -79 l 1
 300 819 l 1
 456 783 l 1
EndSplineSet
Substitution2: "'frac' Diagonal Fractions lookup 15 subtable" fraction
Substitution2: "'aalt' Access All Alternates lookup 0 subtable" fraction
EndChar

StartChar: zero
Encoding: 48 48 877
Width: 594
Flags: MW
HStem: -18 130<266.5 327 266.5 382.5> 563 130<266.5 327>
VStem: 32 182<251 424.5 251 452.5> 379 182<248.5 428>
LayerCount: 2
Fore
SplineSet
297 693 m 0
 468 693 561 566 561 338 c 0
 561 110 468 -18 297 -18 c 0
 126 -18 32 110 32 338 c 0
 32 567 126 693 297 693 c 0
297 563 m 0
 236 563 214 511 214 338 c 0
 214 164 236 112 297 112 c 0
 357 112 379 159 379 338 c 0
 379 518 357 563 297 563 c 0
EndSplineSet
Substitution2: "'zero' Slashed Zero lookup 28 subtable" zero.zero
Substitution2: "'onum' Oldstyle Figures lookup 22 subtable" zero.osf
Substitution2: "'tnum' Tabular Numbers lookup 21 subtable" zero.tf
Substitution2: "'frac' Diagonal Fractions lookup 16 subtable" zero.numr
Substitution2: "'dnom' Denominators lookup 14 subtable" zero.dnom
Substitution2: "'numr' Numerators lookup 13 subtable" zero.numr
Substitution2: "'sups' Superscript lookup 12 subtable" zerosuperior
Substitution2: "'subs' Subscript lookup 11 subtable" zeroinferior
AlternateSubs2: "'aalt' Access All Alternates lookup 1 subtable" zeroinferior zerosuperior zero.numr zero.dnom zero.tf zero.osf zero.zero
EndChar

StartChar: one
Encoding: 49 49 878
Width: 473
Flags: MW
HStem: 0 21G<226 399 226 226> 517 20G<7 7>
VStem: 226 173<0 507 507 507>
LayerCount: 2
Fore
SplineSet
399 0 m 1
 226 0 l 1
 226 507 l 1
 84 420 l 1
 7 537 l 1
 241 678 l 1
 399 678 l 1
 399 0 l 1
EndSplineSet
Substitution2: "'onum' Oldstyle Figures lookup 22 subtable" one.osf
Substitution2: "'tnum' Tabular Numbers lookup 21 subtable" one.tf
Substitution2: "'frac' Diagonal Fractions lookup 16 subtable" one.numr
Substitution2: "'dnom' Denominators lookup 14 subtable" one.dnom
Substitution2: "'numr' Numerators lookup 13 subtable" one.numr
Substitution2: "'sups' Superscript lookup 12 subtable" onesuperior
Substitution2: "'subs' Subscript lookup 11 subtable" oneinferior
AlternateSubs2: "'aalt' Access All Alternates lookup 1 subtable" oneinferior onesuperior one.numr one.dnom one.tf one.osf
EndChar
StartChar: two
Encoding: 50 50 2013
Width: 523
Flags: MW
HStem: 0 135<228 479> 552 20G<1 1> 558 135<198.5 246.5>
VStem: 301 182<447.5 503>
LayerCount: 2
Back
Fore
SplineSet
241 693 m 0xb0
 400 693 483 602 483 497 c 0
 483 398 441 323 228 135 c 1
 498 135 l 1
 479 0 l 1
 26 0 l 1
 26 124 l 1
 250 341 301 402 301 478 c 0
 301 528 271 558 222 558 c 0
 175 558 141 536 104 489 c 1xb0
 1 572 l 1xd0
 55 644 135 693 241 693 c 0xb0
EndSplineSet
Substitution2: "'onum' Oldstyle Figures lookup 25 subtable" two.osf
Substitution2: "'tnum' Tabular Numbers lookup 24 subtable" two.tf
Substitution2: "'frac' Diagonal Fractions lookup 18 subtable" two.numr
Substitution2: "'dnom' Denominators lookup 16 subtable" two.dnom
Substitution2: "'numr' Numerators lookup 15 subtable" two.numr
Substitution2: "'sups' Superscript lookup 14 subtable" uni00B2
Substitution2: "'subs' Subscript lookup 13 subtable" uni2082
AlternateSubs2: "'aalt' Access All Alternates lookup 1 subtable" uni2082 uni00B2 two.numr two.dnom two.tf two.osf
EndChar

StartChar: three
Encoding: 51 51 880
Width: 526
Flags: MW
HStem: -18 134<194.5 248 194.5 320> 294 120<175 213 155 215> 563 130<197.5 247>
VStem: 305 172<480 515> 317 182<175.5 235.5>
LayerCount: 2
Fore
SplineSet
243 693 m 0xf0
 395 693 477 618 477 521 c 0xf0
 477 439 429 384 343 358 c 1
 427 349 499 300 499 190 c 0
 499 78 408 -18 232 -18 c 0
 123 -18 44 23 -9 88 c 1
 87 181 l 1
 128 135 169 116 220 116 c 0
 276 116 317 147 317 204 c 0xe8
 317 267 282 294 213 294 c 2
 155 294 l 1
 175 414 l 1
 215 414 l 2
 273 414 305 444 305 492 c 0
 305 538 272 563 222 563 c 0
 173 563 130 542 92 505 c 1
 4 598 l 1
 68 660 148 693 243 693 c 0xf0
EndSplineSet
Substitution2: "'onum' Oldstyle Figures lookup 22 subtable" three.osf
Substitution2: "'tnum' Tabular Numbers lookup 21 subtable" three.tf
Substitution2: "'frac' Diagonal Fractions lookup 16 subtable" three.numr
Substitution2: "'dnom' Denominators lookup 14 subtable" three.dnom
Substitution2: "'numr' Numerators lookup 13 subtable" three.numr
Substitution2: "'sups' Superscript lookup 12 subtable" threesuperior
Substitution2: "'subs' Subscript lookup 11 subtable" threeinferior
AlternateSubs2: "'aalt' Access All Alternates lookup 1 subtable" threeinferior threesuperior three.numr three.dnom three.tf three.osf
EndChar

StartChar: four
Encoding: 52 52 881
Width: 575
Flags: MW
HStem: 0 21G<310 484 310 310> 140 132<207 309 484 557> 677 20G<213 213>
VStem: 309.5 174.5
LayerCount: 2
Fore
SplineSet
557 140 m 1
 484 140 l 1
 484 0 l 1
 310 0 l 1
 309 140 l 1
 24 140 l 1
 24 257 l 1
 213 697 l 1
 365 642 l 1
 207 272 l 1
 311 272 l 1
 331 426 l 1
 484 426 l 1
 484 272 l 1
 557 272 l 1
 557 140 l 1
EndSplineSet
Substitution2: "'onum' Oldstyle Figures lookup 22 subtable" four.osf
Substitution2: "'tnum' Tabular Numbers lookup 21 subtable" four.tf
Substitution2: "'frac' Diagonal Fractions lookup 16 subtable" four.numr
Substitution2: "'dnom' Denominators lookup 14 subtable" four.dnom
Substitution2: "'numr' Numerators lookup 13 subtable" four.numr
Substitution2: "'sups' Superscript lookup 12 subtable" foursuperior
Substitution2: "'subs' Subscript lookup 11 subtable" fourinferior
AlternateSubs2: "'aalt' Access All Alternates lookup 1 subtable" fourinferior foursuperior four.numr four.dnom four.tf four.osf
EndChar
StartChar: five
Encoding: 53 53 2016
Width: 546
Flags: MW
HStem: -18 132<207.5 266 207.5 326> 329 120<236.5 377.5> 552 126<225 465 225 225>
VStem: 54 171<427 552 427 678 427 678> 336 182<188 263>
LayerCount: 2
Back
Fore
SplineSet
484 678 m 1
 465 552 l 1
 225 552 l 1
 225 427 l 1
 258 442 292 449 322 449 c 0
 433 449 518 368 518 226 c 0
 518 80 410 -18 242 -18 c 0
 134 -18 60 27 9 89 c 1
 108 180 l 1
 140 139 181 114 234 114 c 0
 298 114 336 152 336 224 c 0
 336 302 301 329 249 329 c 0
 224 329 202 323 172 305 c 1
 54 305 l 1
 54 678 l 1
 484 678 l 1
EndSplineSet
Substitution2: "'onum' Oldstyle Figures lookup 25 subtable" five.osf
Substitution2: "'tnum' Tabular Numbers lookup 24 subtable" five.tf
Substitution2: "'frac' Diagonal Fractions lookup 18 subtable" five.numr
Substitution2: "'dnom' Denominators lookup 16 subtable" five.dnom
Substitution2: "'numr' Numerators lookup 15 subtable" five.numr
Substitution2: "'sups' Superscript lookup 14 subtable" uni2075
Substitution2: "'subs' Subscript lookup 13 subtable" uni2085
AlternateSubs2: "'aalt' Access All Alternates lookup 1 subtable" uni2085 uni2075 five.numr five.dnom five.tf five.osf
EndChar

StartChar: six
Encoding: 54 54 883
Width: 573
Flags: MW
HStem: -18 125<269.5 326 269.5 379.5> 339 120<289.5 414> 569 124<310 362>
VStem: 32 187<228 298 228 423.5> 375 178<193 271>
LayerCount: 2
Fore
SplineSet
357 459 m 0
 471 459 553 376 553 232 c 0
 553 97 460 -18 299 -18 c 0
 114 -18 32 112 32 308 c 0
 32 539 149 693 340 693 c 0
 406 693 460 674 498 648 c 1
 434 543 l 1
 407 559 380 569 344 569 c 0
 276 569 229 513 219 405 c 1
 260 443 308 459 357 459 c 0
300 107 m 0
 352 107 375 156 375 230 c 0
 375 312 352 339 303 339 c 0
 276 339 245 325 219 298 c 1
 219 158 239 107 300 107 c 0
EndSplineSet
Substitution2: "'onum' Oldstyle Figures lookup 22 subtable" six.osf
Substitution2: "'tnum' Tabular Numbers lookup 21 subtable" six.tf
Substitution2: "'frac' Diagonal Fractions lookup 16 subtable" six.numr
Substitution2: "'dnom' Denominators lookup 14 subtable" six.dnom
Substitution2: "'numr' Numerators lookup 13 subtable" six.numr
Substitution2: "'sups' Superscript lookup 12 subtable" sixsuperior
Substitution2: "'subs' Subscript lookup 11 subtable" sixinferior
AlternateSubs2: "'aalt' Access All Alternates lookup 1 subtable" sixinferior sixsuperior six.numr six.dnom six.tf six.osf
EndChar
StartChar: seven
Encoding: 55 55 2018
Width: 475
Flags: MW
HStem: -18 21G<213 213> 545 133<9 275 9 461>
VStem: 9 452<559 678 559 678 559 678>
LayerCount: 2
Back
Fore
SplineSet
461 678 m 1
 461 559 l 1
 213 -18 l 1
 52 36 l 1
 275 545 l 1
 9 545 l 1
 9 678 l 1
 461 678 l 1
EndSplineSet
Substitution2: "'onum' Oldstyle Figures lookup 25 subtable" seven.osf
Substitution2: "'tnum' Tabular Numbers lookup 24 subtable" seven.tf
Substitution2: "'frac' Diagonal Fractions lookup 18 subtable" seven.numr
Substitution2: "'dnom' Denominators lookup 16 subtable" seven.dnom
Substitution2: "'numr' Numerators lookup 15 subtable" seven.numr
Substitution2: "'sups' Superscript lookup 14 subtable" uni2077
Substitution2: "'subs' Subscript lookup 13 subtable" uni2087
AlternateSubs2: "'aalt' Access All Alternates lookup 1 subtable" uni2087 uni2077 seven.numr seven.dnom seven.tf seven.osf
EndChar

StartChar: nine
Encoding: 57 57 886
Width: 571
Flags: MW
HStem: 232 122<163.5 289> 569 124<256.5 312.5>
VStem: 21 178<421 499 421 527> 363 183
LayerCount: 2
Fore
SplineSet
283 693 m 0
 457 693 546 583 546 430 c 0
 546 155 407 25 105 -30 c 1
 70 93 l 1
 240 132 320 180 353 291 c 1
 318 253 278 232 216 232 c 0
 111 232 21 316 21 456 c 0
 21 598 134 693 283 693 c 0
273 354 m 0
 305 354 338 371 363 406 c 1
 364 527 344 569 281 569 c 0
 232 569 199 534 199 464 c 0
 199 378 233 354 273 354 c 0
EndSplineSet
Substitution2: "'onum' Oldstyle Figures lookup 22 subtable" nine.osf
Substitution2: "'tnum' Tabular Numbers lookup 21 subtable" nine.tf
Substitution2: "'frac' Diagonal Fractions lookup 16 subtable" nine.numr
Substitution2: "'dnom' Denominators lookup 14 subtable" nine.dnom
Substitution2: "'numr' Numerators lookup 13 subtable" nine.numr
Substitution2: "'sups' Superscript lookup 12 subtable" ninesuperior
Substitution2: "'subs' Subscript lookup 11 subtable" nineinferior
AlternateSubs2: "'aalt' Access All Alternates lookup 1 subtable" nineinferior ninesuperior nine.numr nine.dnom nine.tf nine.osf
EndChar
StartChar: colon
Encoding: 58 58 2118
Width: 240
Flags: MW
HStem: -18 21G<93 147> -18 193<93 147> 320 194<93 147>
VStem: 23 194<51.5 104.5 390.5 443.5>
LayerCount: 2
Back
Fore
SplineSet
120 514 m 0xb0
 174 514 217 470 217 417 c 0
 217 364 174 320 120 320 c 0
 66 320 23 364 23 417 c 0
 23 470 66 514 120 514 c 0xb0
120 175 m 0x70
 174 175 217 131 217 78 c 0
 217 25 174 -18 120 -18 c 0
 66 -18 23 25 23 78 c 0
 23 131 66 175 120 175 c 0x70
EndSplineSet
EndChar
StartChar: less
Encoding: 60 60 2259
Width: 524
GlyphClass: 2
Flags: MW
HStem: 563 20G<440 440>
VStem: 30 465<210 409 210 409>
LayerCount: 2
Back
Fore
SplineSet
440 583 m 1
 495 462 l 1
 182 333 l 1
 495 210 l 1
 440 83 l 1
 30 256 l 1
 30 409 l 1
 440 583 l 1
EndSplineSet
Substitution2: "'onum' Oldstyle Figures lookup 25 subtable" less.osf
Substitution2: "'tnum' Tabular Numbers lookup 24 subtable" less.tf
AlternateSubs2: "'aalt' Access All Alternates lookup 1 subtable" less.tf less.osf
EndChar

StartChar: equal
Encoding: 61 61 1093
Width: 524
Flags: MW
HStem: 156 136<44 480 44 480> 371 136<44 480 44 480>
VStem: 44 436<156 292 156 292 371 507 156 507>
LayerCount: 2
Fore
SplineSet
44 507 m 1
 480 507 l 1
 480 371 l 1
 44 371 l 1
 44 507 l 1
44 292 m 1
 480 292 l 1
 480 156 l 1
 44 156 l 1
 44 292 l 1
EndSplineSet
Substitution2: "'onum' Oldstyle Figures lookup 22 subtable" equal.osf
Substitution2: "'tnum' Tabular Numbers lookup 21 subtable" equal.tf
Substitution2: "'dnom' Denominators lookup 14 subtable" equal.dnom
Substitution2: "'numr' Numerators lookup 13 subtable" equal.numr
Substitution2: "'sups' Superscript lookup 12 subtable" equalsuperior
AlternateSubs2: "'aalt' Access All Alternates lookup 1 subtable" equalsuperior equal.numr equal.dnom equal.tf equal.osf
EndChar

StartChar: greater
Encoding: 62 62 1096
Width: 524
Flags: MW
HStem: 563 20G<85 85>
VStem: 30 465<210 409 256 462>
LayerCount: 2
Fore
SplineSet
495 409 m 1
 495 256 l 1
 85 83 l 1
 30 210 l 1
 342 333 l 1
 30 462 l 1
 85 583 l 1
 495 409 l 1
EndSplineSet
Substitution2: "'onum' Oldstyle Figures lookup 22 subtable" greater.osf
Substitution2: "'tnum' Tabular Numbers lookup 21 subtable" greater.tf
AlternateSubs2: "'aalt' Access All Alternates lookup 1 subtable" greater.tf greater.osf
EndChar

StartChar: question
Encoding: 63 63 989
Width: 488
Flags: MW
HStem: -18 21G<193.5 247> -18 193<193.5 247> 574 139<213 251>
VStem: 124 193<51.5 104.5> 139 160<262 281 262 287 262 374.5> 292 186<489 541.5>
LayerCount: 2
Fore
SplineSet
251 713 m 0xa4
 403 713 478 634 478 543 c 0
 478 379 299 388 299 281 c 2
 299 262 l 1
 139 262 l 1
 139 287 l 2xa8
 139 462 292 452 292 526 c 0
 292 557 270 574 232 574 c 0
 194 574 156 554 121 516 c 1
 10 604 l 1
 66 670 142 713 251 713 c 0xa4
220 175 m 0x70
 274 175 317 131 317 78 c 0
 317 25 274 -18 220 -18 c 0
 167 -18 124 25 124 78 c 0
 124 131 167 175 220 175 c 0x70
EndSplineSet
EndChar

StartChar: at
Encoding: 64 64 1218
Width: 1020
Flags: MW
HStem: -224 128<420 561.5 420 568> 3 106<730 767 730 820> 7 109<481 511> 396 110<499 526> 586 127<420 629>
VStem: 42 158<137.5 345 137.5 380> 290 158<188 297 188 314> 556 150<175.5 217 217 388 388 388> 822 156<234.5 400.5>
LayerCount: 2
Fore
SplineSet
528 506 m 0xdf80
 583 506 651 489 706 459 c 1
 706 217 l 2
 706 134 714 109 746 109 c 0
 788 109 822 153 822 316 c 0
 822 485 732 586 526 586 c 0
 314 586 200 447 200 243 c 0
 200 32 312 -96 528 -96 c 0
 595 -96 675 -80 725 -61 c 1
 767 -181 l 1
 705 -206 609 -224 527 -224 c 0
 230 -224 42 -43 42 242 c 0
 42 518 247 713 527 713 c 0
 813 713 978 522 978 318 c 0
 978 132 886 3 754 3 c 0xdf80
 676 3 629 54 619 104 c 1
 594 46 546 7 476 7 c 0xbf80
 342 7 290 105 290 233 c 0
 290 395 372 506 528 506 c 0xdf80
499 116 m 0xbf80
 527 116 546 134 556 155 c 1
 556 388 l 1
 543 394 533 396 519 396 c 0
 479 396 448 361 448 233 c 0
 448 143 463 116 499 116 c 0xbf80
EndSplineSet
EndChar

StartChar: D
Encoding: 68 68 20
Width: 654
GlyphClass: 2
Flags: MW
HStem: 0 132<239 276> 563 132<239 239 239 262 262 286>
VStem: 54 185<132 563 132 695 132 695> 436 191<264.5 436.5>
AnchorPoint: "Anchor-11" 0 0 basechar 0
AnchorPoint: "Anchor-10" 0 0 basechar 0
AnchorPoint: "Anchor-9" 293 695 basechar 0
AnchorPoint: "Anchor-8" 0 0 basechar 0
LayerCount: 2
Fore
SplineSet
262 695 m 2
 450 695 627 636 627 350 c 0
 627 72 461 0 276 0 c 2
 54 0 l 1
 54 695 l 1
 262 695 l 2
239 563 m 1
 239 132 l 1
 287 132 l 2
 382 132 436 179 436 350 c 0
 436 523 378 563 286 563 c 2
 239 563 l 1
EndSplineSet
Substitution2: "'c2sc' Capitals to Small Capitals lookup 23 subtable" d.sc
Substitution2: "'aalt' Access All Alternates lookup 0 subtable" d.sc
Position2: "'cpsp' Capital Spacing lookup 0 subtable" dx=5 dy=0 dh=10 dv=0
EndChar
StartChar: F
Encoding: 70 70 95
Width: 486
GlyphClass: 2
Flags: MW
HStem: 0 21G<54 239 54 54> 266 131<239 435 239 435> 564 131<239 462 239 239>
VStem: 54 185<0 266 397 564>
AnchorPoint: "Anchor-14" 0 0 basechar 0
AnchorPoint: "Anchor-13" 0 0 basechar 0
AnchorPoint: "Anchor-12" 278 695 basechar 0
AnchorPoint: "Anchor-11" 0 0 basechar 0
AnchorPoint: "Anchor-10" 0 0 basechar 0
LayerCount: 2
Back
Fore
SplineSet
481 695 m 1
 462 564 l 1
 239 564 l 1
 239 397 l 1
 435 397 l 1
 435 266 l 1
 239 266 l 1
 239 0 l 1
 54 0 l 1
 54 695 l 1
 481 695 l 1
EndSplineSet
Substitution2: "'c2sc' Capitals to Small Capitals lookup 26 subtable" f.sc
Substitution2: "'aalt' Access All Alternates lookup 0 subtable" f.sc
Position2: "'cpsp' Capital Spacing lookup 0 subtable" dx=5 dy=0 dh=10 dv=0
EndChar

StartChar: H
Encoding: 72 72 40
Width: 661
GlyphClass: 2
Flags: MW
HStem: 0 21G<54 239 54 54 423 423 423 608> 289 143<239 423 239 423> 675 20G<54 239 239 239 423 608 608 608>
VStem: 54 185<0 289 0 432 432 695> 423 185<0 289 289 289 432 695 0 695>
AnchorPoint: "Anchor-11" 0 0 basechar 0
AnchorPoint: "Anchor-10" 52 695 basechar 0
AnchorPoint: "Anchor-9" 331 695 basechar 0
AnchorPoint: "Anchor-8" 0 0 basechar 0
LayerCount: 2
Fore
SplineSet
423 289 m 1
 239 289 l 1
 239 0 l 1
 54 0 l 1
 54 695 l 1
 239 695 l 1
 239 432 l 1
 423 432 l 1
 423 695 l 1
 608 695 l 1
 608 0 l 1
 423 0 l 1
 423 289 l 1
EndSplineSet
Substitution2: "'c2sc' Capitals to Small Capitals lookup 23 subtable" h.sc
Substitution2: "'aalt' Access All Alternates lookup 0 subtable" h.sc
Position2: "'cpsp' Capital Spacing lookup 0 subtable" dx=5 dy=0 dh=10 dv=0
EndChar

StartChar: J
Encoding: 74 74 54
Width: 321
GlyphClass: 2
Flags: MW
HStem: 675 20G<85 270 270 270>
VStem: 85 185<115 695>
AnchorPoint: "Anchor-11" 0 0 basechar 0
AnchorPoint: "Anchor-10" 0 0 basechar 0
AnchorPoint: "Anchor-9" 178 695 basechar 0
AnchorPoint: "Anchor-8" 0 0 basechar 0
LayerCount: 2
Fore
SplineSet
270 108 m 2
 270 -76 153 -140 34 -179 c 1
 -15 -49 l 1
 74 -14 85 35 85 115 c 2
 85 695 l 1
 270 695 l 1
 270 108 l 2
EndSplineSet
Substitution2: "'c2sc' Capitals to Small Capitals lookup 23 subtable" j.sc
Substitution2: "'aalt' Access All Alternates lookup 0 subtable" j.sc
Position2: "'cpsp' Capital Spacing lookup 0 subtable" dx=5 dy=0 dh=10 dv=0
EndChar

StartChar: K
Encoding: 75 75 56
Width: 646
GlyphClass: 2
Flags: MW
HStem: 0 21G<54 239 54 54 450 450 450 662> 675 20G<54 239 239 239 451 644 644 644>
VStem: 54 185<0 695>
AnchorPoint: "Anchor-11" 327 0 basechar 0
AnchorPoint: "Anchor-10" 0 0 basechar 0
AnchorPoint: "Anchor-9" 330 695 basechar 0
AnchorPoint: "Anchor-8" 0 0 basechar 0
LayerCount: 2
Fore
SplineSet
239 0 m 1
 54 0 l 1
 54 695 l 1
 239 695 l 1
 239 0 l 1
435 385 m 1
 662 0 l 1
 450 0 l 1
 245 370 l 1
 451 695 l 1
 644 695 l 1
 435 385 l 1
EndSplineSet
Substitution2: "'c2sc' Capitals to Small Capitals lookup 23 subtable" k.sc
Substitution2: "'aalt' Access All Alternates lookup 0 subtable" k.sc
Position2: "'cpsp' Capital Spacing lookup 0 subtable" dx=5 dy=0 dh=10 dv=0
EndChar
StartChar: L
Encoding: 76 76 144
Width: 517
GlyphClass: 2
Flags: MW
HStem: 0 144<239 486> 675 20G<54 239 239 239>
VStem: 54 185<144 695 144 695 144 695>
AnchorPoint: "Anchor-14" 401 401 basechar 0
AnchorPoint: "Anchor-13" 251 695 basechar 0
AnchorPoint: "Anchor-12" 146 695 basechar 0
AnchorPoint: "Anchor-11" 0 0 basechar 0
AnchorPoint: "Anchor-10" 270 0 basechar 0
LayerCount: 2
Back
Fore
SplineSet
239 695 m 1
 239 144 l 1
 506 144 l 1
 486 0 l 1
 54 0 l 1
 54 695 l 1
 239 695 l 1
EndSplineSet
Substitution2: "'c2sc' Capitals to Small Capitals lookup 26 subtable" l.sc
Substitution2: "'aalt' Access All Alternates lookup 0 subtable" l.sc
Position2: "'cpsp' Capital Spacing lookup 0 subtable" dx=5 dy=0 dh=10 dv=0
EndChar

StartChar: N
Encoding: 78 78 65
Width: 657
GlyphClass: 2
Flags: MW
HStem: 0 21G<54 218 54 54 370 603 370 370> 0 170<464 464 464 603 370 464> 523 172<194 194> 675 20G<54 282 282 282 439 603 603 603>
VStem: 54 164<0 235 0 695> 439 164<443 695>
AnchorPoint: "Anchor-11" 329 0 basechar 0
AnchorPoint: "Anchor-10" 0 0 basechar 0
AnchorPoint: "Anchor-9" 331 695 basechar 0
AnchorPoint: "Anchor-8" 0 0 basechar 0
LayerCount: 2
Fore
SplineSet
603 0 m 1x9c
 370 0 l 1
 194 523 l 1xac
 203 457 218 364 218 235 c 2
 218 0 l 1
 54 0 l 1
 54 695 l 1
 282 695 l 1
 464 170 l 1x5c
 453 239 439 325 439 443 c 2
 439 695 l 1
 603 695 l 1
 603 0 l 1x9c
EndSplineSet
Substitution2: "'c2sc' Capitals to Small Capitals lookup 23 subtable" n.sc
Substitution2: "'aalt' Access All Alternates lookup 0 subtable" n.sc
Position2: "'cpsp' Capital Spacing lookup 0 subtable" dx=5 dy=0 dh=10 dv=0
EndChar

StartChar: P
Encoding: 80 80 83
Width: 605
GlyphClass: 2
Flags: MW
HStem: 0 21G<54 239 54 54> 224 132<239 293 293 310 239 293> 565 130<239 289 239 239>
VStem: 54 185<0 224 0 356 356 565> 398 189<425.5 497>
LayerCount: 2
Fore
SplineSet
292 695 m 2
 475 695 587 619 587 465 c 0
 587 303 473 224 310 224 c 2
 239 224 l 1
 239 0 l 1
 54 0 l 1
 54 695 l 1
 292 695 l 2
293 356 m 2
 360 356 398 387 398 464 c 0
 398 530 363 565 289 565 c 2
 239 565 l 1
 239 356 l 1
 293 356 l 2
EndSplineSet
Substitution2: "'c2sc' Capitals to Small Capitals lookup 23 subtable" p.sc
Substitution2: "'aalt' Access All Alternates lookup 0 subtable" p.sc
Position2: "'cpsp' Capital Spacing lookup 0 subtable" dx=5 dy=0 dh=10 dv=0
EndChar
StartChar: Q
Encoding: 81 81 223
Width: 690
GlyphClass: 2
Flags: MW
HStem: -15 61 -15 130<303 388.5 303 398> 580 133<302.5 388>
VStem: 27 192<264 432 264 461> 471 193<264.5 432>
LayerCount: 2
Back
Fore
SplineSet
499 46 m 1xb8
 593 46 653 26 710 -17 c 1
 600 -160 l 1
 540 -87 463 -15 333 -15 c 0x78
 143 -15 27 117 27 348 c 0
 27 574 143 713 345 713 c 0
 547 713 664 579 664 348 c 0
 664 181 581 93 499 46 c 1xb8
219 348 m 0x78
 219 180 261 115 345 115 c 0
 432 115 471 180 471 348 c 0
 471 516 431 580 345 580 c 0
 260 580 219 516 219 348 c 0x78
EndSplineSet
Substitution2: "'c2sc' Capitals to Small Capitals lookup 26 subtable" q.sc
Substitution2: "'aalt' Access All Alternates lookup 0 subtable" q.sc
Position2: "'cpsp' Capital Spacing lookup 0 subtable" dx=5 dy=0 dh=10 dv=0
EndChar

StartChar: R
Encoding: 82 82 86
Width: 620
GlyphClass: 2
Flags: MW
HStem: 0 21G<54 239 54 54 426 426 426 632> 256 126<239 290 239 301> 566 129<239 291 239 239>
VStem: 54 185<0 256 382 566> 397 190<445.5 509>
AnchorPoint: "Anchor-11" 311 0 basechar 0
AnchorPoint: "Anchor-10" 0 0 basechar 0
AnchorPoint: "Anchor-9" 310 695 basechar 0
AnchorPoint: "Anchor-8" 0 0 basechar 0
LayerCount: 2
Fore
SplineSet
290 256 m 1
 239 256 l 1
 239 0 l 1
 54 0 l 1
 54 695 l 1
 295 695 l 2
 489 695 587 627 587 479 c 0
 587 389 546 336 459 290 c 1
 632 0 l 1
 426 0 l 1
 290 256 l 1
239 382 m 1
 301 382 l 2
 364 382 397 412 397 479 c 0
 397 539 361 566 291 566 c 2
 239 566 l 1
 239 382 l 1
EndSplineSet
Substitution2: "'c2sc' Capitals to Small Capitals lookup 23 subtable" r.sc
Substitution2: "'aalt' Access All Alternates lookup 0 subtable" r.sc
Position2: "'cpsp' Capital Spacing lookup 0 subtable" dx=5 dy=0 dh=10 dv=0
EndChar

StartChar: T
Encoding: 84 84 96
Width: 547
GlyphClass: 2
Flags: MW
HStem: 0 21G<181 366 181 181> 554 141<7 181 7 549 366 530 366 366>
VStem: 181 185<0 554 0 554>
AnchorPoint: "Anchor-11" 274 0 basechar 0
AnchorPoint: "Anchor-10" 0 0 basechar 0
AnchorPoint: "Anchor-9" 274 695 basechar 0
AnchorPoint: "Anchor-8" 0 0 basechar 0
LayerCount: 2
Fore
SplineSet
530 554 m 1
 366 554 l 1
 366 0 l 1
 181 0 l 1
 181 554 l 1
 7 554 l 1
 7 695 l 1
 549 695 l 1
 530 554 l 1
EndSplineSet
Substitution2: "'c2sc' Capitals to Small Capitals lookup 23 subtable" t.sc
Substitution2: "'aalt' Access All Alternates lookup 0 subtable" t.sc
Position2: "'cpsp' Capital Spacing lookup 0 subtable" dx=5 dy=0 dh=10 dv=0
EndChar
StartChar: V
Encoding: 86 86 291
Width: 575
GlyphClass: 2
Flags: MW
HStem: 0 21G<174 410 174 174> 0 135<295 295 295 410 174 295> 675 20G<-19 176 176 176 405 594 594 594>
VStem: -19 613<695 695>
LayerCount: 2
Back
Fore
SplineSet
594 695 m 1xb0
 410 0 l 1
 174 0 l 1
 -19 695 l 1
 176 695 l 1
 295 135 l 1x70
 405 695 l 1
 594 695 l 1xb0
EndSplineSet
Substitution2: "'c2sc' Capitals to Small Capitals lookup 26 subtable" v.sc
Substitution2: "'aalt' Access All Alternates lookup 0 subtable" v.sc
Position2: "'cpsp' Capital Spacing lookup 0 subtable" dx=5 dy=0 dh=10 dv=0
EndChar

StartChar: W
Encoding: 87 87 113
Width: 853
GlyphClass: 2
Flags: MW
HStem: 0 137<246 246 246 345 110 246> 515 180<425 425> 675 20G<5 189 189 189 331 525 525 525 671 848 848 848>
VStem: 5 843<695 695>
AnchorPoint: "Anchor-11" 0 0 basechar 0
AnchorPoint: "Anchor-10" 0 0 basechar 0
AnchorPoint: "Anchor-9" 428 695 basechar 0
AnchorPoint: "Anchor-8" 0 0 basechar 0
LayerCount: 2
Fore
SplineSet
740 0 m 1xb0
 499 0 l 1
 425 515 l 1xd0
 345 0 l 1
 110 0 l 1
 5 695 l 1
 189 695 l 1
 246 137 l 1
 331 695 l 1
 525 695 l 1
 601 137 l 1
 671 695 l 1
 848 695 l 1
 740 0 l 1xb0
EndSplineSet
Substitution2: "'c2sc' Capitals to Small Capitals lookup 23 subtable" w.sc
Substitution2: "'aalt' Access All Alternates lookup 0 subtable" w.sc
Position2: "'cpsp' Capital Spacing lookup 0 subtable" dx=5 dy=0 dh=10 dv=0
EndChar
StartChar: X
Encoding: 88 88 301
Width: 594
GlyphClass: 2
Flags: MW
HStem: 0 21G<-7 189 -7 -7 400 601 400 400> 675 20G<7 206 206 206 390 585 585 585>
VStem: -7 608<0 0>
LayerCount: 2
Back
Fore
SplineSet
404 374 m 1
 601 0 l 1
 400 0 l 1
 292 251 l 1
 189 0 l 1
 -7 0 l 1
 183 369 l 1
 7 695 l 1
 206 695 l 1
 294 484 l 1
 390 695 l 1
 585 695 l 1
 404 374 l 1
EndSplineSet
Substitution2: "'c2sc' Capitals to Small Capitals lookup 26 subtable" x.sc
Substitution2: "'aalt' Access All Alternates lookup 0 subtable" x.sc
Position2: "'cpsp' Capital Spacing lookup 0 subtable" dx=5 dy=0 dh=10 dv=0
EndChar
StartChar: Z
Encoding: 90 90 315
Width: 550
GlyphClass: 2
Flags: MW
HStem: 0 146<233 511> 553 142<43 311 43 522>
VStem: 14 516<0 146 137 146>
AnchorPoint: "Anchor-14" 0 0 basechar 0
AnchorPoint: "Anchor-13" 0 0 basechar 0
AnchorPoint: "Anchor-12" 278 695 basechar 0
AnchorPoint: "Anchor-11" 0 0 basechar 0
AnchorPoint: "Anchor-10" 266 0 basechar 0
LayerCount: 2
Back
Fore
SplineSet
522 695 m 1
 522 556 l 1
 233 146 l 1
 530 146 l 1
 511 0 l 1
 14 0 l 1
 14 137 l 1
 311 553 l 1
 43 553 l 1
 43 695 l 1
 522 695 l 1
EndSplineSet
Substitution2: "'c2sc' Capitals to Small Capitals lookup 26 subtable" z.sc
Substitution2: "'aalt' Access All Alternates lookup 0 subtable" z.sc
Position2: "'cpsp' Capital Spacing lookup 0 subtable" dx=5 dy=0 dh=10 dv=0
EndChar

StartChar: bracketleft
Encoding: 91 91 1005
Width: 324
Flags: MW
HStem: -125 130<193 307 193 307> 694 131<193 307 193 193>
VStem: 24 169<5 694 5 825 5 825>
LayerCount: 2
Fore
SplineSet
307 694 m 1
 193 694 l 1
 193 5 l 1
 307 5 l 1
 307 -125 l 1
 24 -125 l 1
 24 825 l 1
 307 825 l 1
 307 694 l 1
EndSplineSet
Substitution2: "'case' Case-Sensitive Forms lookup 25 subtable" bracketleft.case
Substitution2: "'aalt' Access All Alternates lookup 0 subtable" bracketleft.case
EndChar

StartChar: backslash
Encoding: 92 92 979
Width: 520
Flags: MW
HStem: -115 934<220 299>
VStem: 64 392
LayerCount: 2
Fore
SplineSet
456 -79 m 1
 299 -115 l 1
 64 783 l 1
 220 819 l 1
 456 -79 l 1
EndSplineSet
EndChar
StartChar: bracketright
Encoding: 93 93 2143
Width: 324
Flags: MW
HStem: -125 130<18 131 18 300 18 131> 695 130<18 131 18 300>
VStem: 131 169<5 695 695 695>
LayerCount: 2
Back
Fore
SplineSet
300 825 m 1
 300 -125 l 1
 18 -125 l 1
 18 5 l 1
 131 5 l 1
 131 695 l 1
 18 695 l 1
 18 825 l 1
 300 825 l 1
EndSplineSet
Substitution2: "'case' Case-Sensitive Forms lookup 28 subtable" bracketright.case
Substitution2: "'aalt' Access All Alternates lookup 0 subtable" bracketright.case
EndChar

StartChar: asciicircum
Encoding: 94 94 1228
Width: 564
Flags: MW
HStem: 527 319<12 364 12 364 201 553 201 381>
VStem: 12 541<527 527>
LayerCount: 2
Fore
SplineSet
553 527 m 1
 381 527 l 1
 281 715 l 1
 186 527 l 1
 12 527 l 1
 201 846 l 1
 364 846 l 1
 553 527 l 1
EndSplineSet
EndChar
StartChar: underscore
Encoding: 95 95 2136
Width: 520
Flags: MW
HStem: -179 136<7 513 7 513>
VStem: 7 506<-179 -43 -179 -43>
LayerCount: 2
Back
Fore
SplineSet
7 -179 m 1
 7 -43 l 1
 513 -43 l 1
 513 -179 l 1
 7 -179 l 1
EndSplineSet
EndChar

StartChar: grave
Encoding: 96 96 1257
Width: 352
Flags: MW
HStem: 687 20G<322 322> 694 20G<30 30>
VStem: 30 292<707 714>
LayerCount: 2
Fore
SplineSet
322 707 m 1xa0
 274 618 l 1xa0
 30 714 l 1x60
 98 846 l 1
 322 707 l 1xa0
EndSplineSet
Substitution2: "'case' Case-Sensitive Forms lookup 25 subtable" grave.case
Substitution2: "'smcp' Lowercase to Small Capitals lookup 24 subtable" grave.sc
Substitution2: "'c2sc' Capitals to Small Capitals lookup 23 subtable" grave.sc
AlternateSubs2: "'aalt' Access All Alternates lookup 1 subtable" grave.sc grave.case
EndChar
StartChar: a
Encoding: 97 97 335
Width: 550
GlyphClass: 2
Flags: MW
HStem: -18 125<142 264> -15 21G<492 492> 236 95<274 290 290 320> 423 128<234 267.5>
VStem: 21 175<148 189.5 148 207.5> 320 174<149 164 164 236 236 236 331 349 349 358>
AnchorPoint: "Anchor-14" 0 0 basechar 0
AnchorPoint: "Anchor-13" 0 0 basechar 0
AnchorPoint: "Anchor-12" 274 533 basechar 0
AnchorPoint: "Anchor-11" 502 -15 basechar 0
AnchorPoint: "Anchor-10" 274 0 basechar 0
LayerCount: 2
Back
Fore
SplineSet
494 164 m 2x7c
 494 124 504 109 528 100 c 1
 492 -15 l 1x7c
 426 -10 383 9 355 60 c 1
 317 2 257 -18 195 -18 c 0xbc
 89 -18 21 51 21 149 c 0
 21 266 110 331 274 331 c 2
 320 331 l 1
 320 349 l 2
 320 407 298 423 237 423 c 0
 204 423 151 413 98 395 c 1
 59 510 l 1
 125 537 204 551 264 551 c 0
 426 551 494 486 494 358 c 2
 494 164 l 2x7c
249 107 m 0xbc
 279 107 304 124 320 149 c 1
 320 236 l 1
 290 236 l 2
 226 236 196 213 196 166 c 0
 196 130 215 107 249 107 c 0xbc
EndSplineSet
Substitution2: "Single Substitution lookup 41 subtable" ordfeminine
Substitution2: "'smcp' Lowercase to Small Capitals lookup 27 subtable" a.sc
AlternateSubs2: "'aalt' Access All Alternates lookup 1 subtable" ordfeminine a.sc
EndChar

StartChar: b
Encoding: 98 98 146
Width: 598
GlyphClass: 2
Flags: MW
HStem: -18 128<326.5 328.5 289.5 423> 0 110<52 328.5> 422 129<295 435> 723 20G<52 52> 741 20G<230 230>
VStem: 52 178<155 366 482 743 743 743> 385 184<207 330.5>
LayerCount: 2
Fore
SplineSet
368 551 m 0xae
 502 551 569 444 569 266 c 0
 569 102 490 -18 356 -18 c 0
 297 -18 249 7 217 49 c 1xae
 210 0 l 1
 52 0 l 1
 52 743 l 1x76
 230 761 l 1
 230 482 l 1
 260 524 315 551 368 551 c 0xae
305 110 m 0
 352 110 385 148 385 266 c 0
 385 395 353 422 311 422 c 0
 279 422 252 403 230 366 c 1
 230 155 l 1
 248 125 274 110 305 110 c 0
EndSplineSet
Substitution2: "'smcp' Lowercase to Small Capitals lookup 24 subtable" b.sc
Substitution2: "'aalt' Access All Alternates lookup 0 subtable" b.sc
EndChar

StartChar: d
Encoding: 100 100 153
Width: 600
GlyphClass: 2
Flags: MW
HStem: -18 128<163.5 307> 0 21G<390 548 390 390> 423 128<275 276 184 314.5> 723 20G<548 548> 741 20G<370 370>
VStem: 30 183<202 324 202 350.5> 370 178<163 386 386 386 505 743 0 761 0 761>
LayerCount: 2
Fore
SplineSet
548 743 m 1x76
 548 0 l 1
 390 0 l 1x6e
 383 59 l 1
 354 18 306 -18 232 -18 c 0
 95 -18 30 95 30 268 c 0
 30 433 114 551 254 551 c 0
 298 551 339 534 370 505 c 1
 370 761 l 1xae
 548 743 l 1x76
292 110 m 0xae
 322 110 348 127 370 163 c 1
 370 386 l 1
 349 409 329 423 300 423 c 0
 250 423 213 381 213 267 c 0
 213 137 246 110 292 110 c 0xae
EndSplineSet
Substitution2: "'smcp' Lowercase to Small Capitals lookup 24 subtable" d.sc
Substitution2: "'aalt' Access All Alternates lookup 0 subtable" d.sc
EndChar
StartChar: f
Encoding: 102 102 448
Width: 363
GlyphClass: 2
Flags: MW
HStem: 0 21G<76 254 76 76> 411 122<0 76 0 76 254 359> 632 129<293 319 219 325.5>
VStem: 76 178<0 411 0 411 533 563 0 571 0 624>
AnchorPoint: "Anchor-14" 0 0 basechar 0
AnchorPoint: "Anchor-13" 0 0 basechar 0
AnchorPoint: "Anchor-12" 268 743 basechar 0
AnchorPoint: "Anchor-11" 0 0 basechar 0
AnchorPoint: "Anchor-10" 165 0 basechar 0
LayerCount: 2
Back
Fore
SplineSet
314 632 m 0
 272 632 254 614 254 563 c 2
 254 533 l 1
 379 533 l 1
 359 411 l 1
 254 411 l 1
 254 0 l 1
 76 0 l 1
 76 411 l 1
 0 411 l 1
 0 533 l 1
 76 533 l 1
 76 571 l 2
 76 677 147 761 291 761 c 0
 347 761 404 746 442 726 c 1
 394 612 l 1
 365 627 337 632 314 632 c 0
EndSplineSet
Substitution2: "'smcp' Lowercase to Small Capitals lookup 27 subtable" f.sc
Substitution2: "'aalt' Access All Alternates lookup 0 subtable" f.sc
EndChar

StartChar: h
Encoding: 104 104 173
Width: 575
GlyphClass: 2
Flags: MW
HStem: 0 21G<52 230 52 52 350 528 350 350> 421 130<295.5 427> 531 20G<351.5 427> 723 20G<52 52> 741 20G<230 230>
VStem: 52 178<0 360 0 481 481 743 743 743> 350 178<0 359 359 383.5>
AnchorPoint: "Anchor-11" 0 0 basechar 0
AnchorPoint: "Anchor-10" 0 0 basechar 0
AnchorPoint: "Anchor-9" 287 743 basechar 0
AnchorPoint: "Anchor-8" 0 0 basechar 0
LayerCount: 2
Fore
SplineSet
382 551 m 0xae
 472 551 528 492 528 391 c 2
 528 0 l 1
 350 0 l 1
 350 359 l 2
 350 408 333 421 309 421 c 0
 282 421 255 400 230 360 c 1
 230 0 l 1
 52 0 l 1
 52 743 l 1xd6
 230 761 l 1
 230 481 l 1
 274 528 321 551 382 551 c 0xae
EndSplineSet
Substitution2: "'smcp' Lowercase to Small Capitals lookup 24 subtable" h.sc
Substitution2: "'aalt' Access All Alternates lookup 0 subtable" h.sc
EndChar
StartChar: i
Encoding: 105 105 478
Width: 282
GlyphClass: 2
Flags: MW
HStem: 0 21G<52 230 52 52> 513 20G<52 230 230 230> 624 196<111 171>
VStem: 39 204<694.5 749.5> 52 178<0 533 0 533>
AnchorPoint: "Anchor-14" 0 0 basechar 0
AnchorPoint: "Anchor-13" 0 0 basechar 0
AnchorPoint: "Anchor-12" 143 820 basechar 0
AnchorPoint: "Anchor-11" 208 0 basechar 0
AnchorPoint: "Anchor-10" 141 0 basechar 0
LayerCount: 2
Back
Fore
SplineSet
141 820 m 0xf0
 201 820 243 777 243 722 c 0
 243 667 201 624 141 624 c 0
 81 624 39 667 39 722 c 0
 39 777 81 820 141 820 c 0xf0
230 533 m 1xe8
 230 0 l 1
 52 0 l 1
 52 533 l 1
 230 533 l 1xe8
EndSplineSet
Substitution2: "'smcp' Lowercase to Small Capitals lookup 27 subtable" i.sc
Substitution2: "'locl' Localized Forms in Latin lookup 10 subtable" i.loclTRK
Substitution2: "'locl' Localized Forms in Latin lookup 8 subtable" i.loclTRK
Substitution2: "'locl' Localized Forms in Latin lookup 6 subtable" i.loclTRK
Substitution2: "'locl' Localized Forms in Latin lookup 3 subtable" i.loclTRK
Substitution2: "'locl' Localized Forms in Latin lookup 2 subtable" i.loclTRK
AlternateSubs2: "'aalt' Access All Alternates lookup 1 subtable" i.loclTRK i.sc
EndChar
StartChar: j
Encoding: 106 106 498
Width: 282
GlyphClass: 2
Flags: MW
HStem: -224 21G<2 2> 513 20G<52 230 230 230> 624 196<110 170>
VStem: 38 204<694.5 749.5> 52 178<58 69 69 533>
AnchorPoint: "Anchor-14" 0 0 basechar 0
AnchorPoint: "Anchor-13" 0 0 basechar 0
AnchorPoint: "Anchor-12" 142 820 basechar 0
AnchorPoint: "Anchor-11" 0 0 basechar 0
AnchorPoint: "Anchor-10" 141 -213 basechar 0
LayerCount: 2
Back
Fore
SplineSet
140 820 m 0xf0
 200 820 242 777 242 722 c 0
 242 667 200 624 140 624 c 0
 80 624 38 667 38 722 c 0
 38 777 80 820 140 820 c 0xf0
230 533 m 1xe8
 230 69 l 2
 230 -112 130 -180 2 -224 c 1
 -58 -95 l 1
 9 -64 52 -34 52 58 c 2
 52 533 l 1
 230 533 l 1xe8
EndSplineSet
Substitution2: "'smcp' Lowercase to Small Capitals lookup 27 subtable" j.sc
Substitution2: "'aalt' Access All Alternates lookup 0 subtable" j.sc
EndChar
StartChar: k
Encoding: 107 107 506
Width: 564
GlyphClass: 2
Flags: MW
HStem: 0 21G<52 230 52 52 378 378 378 576> 513 20G<387 565 565 565> 723 20G<52 52> 741 20G<230 230>
VStem: 52 178<0 743 743 743>
AnchorPoint: "Anchor-14" 0 0 basechar 0
AnchorPoint: "Anchor-13" 0 0 basechar 0
AnchorPoint: "Anchor-12" 302 743 basechar 0
AnchorPoint: "Anchor-11" 0 0 basechar 0
AnchorPoint: "Anchor-10" 282 0 basechar 0
LayerCount: 2
Back
Fore
SplineSet
230 761 m 1xd8
 230 0 l 1
 52 0 l 1
 52 743 l 1xe8
 230 761 l 1xd8
565 533 m 1
 414 299 l 1
 576 0 l 1
 378 0 l 1
 234 291 l 1
 387 533 l 1
 565 533 l 1
EndSplineSet
Substitution2: "'smcp' Lowercase to Small Capitals lookup 27 subtable" k.sc
Substitution2: "'aalt' Access All Alternates lookup 0 subtable" k.sc
EndChar

StartChar: m
Encoding: 109 109 200
Width: 841
GlyphClass: 2
Flags: MW
HStem: 0 21G<52 230 52 52 334 512 334 334 616 794 616 616> 421 130<285 403> 513 20G<52 207 207 207> 531 20G<342 403 622.5 697>
VStem: 52 178<0 360 0 533 0 533> 334 178<0 359 359 360 0 383.5> 616 178<0 359 359 383.5>
LayerCount: 2
Fore
SplineSet
656 551 m 0x9e
 738 551 794 492 794 391 c 2
 794 0 l 1
 616 0 l 1
 616 359 l 2
 616 408 600 421 580 421 c 0
 554 421 532 400 512 360 c 1
 512 0 l 1
 334 0 l 1
 334 359 l 2
 334 408 318 421 298 421 c 0
 272 421 250 400 230 360 c 1xce
 230 0 l 1
 52 0 l 1
 52 533 l 1
 207 533 l 1xae
 220 474 l 1
 261 526 309 551 375 551 c 0
 431 551 476 523 497 471 c 1
 541 525 589 551 656 551 c 0x9e
EndSplineSet
Substitution2: "'smcp' Lowercase to Small Capitals lookup 24 subtable" m.sc
Substitution2: "'aalt' Access All Alternates lookup 0 subtable" m.sc
EndChar

StartChar: n
Encoding: 110 110 201
Width: 575
GlyphClass: 2
Flags: MW
HStem: 0 21G<52 230 52 52 350 528 350 350> 421 130<295.5 427> 513 20G<52 207 207 207> 531 20G<349.5 427>
VStem: 52 178<0 360 0 533 0 533> 350 178<0 359 359 383.5>
AnchorPoint: "Anchor-11" 287 0 basechar 0
AnchorPoint: "Anchor-10" 0 0 basechar 0
AnchorPoint: "Anchor-9" 292 533 basechar 0
AnchorPoint: "Anchor-8" 0 0 basechar 0
LayerCount: 2
Fore
SplineSet
382 551 m 0x9c
 472 551 528 493 528 391 c 2
 528 0 l 1
 350 0 l 1
 350 359 l 2
 350 408 334 421 310 421 c 0
 281 421 255 400 230 360 c 1xcc
 230 0 l 1
 52 0 l 1
 52 533 l 1
 207 533 l 1xac
 220 473 l 1
 267 526 317 551 382 551 c 0x9c
EndSplineSet
Substitution2: "'smcp' Lowercase to Small Capitals lookup 24 subtable" n.sc
Substitution2: "'aalt' Access All Alternates lookup 0 subtable" n.sc
EndChar

StartChar: o
Encoding: 111 111 208
Width: 584
GlyphClass: 2
Flags: MW
HStem: -18 129<263.5 320.5 263.5 375> 422 129<263.5 320.5>
VStem: 25 183<211 321 211 353> 376 183<212 321.5>
AnchorPoint: "Anchor-11" 0 0 basechar 0
AnchorPoint: "Anchor-10" 0 0 basechar 0
AnchorPoint: "Anchor-9" 292 533 basechar 0
AnchorPoint: "Anchor-8" 0 0 basechar 0
LayerCount: 2
Fore
SplineSet
292 551 m 0
 457 551 559 448 559 266 c 0
 559 94 458 -18 292 -18 c 0
 127 -18 25 85 25 267 c 0
 25 439 126 551 292 551 c 0
292 422 m 0
 235 422 208 375 208 267 c 0
 208 155 235 111 292 111 c 0
 349 111 376 158 376 266 c 0
 376 377 349 422 292 422 c 0
EndSplineSet
Substitution2: "Single Substitution lookup 30 subtable" ordmasculine
Substitution2: "'smcp' Lowercase to Small Capitals lookup 24 subtable" o.sc
AlternateSubs2: "'aalt' Access All Alternates lookup 1 subtable" ordmasculine o.sc
EndChar
StartChar: p
Encoding: 112 112 596
Width: 598
GlyphClass: 2
Flags: MW
HStem: -224 21G<52 52> -206 21G<230 230> -18 128<285.5 421.5> 422 129<293.5 436> 513 20G<52 210 210 210>
VStem: 52 178<-206 36 -206 152 152 366> 385 184<209 331>
AnchorPoint: "Anchor-14" 0 0 basechar 0
AnchorPoint: "Anchor-13" 0 0 basechar 0
AnchorPoint: "Anchor-12" 299 533 basechar 0
AnchorPoint: "Anchor-11" 0 0 basechar 0
AnchorPoint: "Anchor-10" 299 -213 basechar 0
LayerCount: 2
Back
Fore
SplineSet
366 551 m 0x76
 506 551 569 442 569 268 c 0
 569 103 486 -18 357 -18 c 0
 305 -18 262 -1 230 36 c 1
 230 -206 l 1x6e
 52 -224 l 1
 52 533 l 1
 210 533 l 1xae
 217 477 l 1
 262 532 320 551 366 551 c 0x76
300 110 m 0
 351 110 385 152 385 266 c 0
 385 396 355 422 308 422 c 0
 279 422 252 404 230 366 c 1
 230 152 l 1
 250 123 271 110 300 110 c 0
EndSplineSet
Substitution2: "'smcp' Lowercase to Small Capitals lookup 27 subtable" p.sc
Substitution2: "'aalt' Access All Alternates lookup 0 subtable" p.sc
EndChar

StartChar: q
Encoding: 113 113 222
Width: 595
GlyphClass: 2
Flags: MW
HStem: -224 21G<543 543> -206 21G<365 365> -18 128<158.5 302> 423 110<270 543> 423 128<270 272 179 309.5>
VStem: 25 183<202 324 202 350.5> 365 178<-206 45 45 45 163 386 386 386>
LayerCount: 2
Fore
SplineSet
543 533 m 1x76
 543 -224 l 1xae
 365 -206 l 1
 365 45 l 1
 336 9 291 -18 227 -18 c 0
 90 -18 25 95 25 268 c 0
 25 433 109 551 249 551 c 0
 295 551 341 533 380 492 c 1x6e
 388 533 l 1
 543 533 l 1x76
287 110 m 0
 317 110 343 127 365 163 c 1
 365 386 l 1
 344 409 324 423 295 423 c 0
 245 423 208 381 208 267 c 0
 208 137 241 110 287 110 c 0
EndSplineSet
Substitution2: "'smcp' Lowercase to Small Capitals lookup 24 subtable" q.sc
Substitution2: "'aalt' Access All Alternates lookup 0 subtable" q.sc
EndChar
StartChar: s
Encoding: 115 115 623
Width: 488
GlyphClass: 2
Flags: MW
HStem: -18 124<199 245 199 299> 426 125<241 282>
VStem: 28 177<382.5 403.5 382.5 430> 291 182<134 163.5>
AnchorPoint: "Anchor-14" 0 0 basechar 0
AnchorPoint: "Anchor-13" 0 0 basechar 0
AnchorPoint: "Anchor-12" 250 533 basechar 0
AnchorPoint: "Anchor-11" 0 0 basechar 0
AnchorPoint: "Anchor-10" 244 0 basechar 0
LayerCount: 2
Back
Fore
SplineSet
253 551 m 0
 331 551 404 525 453 484 c 1
 389 386 l 1
 349 411 304 426 260 426 c 0
 222 426 205 413 205 394 c 0
 205 371 215 361 313 331 c 0
 416 301 473 257 473 161 c 0
 473 51 369 -18 229 -18 c 0
 136 -18 54 14 1 63 c 1
 86 158 l 1
 125 128 174 106 224 106 c 0
 266 106 291 120 291 148 c 0
 291 179 277 186 183 214 c 0
 81 244 28 300 28 383 c 0
 28 477 110 551 253 551 c 0
EndSplineSet
Substitution2: "'smcp' Lowercase to Small Capitals lookup 27 subtable" s.sc
Substitution2: "'sups' Superscript lookup 14 subtable" uni02E2
AlternateSubs2: "'aalt' Access All Alternates lookup 1 subtable" uni02E2 s.sc
EndChar
StartChar: t
Encoding: 116 116 638
Width: 393
GlyphClass: 2
Flags: MW
HStem: -18 140<191 301.5> 411 122<0 69 0 69 247 350>
VStem: 69 178<186 188 188 411 533 646 646 646>
AnchorPoint: "Anchor-14" 195 266 basechar 0
AnchorPoint: "Anchor-13" 241 789 basechar 0
AnchorPoint: "Anchor-12" 158 646 basechar 0
AnchorPoint: "Anchor-11" 0 0 basechar 0
AnchorPoint: "Anchor-10" 234 0 basechar 0
LayerCount: 2
Back
Fore
SplineSet
347 137 m 1
 406 26 l 1
 363 -4 303 -18 254 -18 c 0
 128 -18 69 53 69 186 c 2
 69 411 l 1
 0 411 l 1
 0 533 l 1
 69 533 l 1
 69 646 l 1
 247 667 l 1
 247 533 l 1
 368 533 l 1
 350 411 l 1
 247 411 l 1
 247 188 l 2
 247 138 264 122 293 122 c 0
 310 122 328 126 347 137 c 1
EndSplineSet
Substitution2: "'smcp' Lowercase to Small Capitals lookup 27 subtable" t.sc
Substitution2: "'aalt' Access All Alternates lookup 0 subtable" t.sc
EndChar

StartChar: v
Encoding: 118 118 250
Width: 520
GlyphClass: 2
Flags: MW
HStem: 0 21G<156 367 156 156> 0 131<263 263 263 367 156 263> 513 20G<-10 183 183 183 349 530 530 530>
VStem: -10 540<533 533>
LayerCount: 2
Fore
SplineSet
367 0 m 1xb0
 156 0 l 1
 -10 533 l 1
 183 533 l 1
 263 131 l 1x70
 349 533 l 1
 530 533 l 1
 367 0 l 1xb0
EndSplineSet
Substitution2: "'smcp' Lowercase to Small Capitals lookup 24 subtable" v.sc
Substitution2: "'aalt' Access All Alternates lookup 0 subtable" v.sc
EndChar
StartChar: w
Encoding: 119 119 694
Width: 758
GlyphClass: 2
Flags: MW
HStem: 0 135<223 223 223 316 110 223> 374 159<379 379> 513 20G<0 179 179 179 300 469 469 469 588 759 759 759>
VStem: 0 759<533 533>
AnchorPoint: "Anchor-14" 0 0 basechar 0
AnchorPoint: "Anchor-13" 0 0 basechar 0
AnchorPoint: "Anchor-12" 379 533 basechar 0
AnchorPoint: "Anchor-11" 0 0 basechar 0
AnchorPoint: "Anchor-10" 380 0 basechar 0
LayerCount: 2
Back
Fore
SplineSet
759 533 m 1xb0
 651 0 l 1
 443 0 l 1
 379 374 l 1xd0
 316 0 l 1
 110 0 l 1
 0 533 l 1
 179 533 l 1
 223 135 l 1
 300 533 l 1
 469 533 l 1
 533 135 l 1
 588 533 l 1
 759 533 l 1xb0
EndSplineSet
Substitution2: "'smcp' Lowercase to Small Capitals lookup 27 subtable" w.sc
Substitution2: "'aalt' Access All Alternates lookup 0 subtable" w.sc
EndChar
StartChar: x
Encoding: 120 120 702
Width: 520
GlyphClass: 2
Flags: MW
HStem: 0 21G<-15 177 -15 -15 335 535 335 335> 513 20G<0 198 198 198 320 508 508 508>
VStem: -15 550<0 0>
AnchorPoint: "Anchor-14" 0 0 basechar 0
AnchorPoint: "Anchor-13" 0 0 basechar 0
AnchorPoint: "Anchor-12" 260 533 basechar 0
AnchorPoint: "Anchor-11" 0 0 basechar 0
AnchorPoint: "Anchor-10" 256 0 basechar 0
LayerCount: 2
Back
Fore
SplineSet
367 285 m 1
 535 0 l 1
 335 0 l 1
 254 191 l 1
 177 0 l 1
 -15 0 l 1
 152 280 l 1
 0 533 l 1
 198 533 l 1
 261 369 l 1
 320 533 l 1
 508 533 l 1
 367 285 l 1
EndSplineSet
Substitution2: "'smcp' Lowercase to Small Capitals lookup 27 subtable" x.sc
Substitution2: "'sups' Superscript lookup 14 subtable" uni02E3
AlternateSubs2: "'aalt' Access All Alternates lookup 1 subtable" uni02E3 x.sc
EndChar

StartChar: y
Encoding: 121 121 257
Width: 526
GlyphClass: 2
Flags: MW
HStem: -225 21G<55 55> 0 21G<146 207 146 146 370 370> 513 20G<-10 179 179 179 353 536 536 536>
VStem: -10 546<533 533>
AnchorPoint: "Anchor-11" 0 0 basechar 0
AnchorPoint: "Anchor-10" 0 0 basechar 0
AnchorPoint: "Anchor-9" 263 533 basechar 0
AnchorPoint: "Anchor-8" 0 0 basechar 0
LayerCount: 2
Fore
SplineSet
370 0 m 2
 327 -141 227 -218 55 -225 c 1
 36 -102 l 1
 139 -91 179 -64 207 0 c 1
 146 0 l 1
 -10 533 l 1
 179 533 l 1
 260 111 l 1
 353 533 l 1
 536 533 l 1
 370 0 l 2
EndSplineSet
Substitution2: "'smcp' Lowercase to Small Capitals lookup 24 subtable" y.sc
Substitution2: "'aalt' Access All Alternates lookup 0 subtable" y.sc
EndChar

StartChar: z
Encoding: 122 122 262
Width: 465
GlyphClass: 2
Flags: MW
HStem: 0 133<216 436> 401 132<29 241 29 445>
VStem: 9 443<0 133 125 133>
AnchorPoint: "Anchor-11" 0 0 basechar 0
AnchorPoint: "Anchor-10" 0 0 basechar 0
AnchorPoint: "Anchor-9" 237 533 basechar 0
AnchorPoint: "Anchor-8" 0 0 basechar 0
LayerCount: 2
Fore
SplineSet
445 408 m 1
 216 133 l 1
 452 133 l 1
 436 0 l 1
 9 0 l 1
 9 125 l 1
 241 401 l 1
 29 401 l 1
 29 533 l 1
 445 533 l 1
 445 408 l 1
EndSplineSet
Substitution2: "'smcp' Lowercase to Small Capitals lookup 24 subtable" z.sc
Substitution2: "'aalt' Access All Alternates lookup 0 subtable" z.sc
EndChar

StartChar: braceleft
Encoding: 123 123 1003
Width: 324
Flags: MW
HStem: -141 122<275.5 304 275.5 304> 277 146<5 30.5> 719 122<275.5 304>
VStem: 68 166<506 662>
LayerCount: 2
Fore
SplineSet
304 719 m 1
 247 719 234 703 234 662 c 2
 234 492 l 2
 234 398 193 366 122 349 c 1
 191 335 235 300 235 208 c 2
 235 38 l 2
 235 -3 247 -19 304 -19 c 1
 304 -141 l 1
 110 -141 68 -81 68 28 c 2
 68 194 l 2
 68 253 56 277 5 277 c 1
 5 423 l 1
 56 423 68 447 68 506 c 2
 68 672 l 2
 68 781 110 841 304 841 c 1
 304 719 l 1
EndSplineSet
Substitution2: "'case' Case-Sensitive Forms lookup 25 subtable" braceleft.case
Substitution2: "'aalt' Access All Alternates lookup 0 subtable" braceleft.case
EndChar

StartChar: bar
Encoding: 124 124 1216
Width: 368
Flags: MW
HStem: -106 917<101 267 101 267>
VStem: 101 166<-106 811>
LayerCount: 2
Fore
SplineSet
267 -106 m 1
 101 -106 l 1
 101 811 l 1
 267 811 l 1
 267 -106 l 1
EndSplineSet
EndChar
StartChar: braceright
Encoding: 125 125 2141
Width: 324
Flags: MW
HStem: -141 122<21 49 21 117.5> 277 146<294 320> 719 122<21 49.5>
VStem: 91 165<492 506 506 662 662 672>
LayerCount: 2
Back
Fore
SplineSet
21 841 m 1
 214 841 256 781 256 672 c 2
 256 506 l 2
 256 447 268 423 320 423 c 1
 320 277 l 1
 268 277 256 253 256 194 c 2
 256 28 l 2
 256 -81 214 -141 21 -141 c 1
 21 -19 l 1
 77 -19 90 -3 90 38 c 2
 90 208 l 2
 90 300 133 335 203 349 c 1
 131 366 91 398 91 492 c 2
 91 662 l 2
 91 703 78 719 21 719 c 1
 21 841 l 1
EndSplineSet
Substitution2: "'case' Case-Sensitive Forms lookup 28 subtable" braceright.case
Substitution2: "'aalt' Access All Alternates lookup 0 subtable" braceright.case
EndChar

StartChar: asciitilde
Encoding: 126 126 1087
Width: 522
Flags: MW
HStem: 226 132<325.5 369 325.5 387.5> 287 131<153.5 197>
VStem: 11 500<282 361>
LayerCount: 2
Fore
SplineSet
178 418 m 0x60
 272 418 300 358 351 358 c 0
 387 358 400 382 416 412 c 1
 511 361 l 1
 478 294 431 226 344 226 c 0xa0
 250 226 222 287 172 287 c 0
 135 287 122 262 106 232 c 1
 11 282 l 1
 44 350 91 418 178 418 c 0x60
EndSplineSet
Substitution2: "'onum' Oldstyle Figures lookup 22 subtable" asciitilde.osf
Substitution2: "'tnum' Tabular Numbers lookup 21 subtable" asciitilde.tf
AlternateSubs2: "'aalt' Access All Alternates lookup 1 subtable" asciitilde.tf asciitilde.osf
EndChar
StartChar: exclamdown
Encoding: 161 161 2123
Width: 240
Flags: MW
HStem: -206 21G<26 214 26 26> 320 194<93 147>
VStem: 23 194<390.5 443.5> 37.5 165
LayerCount: 2
Back
Fore
SplineSet
120 514 m 0xe0
 174 514 217 470 217 417 c 0
 217 364 174 320 120 320 c 0
 66 320 23 364 23 417 c 0
 23 470 66 514 120 514 c 0xe0
191 232 m 1xd0
 214 -206 l 1
 26 -206 l 1
 49 232 l 1
 191 232 l 1xd0
EndSplineSet
Substitution2: "'case' Case-Sensitive Forms lookup 28 subtable" exclamdown.case
Substitution2: "'aalt' Access All Alternates lookup 0 subtable" exclamdown.case
EndChar
StartChar: cent
Encoding: 162 162 2198
Width: 479
GlyphClass: 2
Flags: MW
HStem: -14 21G<351 351> -11 21G<226 226> 524 20G<227 227> 526 20G<351 351>
VStem: 25 185<206.5 319.5 206.5 334.5> 226 125<-163 -14 -163 -11 -163 -11>
LayerCount: 2
Back
Fore
SplineSet
404 155 m 1x54
 481 46 l 1
 445 16 402 -5 351 -14 c 1x94
 351 -163 l 1
 226 -163 l 1
 226 -11 l 1x54
 99 16 25 120 25 262 c 0x6c
 25 407 102 516 227 544 c 1x64
 227 694 l 1
 351 694 l 1
 351 546 l 1x54
 402 537 444 516 481 483 c 1
 406 379 l 1
 374 405 343 416 309 416 c 0
 246 416 210 376 210 263 c 0
 210 150 250 120 307 120 c 0x5c
 342 120 367 132 404 155 c 1x54
EndSplineSet
Substitution2: "'onum' Oldstyle Figures lookup 25 subtable" cent.osf
Substitution2: "'tnum' Tabular Numbers lookup 24 subtable" cent.tf
AlternateSubs2: "'aalt' Access All Alternates lookup 1 subtable" cent.tf cent.osf
EndChar

StartChar: yen
Encoding: 165 165 1066
Width: 578
Flags: MW
HStem: 0 200<71 378 71 202> 111 89<71 202 71 202 378 510> 265 89<71 163 71 202 71 163 416 510>
VStem: 202 176<0 111 0 111 200 265 0 265>
LayerCount: 2
Fore
SplineSet
416 354 m 1xb0
 510 354 l 1
 510 265 l 1
 378 265 l 1
 378 200 l 1
 510 200 l 1xb0
 510 111 l 1
 378 111 l 1x70
 378 0 l 1
 202 0 l 1xb0
 202 111 l 1
 71 111 l 1x70
 71 200 l 1
 202 200 l 1
 202 265 l 1
 71 265 l 1
 71 354 l 1
 163 354 l 1
 -11 678 l 1
 177 678 l 1
 293 401 l 1
 406 678 l 1
 589 678 l 1
 416 354 l 1xb0
EndSplineSet
Substitution2: "'onum' Oldstyle Figures lookup 22 subtable" yen.osf
Substitution2: "'tnum' Tabular Numbers lookup 21 subtable" yen.tf
AlternateSubs2: "'aalt' Access All Alternates lookup 1 subtable" yen.tf yen.osf
EndChar
StartChar: brokenbar
Encoding: 166 166 2371
Width: 368
GlyphClass: 2
Flags: MW
HStem: -106 917<101 267 101 267>
VStem: 101 166<-106 262 -106 262 443 811>
LayerCount: 2
Back
Fore
SplineSet
267 811 m 1
 267 443 l 1
 101 443 l 1
 101 811 l 1
 267 811 l 1
267 262 m 1
 267 -106 l 1
 101 -106 l 1
 101 262 l 1
 267 262 l 1
EndSplineSet
EndChar

StartChar: section
Encoding: 167 167 1223
Width: 555
Flags: MW
HStem: -87 120<220.5 267 220.5 324.5> 572 120<285 329>
VStem: 47 153<305 322> 73 168<519.5 545.5 519.5 575> 316 168<59.5 84.5> 355 153<281 301>
LayerCount: 2
Fore
SplineSet
428 184 m 1xd8
 468 157 484 126 484 76 c 0
 484 -20 395 -87 254 -87 c 0
 173 -87 106 -65 55 -32 c 1
 111 76 l 1
 155 49 198 33 243 33 c 0
 291 33 316 48 316 71 c 0
 316 98 305 111 198 144 c 1
 107 171 47 208 47 294 c 0xe8
 47 350 84 391 127 418 c 1
 88 447 73 482 73 528 c 0
 73 622 158 692 296 692 c 0
 370 692 442 671 496 636 c 1
 437 535 l 1
 394 561 350 572 308 572 c 0
 262 572 241 557 241 534 c 0
 241 505 254 494 356 464 c 1
 447 436 508 398 508 310 c 0xd4
 508 252 473 211 428 184 c 1xd8
273 254 m 1xe4
 334 230 l 1
 347 249 355 271 355 286 c 0
 355 316 336 334 260 358 c 0
 244 363 230 368 217 373 c 1
 205 354 200 335 200 320 c 0
 200 290 215 275 273 254 c 1xe4
EndSplineSet
Substitution2: "'onum' Oldstyle Figures lookup 22 subtable" section.osf
Substitution2: "'tnum' Tabular Numbers lookup 21 subtable" section.tf
AlternateSubs2: "'aalt' Access All Alternates lookup 1 subtable" section.tf section.osf
EndChar
StartChar: dieresis
Encoding: 168 168 2529
Width: 474
Flags: MW
HStem: 637 172<94 143 332 381>
VStem: 30 176<699 747> 268 176<699 747>
LayerCount: 2
Back
Fore
SplineSet
118 809 m 0
 168 809 206 771 206 723 c 0
 206 675 168 637 118 637 c 0
 70 637 30 675 30 723 c 0
 30 771 70 809 118 809 c 0
356 809 m 0
 406 809 444 771 444 723 c 0
 444 675 406 637 356 637 c 0
 308 637 268 675 268 723 c 0
 268 771 308 809 356 809 c 0
EndSplineSet
Substitution2: "Single Substitution lookup 41 subtable" dieresis.case
Substitution2: "'case' Case-Sensitive Forms lookup 28 subtable" dieresis.case
Substitution2: "'smcp' Lowercase to Small Capitals lookup 27 subtable" dieresis.sc
Substitution2: "'c2sc' Capitals to Small Capitals lookup 26 subtable" dieresis.sc
AlternateSubs2: "'aalt' Access All Alternates lookup 1 subtable" dieresis.sc dieresis.case
EndChar

StartChar: copyright
Encoding: 169 169 1221
Width: 810
Flags: MW
HStem: 93 87<335.5 476 335.5 502> 233 95<399 434.5 399 435.5> 537 94<402.5 433 355 434> 558 20G<543 543> 684 88<335.5 476>
VStem: 60 101<361.5 502.5 361.5 527> 227 125<394.5 471 394.5 494> 650 100<361.5 502.5>
LayerCount: 2
Fore
SplineSet
406 772 m 0x9f
 598 772 750 622 750 432 c 0
 750 242 598 93 406 93 c 0
 214 93 60 242 60 432 c 0
 60 622 214 772 406 772 c 0x9f
406 684 m 0
 265 684 161 573 161 432 c 0
 161 291 265 180 406 180 c 0
 546 180 650 291 650 432 c 0
 650 573 546 684 406 684 c 0
408 631 m 0xef
 458 631 507 612 543 578 c 1x9f
 490 512 l 1
 465 532 446 537 422 537 c 0
 383 537 352 509 352 433 c 0
 352 356 379 328 419 328 c 0
 450 328 474 338 499 358 c 1
 547 288 l 1
 511 254 462 233 409 233 c 0
 298 233 227 304 227 433 c 0
 227 555 302 631 408 631 c 0xef
EndSplineSet
EndChar
StartChar: ordfeminine
Encoding: 170 170 1050
Width: 500
GlyphClass: 2
Flags: MW
HStem: 0 136<46 464 46 464> 262 111<139.5 243.5> 447 82<248 263 263 278> 584 111<216 240>
VStem: 41 159<394.5 418.5 394.5 435.5> 278 154<398 412 412 447 447 447 529 536 536 545 398 555.5>
LayerCount: 2
Back
Fore
SplineSet
248 529 m 2
 278 529 l 1
 278 536 l 2
 278 575 264 584 216 584 c 0
 192 584 149 576 106 563 c 1
 71 663 l 1
 125 683 192 695 240 695 c 0
 376 695 432 646 432 545 c 2
 432 412 l 2
 432 384 438 372 458 366 c 1
 426 266 l 1
 374 268 338 283 311 319 c 1
 280 278 232 262 182 262 c 0
 97 262 41 316 41 391 c 0
 41 480 114 529 248 529 c 2
200 404 m 0
 200 385 211 373 235 373 c 0
 252 373 268 381 278 391 c 1
 278 447 l 1
 263 447 l 2
 220 447 200 433 200 404 c 0
46 136 m 1
 464 136 l 1
 464 0 l 1
 46 0 l 1
 46 136 l 1
EndSplineSet
EndChar

StartChar: guillemotleft
Encoding: 171 171 1034
Width: 644
Flags: MW
HStem: 5 558<224 224 224 503>
VStem: 31 582<78 339 78 339>
LayerCount: 2
Fore
SplineSet
334 490 m 1
 208 284 l 1
 334 78 l 1
 224 5 l 1
 31 228 l 1
 31 339 l 1
 224 563 l 1
 334 490 l 1
613 490 m 1
 486 284 l 1
 613 78 l 1
 503 5 l 1
 309 228 l 1
 309 339 l 1
 503 563 l 1
 613 490 l 1
EndSplineSet
Substitution2: "'case' Case-Sensitive Forms lookup 25 subtable" guillemotleft.case
Substitution2: "'aalt' Access All Alternates lookup 0 subtable" guillemotleft.case
EndChar
StartChar: logicalnot
Encoding: 172 172 2261
Width: 541
GlyphClass: 2
Flags: MW
HStem: 262 136<44 351 44 496>
VStem: 351 145<105 262 262 262>
LayerCount: 2
Back
Fore
SplineSet
496 398 m 1
 496 105 l 1
 351 105 l 1
 351 262 l 1
 44 262 l 1
 44 398 l 1
 496 398 l 1
EndSplineSet
Substitution2: "'onum' Oldstyle Figures lookup 25 subtable" logicalnot.osf
Substitution2: "'tnum' Tabular Numbers lookup 24 subtable" logicalnot.tf
AlternateSubs2: "'aalt' Access All Alternates lookup 1 subtable" logicalnot.tf logicalnot.osf
EndChar

StartChar: softhyphen
Encoding: 173 173 1026
Width: 409
Flags: MW
HStem: 245 136<40 369 40 369>
VStem: 40 329<245 381 245 381>
LayerCount: 2
Fore
SplineSet
40 381 m 1
 369 381 l 1
 369 245 l 1
 40 245 l 1
 40 381 l 1
EndSplineSet
Substitution2: "'case' Case-Sensitive Forms lookup 25 subtable" softhyphen.case
Substitution2: "'aalt' Access All Alternates lookup 0 subtable" softhyphen.case
EndChar
StartChar: uni00AD
Encoding: 173 173 2168
Width: 409
Flags: MW
HStem: 245 136<40 369 40 369>
VStem: 40 329<245 381 245 381>
LayerCount: 2
Back
Fore
SplineSet
40 245 m 1
 40 381 l 1
 369 381 l 1
 369 245 l 1
 40 245 l 1
EndSplineSet
Substitution2: "'case' Case-Sensitive Forms lookup 28 subtable" uni00AD.case
Substitution2: "'aalt' Access All Alternates lookup 0 subtable" uni00AD.case
EndChar

StartChar: registered
Encoding: 174 174 1222
Width: 636
Flags: MW
HStem: 204 72<261.5 376.5 261.5 399.5> 451 62<287 308 287 316> 577 56<287 297 297 315 287 287> 689 72<261.5 376.5>
VStem: 37 85<422.5 541 422.5 561.5> 211 76<349 451 513 577> 356 78<535 557.5> 514 85<422.5 541>
LayerCount: 2
Fore
SplineSet
319 761 m 0
 480 761 599 641 599 482 c 0
 599 323 480 204 319 204 c 0
 158 204 37 323 37 482 c 0
 37 641 158 761 319 761 c 0
319 276 m 0
 434 276 514 363 514 482 c 0
 514 600 434 689 319 689 c 0
 204 689 122 600 122 482 c 0
 122 363 204 276 319 276 c 0
434 545 m 0
 434 508 411 481 378 467 c 1
 451 349 l 1
 364 349 l 1
 308 451 l 1
 287 451 l 1
 287 349 l 1
 211 349 l 1
 211 633 l 1
 297 633 l 2
 387 633 434 605 434 545 c 0
287 513 m 1
 316 513 l 2
 338 513 356 523 356 547 c 0
 356 568 340 577 315 577 c 2
 287 577 l 1
 287 513 l 1
EndSplineSet
EndChar
StartChar: macron
Encoding: 175 175 2535
Width: 375
Flags: MW
HStem: 652 121<30 345 30 345>
VStem: 30 315<652 773 652 773>
LayerCount: 2
Back
Fore
SplineSet
345 652 m 1
 30 652 l 1
 30 773 l 1
 345 773 l 1
 345 652 l 1
EndSplineSet
Substitution2: "Single Substitution lookup 41 subtable" macron.case
Substitution2: "'case' Case-Sensitive Forms lookup 28 subtable" macron.case
Substitution2: "'smcp' Lowercase to Small Capitals lookup 27 subtable" macron.sc
Substitution2: "'c2sc' Capitals to Small Capitals lookup 26 subtable" macron.sc
AlternateSubs2: "'aalt' Access All Alternates lookup 1 subtable" macron.sc macron.case
EndChar
StartChar: degree
Encoding: 176 176 2379
Width: 520
GlyphClass: 2
Flags: MW
HStem: 366 101<196.5 238 196.5 262> 614 99<196.5 238>
VStem: 35 118<519.5 562.5 519.5 595.5> 282 118<519.5 562>
LayerCount: 2
Back
Fore
SplineSet
217 366 m 0
 128 366 35 432 35 541 c 0
 35 650 128 713 217 713 c 0
 307 713 400 649 400 541 c 0
 400 432 307 366 217 366 c 0
217 467 m 0
 259 467 282 498 282 541 c 0
 282 583 259 614 217 614 c 0
 176 614 153 584 153 541 c 0
 153 498 176 467 217 467 c 0
EndSplineSet
Substitution2: "'onum' Oldstyle Figures lookup 25 subtable" degree.osf
Substitution2: "'tnum' Tabular Numbers lookup 24 subtable" degree.tf
AlternateSubs2: "'aalt' Access All Alternates lookup 1 subtable" degree.tf degree.osf
EndChar

StartChar: plusminus
Encoding: 177 177 1115
Width: 541
Flags: MW
HStem: 0 136<44 480 44 480> 352 136<44 197 44 197 343 496>
VStem: 197 146<194 352 194 352 488 646>
LayerCount: 2
Fore
SplineSet
343 488 m 1
 496 488 l 1
 496 352 l 1
 343 352 l 1
 343 194 l 1
 197 194 l 1
 197 352 l 1
 44 352 l 1
 44 488 l 1
 197 488 l 1
 197 646 l 1
 343 646 l 1
 343 488 l 1
44 136 m 1
 480 136 l 1
 480 0 l 1
 44 0 l 1
 44 136 l 1
EndSplineSet
Substitution2: "'onum' Oldstyle Figures lookup 22 subtable" plusminus.osf
Substitution2: "'tnum' Tabular Numbers lookup 21 subtable" plusminus.tf
AlternateSubs2: "'aalt' Access All Alternates lookup 1 subtable" plusminus.tf plusminus.osf
EndChar

StartChar: twosuperior
Encoding: 178 178 970
Width: 400
Flags: MW
HStem: 320 98<195 355> 657 96<164.5 193.5>
VStem: 225 134<597 627.5>
LayerCount: 2
Fore
SplineSet
194 753 m 0
 305 753 359 691 359 626 c 0
 359 568 332 524 195 418 c 1
 368 418 l 1
 355 320 l 1
 49 320 l 1
 49 410 l 1
 193 537 225 573 225 614 c 0
 225 641 208 657 179 657 c 0
 150 657 128 644 104 615 c 1
 31 673 l 1
 66 719 121 753 194 753 c 0
EndSplineSet
EndChar
StartChar: uni00B3
Encoding: 179 179 2105
Width: 400
Flags: MW
HStem: 307 98<165.5 197.5 165.5 252.5> 497 87<151 176 137 179> 523 20G 658 95<166.5 197>
VStem: 231 127<621.5 634> 238 135<433.5 465.5>
LayerCount: 2
Back
Fore
SplineSet
199 753 m 0xd8
 303 753 358 707 358 646 c 0xd8
 358 597 329 559 263 543 c 1xb4
 327 538 373 507 373 437 c 0
 373 370 313 307 192 307 c 0
 115 307 62 335 27 377 c 1
 98 445 l 1
 124 416 149 405 182 405 c 0
 213 405 238 418 238 449 c 0
 238 482 218 497 176 497 c 2xd4
 137 497 l 1
 151 584 l 1
 179 584 l 2
 215 584 231 598 231 622 c 0
 231 646 212 658 182 658 c 0
 151 658 123 645 99 624 c 1
 35 690 l 1
 78 731 133 753 199 753 c 0xd8
EndSplineSet
EndChar

StartChar: acute
Encoding: 180 180 1250
Width: 352
Flags: MW
HStem: 618 228<78 254>
VStem: 30 292<707 714>
LayerCount: 2
Fore
SplineSet
322 714 m 1
 78 618 l 1
 30 707 l 1
 254 846 l 1
 322 714 l 1
EndSplineSet
Substitution2: "'case' Case-Sensitive Forms lookup 25 subtable" acute.case
Substitution2: "'smcp' Lowercase to Small Capitals lookup 24 subtable" acute.sc
Substitution2: "'c2sc' Capitals to Small Capitals lookup 23 subtable" acute.sc
Substitution2: "'locl' Localized Forms in Latin lookup 7 subtable" acute.loclPLK
AlternateSubs2: "'aalt' Access All Alternates lookup 1 subtable" acute.loclPLK acute.sc acute.case
EndChar

StartChar: paragraph
Encoding: 182 182 1220
Width: 804
Flags: MW
HStem: -226 21G<301 301 541 541> -206 21G<456 456 696 696> 573 122
VStem: 301 155<-206 258 258 258> 541 155<-206 573 573 573>
LayerCount: 2
Fore
SplineSet
696 695 m 1x78
 696 -206 l 1x78
 541 -226 l 1xb8
 541 573 l 1
 456 573 l 1
 456 -206 l 1x78
 301 -226 l 1xb8
 301 258 l 1
 141 261 58 349 58 475 c 0
 58 611 155 700 334 694 c 1
 696 695 l 1x78
EndSplineSet
EndChar
StartChar: cedilla
Encoding: 184 184 2527
Width: 335
Flags: MW
HStem: -269 94<124 147 121 198> -116 132<103 118.5>
VStem: 179 126<-157.5 -136>
LayerCount: 2
Back
Fore
SplineSet
198 16 m 1
 198 -45 l 1
 270 -54 305 -91 305 -149 c 0
 305 -218 247 -269 149 -269 c 0
 99 -269 56 -254 30 -236 c 1
 70 -157 l 1
 89 -168 109 -175 133 -175 c 0
 161 -175 179 -168 179 -147 c 0
 179 -125 151 -116 86 -116 c 1
 103 16 l 1
 198 16 l 1
EndSplineSet
Substitution2: "Single Substitution lookup 41 subtable" cedilla.case
Substitution2: "'case' Case-Sensitive Forms lookup 28 subtable" cedilla.case
Substitution2: "'smcp' Lowercase to Small Capitals lookup 27 subtable" cedilla.sc
Substitution2: "'c2sc' Capitals to Small Capitals lookup 26 subtable" cedilla.sc
AlternateSubs2: "'aalt' Access All Alternates lookup 1 subtable" cedilla.sc cedilla.case
EndChar

StartChar: onesuperior
Encoding: 185 185 969
Width: 400
Flags: MW
HStem: 723 20G<190 307 307 307>
VStem: 179 128<320 622 622 622>
LayerCount: 2
Fore
SplineSet
307 320 m 1
 179 320 l 1
 179 622 l 1
 89 566 l 1
 32 652 l 1
 190 743 l 1
 307 743 l 1
 307 320 l 1
EndSplineSet
EndChar
StartChar: uni00B9
Encoding: 185 185 2103
Width: 400
Flags: MW
HStem: 723 20G<190 307 307 307>
VStem: 179 128<320 622 622 622>
LayerCount: 2
Back
Fore
SplineSet
307 743 m 1
 307 320 l 1
 179 320 l 1
 179 622 l 1
 89 566 l 1
 32 652 l 1
 190 743 l 1
 307 743 l 1
EndSplineSet
EndChar

StartChar: ordmasculine
Encoding: 186 186 416
Width: 500
GlyphClass: 2
Flags: MW
HStem: 0 136<32 468 32 468> 262 112<230.5 271 230.5 319> 583 112<230 270.5>
VStem: 31 161<441 515.5 441 545> 308 162<441.5 516>
LayerCount: 2
Fore
SplineSet
250 695 m 0
 385 695 470 619 470 478 c 0
 470 346 387 262 251 262 c 0
 116 262 31 338 31 479 c 0
 31 611 115 695 250 695 c 0
250 583 m 0
 210 583 192 552 192 479 c 0
 192 403 210 374 251 374 c 0
 291 374 308 405 308 478 c 0
 308 554 291 583 250 583 c 0
32 136 m 1
 468 136 l 1
 468 0 l 1
 32 0 l 1
 32 136 l 1
EndSplineSet
EndChar
StartChar: guillemotright
Encoding: 187 187 2176
Width: 643
Flags: MW
HStem: 5 558<141 141 141 419>
VStem: 31 581<78 339 228 490>
LayerCount: 2
Back
Fore
SplineSet
419 563 m 1
 612 339 l 1
 612 228 l 1
 419 5 l 1
 309 78 l 1
 435 284 l 1
 309 490 l 1
 419 563 l 1
141 563 m 1
 334 339 l 1
 334 228 l 1
 141 5 l 1
 31 78 l 1
 158 284 l 1
 31 490 l 1
 141 563 l 1
EndSplineSet
Substitution2: "'case' Case-Sensitive Forms lookup 28 subtable" guillemotright.case
Substitution2: "'aalt' Access All Alternates lookup 0 subtable" guillemotright.case
EndChar
StartChar: onequarter
Encoding: 188 188 2060
Width: 980
Flags: MW
HStem: 0 175<793 794 732 915 793 793> 81 94<732 793 915 960> 675 20G<190 307 307 307> 691 20G<747 747> 741 20G<646 646>
VStem: 179 128<272 574 574 574> 793 122<0 81 0 81>
LayerCount: 2
Back
Fore
SplineSet
646 761 m 1x9e
 747 711 l 1
 334 -88 l 1
 233 -38 l 1
 646 761 l 1x9e
307 272 m 1
 179 272 l 1
 179 574 l 1
 89 518 l 1
 32 604 l 1
 190 695 l 1
 307 695 l 1xae
 307 272 l 1
960 175 m 1
 960 81 l 1
 915 81 l 1x5e
 915 0 l 1
 793 0 l 1x9e
 793 81 l 1
 599 81 l 1
 599 166 l 1x5e
 718 433 l 1
 827 393 l 1
 732 175 l 1
 794 175 l 1
 819 266 l 1
 915 266 l 1
 915 175 l 1
 960 175 l 1
EndSplineSet
EndChar

StartChar: onehalf
Encoding: 189 189 923
Width: 980
Flags: MW
HStem: 0 98<775 935> 337 96<744.5 773.5> 675 20G<190 307 307 307> 691 20G<747 747> 741 20G<646 646>
VStem: 179 128<272 574 574 574> 805 134<277 307.5>
LayerCount: 2
Fore
SplineSet
747 711 m 1xdc
 334 -88 l 1
 233 -38 l 1
 646 761 l 1
 747 711 l 1xdc
307 272 m 1
 179 272 l 1
 179 574 l 1
 89 518 l 1
 32 604 l 1
 190 695 l 1
 307 695 l 1xee
 307 272 l 1
774 433 m 0
 885 433 939 371 939 306 c 0
 939 248 912 204 775 98 c 1
 948 98 l 1
 935 0 l 1
 629 0 l 1
 629 90 l 1
 773 217 805 253 805 294 c 0
 805 321 788 337 759 337 c 0
 730 337 708 324 684 295 c 1
 611 353 l 1
 646 399 701 433 774 433 c 0
EndSplineSet
EndChar
StartChar: threequarters
Encoding: 190 190 2061
Width: 980
Flags: MW
HStem: 0 175<793 794 732 915 793 793> 81 94<732 793 915 960> 259 98<165.5 197.5 165.5 252.5> 449 46 449 87<151 176 137 179> 610 95<166.5 197> 691 20G<747 747> 741 20G<646 646>
VStem: 231 127<573.5 586> 238 135<385.5 417.5> 793 122<0 81 0 81>
LayerCount: 2
Back
Fore
SplineSet
646 761 m 1xad60
 747 711 l 1xb360
 334 -88 l 1
 233 -38 l 1
 646 761 l 1xad60
373 389 m 0
 373 322 313 259 192 259 c 0
 115 259 62 287 27 329 c 1
 98 397 l 1
 124 368 149 357 182 357 c 0
 213 357 238 370 238 401 c 0
 238 434 218 449 176 449 c 2xad60
 137 449 l 1
 151 536 l 1
 179 536 l 2
 215 536 231 550 231 574 c 0
 231 598 212 610 182 610 c 0
 151 610 123 597 99 576 c 1
 35 642 l 1
 78 683 133 705 199 705 c 0
 303 705 358 659 358 598 c 0xada0
 358 549 329 511 263 495 c 1
 327 490 373 459 373 389 c 0
960 175 m 1xad60
 960 81 l 1
 915 81 l 1x6d60
 915 0 l 1
 793 0 l 1xad60
 793 81 l 1
 599 81 l 1
 599 166 l 1x6d60
 718 433 l 1
 827 393 l 1
 732 175 l 1
 794 175 l 1
 819 266 l 1
 915 266 l 1
 915 175 l 1
 960 175 l 1xad60
EndSplineSet
EndChar

StartChar: questiondown
Encoding: 191 191 990
Width: 488
Flags: MW
HStem: -225 140<237 275 237 291.5> 320 194<241 294.5>
VStem: 10 186<-53 -1 -53 27.5> 171 193<390.5 443.5> 189 160<206 232 113.5 232>
LayerCount: 2
Fore
SplineSet
268 320 m 0xd0
 214 320 171 364 171 417 c 0
 171 470 214 514 268 514 c 0
 321 514 364 470 364 417 c 0
 364 364 321 320 268 320 c 0xd0
237 -225 m 0xe0
 85 -225 10 -145 10 -54 c 0
 10 109 189 100 189 206 c 2
 189 232 l 1
 349 232 l 1
 349 200 l 2xc8
 349 27 196 36 196 -38 c 0
 196 -68 218 -85 256 -85 c 0
 294 -85 332 -66 367 -28 c 1
 478 -115 l 1
 422 -181 346 -225 237 -225 c 0xe0
EndSplineSet
Substitution2: "'case' Case-Sensitive Forms lookup 25 subtable" questiondown.case
Substitution2: "'aalt' Access All Alternates lookup 0 subtable" questiondown.case
EndChar
StartChar: Agrave
Encoding: 192 192 23
Width: 596
GlyphClass: 2
Flags: MW
HStem: 0 21G<-19 173 -19 -19 419 615 419 419> 142 132<233 359 233 388 204 359> 563 132<296 296> 675 20G<187 409 409 409>
VStem: -19 634<0 0>
AnchorPoint: "Anchor-14" 0 0 basechar 0
AnchorPoint: "Anchor-13" 0 0 basechar 0
AnchorPoint: "Anchor-12" 300 970 basechar 0
AnchorPoint: "Anchor-11" 528 0 basechar 0
AnchorPoint: "Anchor-10" 298 0 basechar 0
LayerCount: 2
Back
Fore
SplineSet
443 840 m 1xd8
 398 750 l 1
 151 839 l 1
 218 970 l 1
 443 840 l 1xd8
419 0 m 1
 388 142 l 1
 204 142 l 1
 173 0 l 1
 -19 0 l 1
 187 695 l 1
 409 695 l 1
 615 0 l 1
 419 0 l 1
233 274 m 1
 359 274 l 1
 296 563 l 1xe8
 233 274 l 1
EndSplineSet
Substitution2: "'c2sc' Capitals to Small Capitals lookup 26 subtable" agrave.sc
Substitution2: "'aalt' Access All Alternates lookup 0 subtable" agrave.sc
Position2: "'cpsp' Capital Spacing lookup 0 subtable" dx=5 dy=0 dh=10 dv=0
EndChar
StartChar: Aacute
Encoding: 193 193 3
Width: 596
GlyphClass: 2
Flags: MW
HStem: 0 21G<-19 173 -19 -19 419 615 419 419> 142 132<233 359 233 388 204 359> 563 132<296 296> 675 20G<187 409 409 409>
VStem: -19 634<0 0>
AnchorPoint: "Anchor-14" 0 0 basechar 0
AnchorPoint: "Anchor-13" 0 0 basechar 0
AnchorPoint: "Anchor-12" 300 970 basechar 0
AnchorPoint: "Anchor-11" 528 0 basechar 0
AnchorPoint: "Anchor-10" 298 0 basechar 0
LayerCount: 2
Back
Fore
SplineSet
444 839 m 1xd8
 197 750 l 1
 152 840 l 1
 377 970 l 1
 444 839 l 1xd8
419 0 m 1
 388 142 l 1
 204 142 l 1
 173 0 l 1
 -19 0 l 1
 187 695 l 1
 409 695 l 1
 615 0 l 1
 419 0 l 1
233 274 m 1
 359 274 l 1
 296 563 l 1xe8
 233 274 l 1
EndSplineSet
Substitution2: "'c2sc' Capitals to Small Capitals lookup 26 subtable" aacute.sc
Substitution2: "'aalt' Access All Alternates lookup 0 subtable" aacute.sc
Position2: "'cpsp' Capital Spacing lookup 0 subtable" dx=5 dy=0 dh=10 dv=0
EndChar

StartChar: Acircumflex
Encoding: 194 194 4
Width: 596
GlyphClass: 2
Flags: MW
HStem: 0 21G<-19 173 -19 -19 419 419 419 615> 142 132<233 359 233 388 204 359> 563 132<296 296> 675 20G<187 409 409 409>
VStem: -19 634<0 0>
AnchorPoint: "Anchor-11" 0 0 basechar 0
AnchorPoint: "Anchor-10" 148 695 basechar 0
AnchorPoint: "Anchor-9" 298 695 basechar 0
AnchorPoint: "Anchor-8" 528 0 basechar 0
LayerCount: 2
Fore
SplineSet
164 753 m 1xd8
 102 824 l 1
 245 959 l 1
 353 959 l 1
 496 824 l 1
 434 753 l 1
 299 838 l 1
 164 753 l 1xd8
388 142 m 1
 204 142 l 1
 173 0 l 1
 -19 0 l 1
 187 695 l 1
 409 695 l 1
 615 0 l 1
 419 0 l 1
 388 142 l 1
359 274 m 1
 296 563 l 1xe8
 233 274 l 1
 359 274 l 1
EndSplineSet
Substitution2: "'c2sc' Capitals to Small Capitals lookup 23 subtable" acircumflex.sc
Substitution2: "'aalt' Access All Alternates lookup 0 subtable" acircumflex.sc
Position2: "'cpsp' Capital Spacing lookup 0 subtable" dx=5 dy=0 dh=10 dv=0
EndChar
StartChar: Atilde
Encoding: 195 195 32
Width: 596
GlyphClass: 2
Flags: MW
HStem: 0 21G<-19 173 -19 -19 419 615 419 419> 142 132<233 359 233 388 204 359> 563 132<296 296> 675 20G<187 409 409 409> 754 126<339 366.5 339 388.5> 798 126<230.5 259>
VStem: -19 634<0 0>
AnchorPoint: "Anchor-14" 0 0 basechar 0
AnchorPoint: "Anchor-13" 0 0 basechar 0
AnchorPoint: "Anchor-12" 301 924 basechar 0
AnchorPoint: "Anchor-11" 528 0 basechar 0
AnchorPoint: "Anchor-10" 298 0 basechar 0
LayerCount: 2
Back
Fore
SplineSet
243 798 m 0xd6
 218 798 206 783 190 755 c 1
 104 797 l 1
 129 865 176 924 239 924 c 0xd6
 301 924 323 880 355 880 c 0
 378 880 391 894 407 923 c 1
 493 881 l 1
 467 811 420 754 357 754 c 0xda
 297 754 275 798 243 798 c 0xd6
419 0 m 1
 388 142 l 1
 204 142 l 1
 173 0 l 1
 -19 0 l 1
 187 695 l 1
 409 695 l 1
 615 0 l 1
 419 0 l 1
233 274 m 1
 359 274 l 1
 296 563 l 1xe6
 233 274 l 1
EndSplineSet
Substitution2: "'c2sc' Capitals to Small Capitals lookup 26 subtable" atilde.sc
Substitution2: "'aalt' Access All Alternates lookup 0 subtable" atilde.sc
Position2: "'cpsp' Capital Spacing lookup 0 subtable" dx=5 dy=0 dh=10 dv=0
EndChar
StartChar: Adieresis
Encoding: 196 196 18
Width: 596
GlyphClass: 2
Flags: MW
HStem: 0 21G<-19 173 -19 -19 419 615 419 419> 142 132<233 359 233 388 204 359> 563 132<296 296> 675 20G<187 409 409 409> 763 172<154.5 203.5 393 442>
VStem: 91 175<825 873> 329 176<825 873>
AnchorPoint: "Anchor-14" 0 0 basechar 0
AnchorPoint: "Anchor-13" 0 0 basechar 0
AnchorPoint: "Anchor-12" 300 935 basechar 0
AnchorPoint: "Anchor-11" 528 0 basechar 0
AnchorPoint: "Anchor-10" 298 0 basechar 0
LayerCount: 2
Back
Fore
SplineSet
179 763 m 0xde
 130 763 91 801 91 849 c 0
 91 897 130 935 179 935 c 0
 228 935 266 897 266 849 c 0
 266 801 228 763 179 763 c 0xde
417 763 m 0
 369 763 329 801 329 849 c 0
 329 897 369 935 417 935 c 0
 467 935 505 897 505 849 c 0
 505 801 467 763 417 763 c 0
419 0 m 1
 388 142 l 1
 204 142 l 1
 173 0 l 1
 -19 0 l 1
 187 695 l 1
 409 695 l 1
 615 0 l 1
 419 0 l 1
233 274 m 1
 359 274 l 1
 296 563 l 1xee
 233 274 l 1
EndSplineSet
Substitution2: "'c2sc' Capitals to Small Capitals lookup 26 subtable" adieresis.sc
Substitution2: "'aalt' Access All Alternates lookup 0 subtable" adieresis.sc
Position2: "'cpsp' Capital Spacing lookup 0 subtable" dx=5 dy=0 dh=10 dv=0
EndChar
StartChar: Aring
Encoding: 197 197 29
Width: 596
GlyphClass: 2
Flags: MW
HStem: 0 21G<-19 173 -19 -19 419 615 419 419> 142 132<233 359 233 388 204 359> 563 132<296 296> 675 20G<187 409 409 409> 725 91<286 310.5 286 344> 912 91<286 310.5>
VStem: 152 104<848 880.5 848 901.5> 341 104<848 880.5>
AnchorPoint: "Anchor-14" 0 0 basechar 0
AnchorPoint: "Anchor-13" 0 0 basechar 0
AnchorPoint: "Anchor-12" 300 1003 basechar 0
AnchorPoint: "Anchor-11" 528 0 basechar 0
AnchorPoint: "Anchor-10" 298 0 basechar 0
LayerCount: 2
Back
Fore
SplineSet
298 725 m 0xdf
 207 725 152 790 152 864 c 0
 152 939 207 1003 298 1003 c 0
 390 1003 445 939 445 864 c 0
 445 790 390 725 298 725 c 0xdf
298 912 m 0
 274 912 256 897 256 864 c 0
 256 832 274 816 298 816 c 0
 323 816 341 832 341 864 c 0
 341 897 323 912 298 912 c 0
419 0 m 1
 388 142 l 1
 204 142 l 1
 173 0 l 1
 -19 0 l 1
 187 695 l 1
 409 695 l 1xd7
 615 0 l 1
 419 0 l 1
233 274 m 1
 359 274 l 1
 296 563 l 1xe7
 233 274 l 1
EndSplineSet
Substitution2: "'c2sc' Capitals to Small Capitals lookup 26 subtable" aring.sc
Substitution2: "'aalt' Access All Alternates lookup 0 subtable" aring.sc
Position2: "'cpsp' Capital Spacing lookup 0 subtable" dx=5 dy=0 dh=10 dv=0
EndChar
StartChar: AE
Encoding: 198 198 33
Width: 854
GlyphClass: 2
Flags: MW
HStem: 0 131<596 828 596 828> 142 132<261 398 261 418 219 398> 287 128<566 783 566 566> 564 131<514 772 514 514>
VStem: -27 855<0 131>
AnchorPoint: "Anchor-14" 0 0 basechar 0
AnchorPoint: "Anchor-13" 0 0 basechar 0
AnchorPoint: "Anchor-12" 486 695 basechar 0
AnchorPoint: "Anchor-11" 0 0 basechar 0
AnchorPoint: "Anchor-10" 0 0 basechar 0
LayerCount: 2
Back
Fore
SplineSet
596 131 m 1
 828 131 l 1
 828 0 l 1
 440 0 l 1xb8
 418 142 l 1
 219 142 l 1xf8
 173 0 l 1
 -27 0 l 1
 245 695 l 1
 792 695 l 1
 772 564 l 1
 514 564 l 1
 542 415 l 1
 783 415 l 1
 783 287 l 1
 566 287 l 1
 596 131 l 1
261 274 m 1xf8
 398 274 l 1
 353 561 l 1
 261 274 l 1xf8
EndSplineSet
Substitution2: "'c2sc' Capitals to Small Capitals lookup 26 subtable" ae.sc
Substitution2: "'aalt' Access All Alternates lookup 0 subtable" ae.sc
Position2: "'cpsp' Capital Spacing lookup 0 subtable" dx=5 dy=0 dh=10 dv=0
EndChar
StartChar: Ccedilla
Encoding: 199 199 47
Width: 579
GlyphClass: 2
Flags: MW
HStem: -269 94<311 334 308 385> -17 21G<385 385> -13 21G<286 286> 578 135<316.5 382>
VStem: 27 192<270.5 428.5 270.5 465> 366 126<-157.5 -136>
AnchorPoint: "Anchor-14" 369 352 basechar 0
AnchorPoint: "Anchor-13" 0 0 basechar 0
AnchorPoint: "Anchor-12" 356 695 basechar 0
AnchorPoint: "Anchor-11" 0 0 basechar 0
AnchorPoint: "Anchor-10" 357 -269 basechar 0
LayerCount: 2
Back
Fore
SplineSet
576 75 m 1xdc
 533 32 467 -8 385 -17 c 1
 385 -45 l 1xdc
 457 -54 492 -91 492 -149 c 0
 492 -218 434 -269 336 -269 c 0
 286 -269 243 -254 217 -236 c 1
 257 -157 l 1
 276 -168 296 -175 320 -175 c 0
 348 -175 366 -168 366 -147 c 0
 366 -125 338 -116 273 -116 c 1
 286 -13 l 1xbc
 127 13 27 138 27 349 c 0
 27 581 161 713 347 713 c 0
 442 713 509 683 568 634 c 1
 478 529 l 1
 443 560 406 578 358 578 c 0
 275 578 219 508 219 349 c 0
 219 192 275 122 362 122 c 0
 414 122 453 149 494 180 c 1
 576 75 l 1xdc
EndSplineSet
Substitution2: "'c2sc' Capitals to Small Capitals lookup 26 subtable" ccedilla.sc
Substitution2: "'aalt' Access All Alternates lookup 0 subtable" ccedilla.sc
Position2: "'cpsp' Capital Spacing lookup 0 subtable" dx=5 dy=0 dh=10 dv=0
EndChar
StartChar: Egrave
Encoding: 200 200 82
Width: 523
GlyphClass: 2
Flags: MW
HStem: 0 131<239 492 239 492> 289 127<239 446 239 446> 564 131<239 476 239 239>
VStem: 54 185<131 289 416 564>
AnchorPoint: "Anchor-14" 0 0 basechar 0
AnchorPoint: "Anchor-13" 0 0 basechar 0
AnchorPoint: "Anchor-12" 277 970 basechar 0
AnchorPoint: "Anchor-11" 462 0 basechar 0
AnchorPoint: "Anchor-10" 273 0 basechar 0
LayerCount: 2
Back
Fore
SplineSet
195 970 m 1
 420 840 l 1
 375 750 l 1
 128 839 l 1
 195 970 l 1
495 695 m 1
 476 564 l 1
 239 564 l 1
 239 416 l 1
 446 416 l 1
 446 289 l 1
 239 289 l 1
 239 131 l 1
 492 131 l 1
 492 0 l 1
 54 0 l 1
 54 695 l 1
 495 695 l 1
EndSplineSet
Substitution2: "'c2sc' Capitals to Small Capitals lookup 26 subtable" egrave.sc
Substitution2: "'aalt' Access All Alternates lookup 0 subtable" egrave.sc
Position2: "'cpsp' Capital Spacing lookup 0 subtable" dx=5 dy=0 dh=10 dv=0
EndChar
StartChar: Eacute
Encoding: 201 201 68
Width: 523
GlyphClass: 2
Flags: MW
HStem: 0 131<239 492 239 492> 289 127<239 446 239 446> 564 131<239 476 239 239>
VStem: 54 185<131 289 416 564>
AnchorPoint: "Anchor-14" 0 0 basechar 0
AnchorPoint: "Anchor-13" 0 0 basechar 0
AnchorPoint: "Anchor-12" 277 970 basechar 0
AnchorPoint: "Anchor-11" 462 0 basechar 0
AnchorPoint: "Anchor-10" 273 0 basechar 0
LayerCount: 2
Back
Fore
SplineSet
354 970 m 1
 421 839 l 1
 174 750 l 1
 129 840 l 1
 354 970 l 1
495 695 m 1
 476 564 l 1
 239 564 l 1
 239 416 l 1
 446 416 l 1
 446 289 l 1
 239 289 l 1
 239 131 l 1
 492 131 l 1
 492 0 l 1
 54 0 l 1
 54 695 l 1
 495 695 l 1
EndSplineSet
Substitution2: "'c2sc' Capitals to Small Capitals lookup 26 subtable" eacute.sc
Substitution2: "'aalt' Access All Alternates lookup 0 subtable" eacute.sc
Position2: "'cpsp' Capital Spacing lookup 0 subtable" dx=5 dy=0 dh=10 dv=0
EndChar

StartChar: Ecircumflex
Encoding: 202 202 28
Width: 523
GlyphClass: 2
Flags: MW
HStem: 0 131<239 492 239 492> 289 127<239 446 239 446> 564 131<239 476 239 239>
VStem: 54 185<131 289 416 564>
AnchorPoint: "Anchor-11" 273 0 basechar 0
AnchorPoint: "Anchor-10" 52 695 basechar 0
AnchorPoint: "Anchor-9" 275 695 basechar 0
AnchorPoint: "Anchor-8" 462 0 basechar 0
LayerCount: 2
Fore
SplineSet
276 838 m 1
 141 753 l 1
 79 824 l 1
 222 959 l 1
 330 959 l 1
 473 824 l 1
 411 753 l 1
 276 838 l 1
476 564 m 1
 239 564 l 1
 239 416 l 1
 446 416 l 1
 446 289 l 1
 239 289 l 1
 239 131 l 1
 492 131 l 1
 492 0 l 1
 54 0 l 1
 54 695 l 1
 495 695 l 1
 476 564 l 1
EndSplineSet
Substitution2: "'c2sc' Capitals to Small Capitals lookup 23 subtable" ecircumflex.sc
Substitution2: "'aalt' Access All Alternates lookup 0 subtable" ecircumflex.sc
Position2: "'cpsp' Capital Spacing lookup 0 subtable" dx=5 dy=0 dh=10 dv=0
EndChar
StartChar: Igrave
Encoding: 204 204 129
Width: 293
GlyphClass: 2
Flags: MW
HStem: 0 21G<54 239 54 54> 675 20G<54 239 239 239>
VStem: 54 185<0 695 0 695>
AnchorPoint: "Anchor-14" 0 0 basechar 0
AnchorPoint: "Anchor-13" 0 0 basechar 0
AnchorPoint: "Anchor-12" 147 970 basechar 0
AnchorPoint: "Anchor-11" 211 0 basechar 0
AnchorPoint: "Anchor-10" 146 0 basechar 0
LayerCount: 2
Back
Fore
SplineSet
65 970 m 1
 290 840 l 1
 245 750 l 1
 -2 839 l 1
 65 970 l 1
239 695 m 1
 239 0 l 1
 54 0 l 1
 54 695 l 1
 239 695 l 1
EndSplineSet
Substitution2: "'c2sc' Capitals to Small Capitals lookup 26 subtable" igrave.sc
Substitution2: "'aalt' Access All Alternates lookup 0 subtable" igrave.sc
Position2: "'cpsp' Capital Spacing lookup 0 subtable" dx=5 dy=0 dh=10 dv=0
EndChar
StartChar: Iacute
Encoding: 205 205 120
Width: 293
GlyphClass: 2
Flags: MW
HStem: 0 21G<54 239 54 54> 675 20G<54 239 239 239>
VStem: 54 185<0 695 0 695>
AnchorPoint: "Anchor-14" 0 0 basechar 0
AnchorPoint: "Anchor-13" 0 0 basechar 0
AnchorPoint: "Anchor-12" 148 970 basechar 0
AnchorPoint: "Anchor-11" 211 0 basechar 0
AnchorPoint: "Anchor-10" 146 0 basechar 0
LayerCount: 2
Back
Fore
SplineSet
225 970 m 1
 292 839 l 1
 45 750 l 1
 0 840 l 1
 225 970 l 1
239 695 m 1
 239 0 l 1
 54 0 l 1
 54 695 l 1
 239 695 l 1
EndSplineSet
Substitution2: "'c2sc' Capitals to Small Capitals lookup 26 subtable" iacute.sc
Substitution2: "'aalt' Access All Alternates lookup 0 subtable" iacute.sc
Position2: "'cpsp' Capital Spacing lookup 0 subtable" dx=5 dy=0 dh=10 dv=0
EndChar
StartChar: Icircumflex
Encoding: 206 206 123
Width: 293
GlyphClass: 2
Flags: MW
HStem: 0 21G<54 239 54 54> 675 20G<54 239 239 239>
VStem: 54 185<0 695 0 695>
AnchorPoint: "Anchor-14" 0 0 basechar 0
AnchorPoint: "Anchor-13" 252 843 basechar 0
AnchorPoint: "Anchor-12" 146 959 basechar 0
AnchorPoint: "Anchor-11" 211 0 basechar 0
AnchorPoint: "Anchor-10" 146 0 basechar 0
LayerCount: 2
Back
Fore
SplineSet
281 753 m 1
 146 838 l 1
 11 753 l 1
 -51 824 l 1
 92 959 l 1
 200 959 l 1
 343 824 l 1
 281 753 l 1
239 695 m 1
 239 0 l 1
 54 0 l 1
 54 695 l 1
 239 695 l 1
EndSplineSet
Substitution2: "'c2sc' Capitals to Small Capitals lookup 26 subtable" icircumflex.sc
Substitution2: "'aalt' Access All Alternates lookup 0 subtable" icircumflex.sc
Position2: "'cpsp' Capital Spacing lookup 0 subtable" dx=5 dy=0 dh=10 dv=0
EndChar

StartChar: Eth
Encoding: 208 208 21
Width: 668
GlyphClass: 2
Flags: MW
HStem: 0 132<253 290> 299 108<12 68 12 68 253 381> 563 132<253 276 276 301 253 253>
VStem: 68 185<132 299 132 299 132 299 407 563> 451 191<264.5 436.5>
AnchorPoint: "Anchor-11" 0 0 basechar 0
AnchorPoint: "Anchor-10" 0 0 basechar 0
AnchorPoint: "Anchor-9" 308 695 basechar 0
AnchorPoint: "Anchor-8" 0 0 basechar 0
LayerCount: 2
Fore
SplineSet
276 695 m 2
 464 695 642 636 642 350 c 0
 642 72 475 0 290 0 c 2
 68 0 l 1
 68 299 l 1
 12 299 l 1
 12 407 l 1
 68 407 l 1
 68 695 l 1
 276 695 l 2
301 132 m 2
 397 132 451 179 451 350 c 0
 451 523 393 563 301 563 c 2
 253 563 l 1
 253 407 l 1
 381 407 l 1
 381 299 l 1
 253 299 l 1
 253 132 l 1
 301 132 l 2
EndSplineSet
Substitution2: "'c2sc' Capitals to Small Capitals lookup 23 subtable" eth.sc
Substitution2: "'aalt' Access All Alternates lookup 0 subtable" eth.sc
Position2: "'cpsp' Capital Spacing lookup 0 subtable" dx=5 dy=0 dh=10 dv=0
EndChar
StartChar: Ntilde
Encoding: 209 209 175
Width: 657
GlyphClass: 2
Flags: MW
HStem: 0 21G<54 218 54 54 370 603 370 370> 0 170<464 464 464 603 370 464> 523 172<194 194> 675 20G<54 282 282 282 439 603 603 603> 754 126<372 399.5 372 421.5> 798 126<263.5 292>
VStem: 54 164<0 235 0 695> 439 164<443 695 0 695>
AnchorPoint: "Anchor-14" 0 0 basechar 0
AnchorPoint: "Anchor-13" 0 0 basechar 0
AnchorPoint: "Anchor-12" 334 924 basechar 0
AnchorPoint: "Anchor-11" 0 0 basechar 0
AnchorPoint: "Anchor-10" 329 0 basechar 0
LayerCount: 2
Back
Fore
SplineSet
390 754 m 0x9b
 330 754 308 798 276 798 c 0
 251 798 239 783 223 755 c 1
 137 797 l 1
 162 865 209 924 272 924 c 0x97
 334 924 356 880 388 880 c 0
 411 880 424 894 440 923 c 1
 526 881 l 1
 500 811 453 754 390 754 c 0x9b
603 695 m 1x57
 603 0 l 1
 370 0 l 1
 194 523 l 1xa7
 203 457 218 364 218 235 c 2
 218 0 l 1
 54 0 l 1
 54 695 l 1
 282 695 l 1
 464 170 l 1
 453 239 439 325 439 443 c 2
 439 695 l 1
 603 695 l 1x57
EndSplineSet
Substitution2: "'c2sc' Capitals to Small Capitals lookup 26 subtable" ntilde.sc
Substitution2: "'aalt' Access All Alternates lookup 0 subtable" ntilde.sc
Position2: "'cpsp' Capital Spacing lookup 0 subtable" dx=5 dy=0 dh=10 dv=0
EndChar
StartChar: multiply
Encoding: 215 215 2266
Width: 524
GlyphClass: 2
Flags: MW
HStem: 95 423<147 147 147 377>
VStem: 51 422<191 191 191 421>
LayerCount: 2
Back
Fore
SplineSet
377 518 m 1
 473 421 l 1
 356 306 l 1
 473 191 l 1
 377 95 l 1
 262 212 l 1
 147 95 l 1
 51 191 l 1
 168 306 l 1
 51 421 l 1
 147 518 l 1
 262 400 l 1
 377 518 l 1
EndSplineSet
Substitution2: "'onum' Oldstyle Figures lookup 25 subtable" multiply.osf
Substitution2: "'tnum' Tabular Numbers lookup 24 subtable" multiply.tf
AlternateSubs2: "'aalt' Access All Alternates lookup 1 subtable" multiply.tf multiply.osf
EndChar

StartChar: Oslash
Encoding: 216 216 79
Width: 690
GlyphClass: 2
Flags: MW
HStem: -18 133<341 388.5 341 446> 580 133<302.5 349.5>
VStem: 27 192<303 432 303 461> 471 193<264 392.5>
AnchorPoint: "Anchor-11" 0 0 basechar 0
AnchorPoint: "Anchor-10" 0 0 basechar 0
AnchorPoint: "Anchor-9" 344 734 basechar 0
AnchorPoint: "Anchor-8" 0 0 basechar 0
LayerCount: 2
Fore
SplineSet
522 667 m 1
 614 609 664 499 664 348 c 0
 664 122 547 -18 345 -18 c 0
 330 -18 315 -17 301 -16 c 1
 264 -137 l 1
 128 -100 l 1
 168 29 l 1
 77 87 27 197 27 348 c 0
 27 574 143 713 345 713 c 0
 360 713 375 712 389 711 c 1
 426 830 l 1
 563 794 l 1
 522 667 l 1
345 580 m 0
 260 580 219 516 219 348 c 0
 219 258 228 202 246 167 c 1
 369 579 l 1
 362 580 354 580 345 580 c 0
345 115 m 0
 432 115 471 180 471 348 c 0
 471 437 463 493 445 528 c 1
 322 116 l 1
 329 115 337 115 345 115 c 0
EndSplineSet
Substitution2: "'c2sc' Capitals to Small Capitals lookup 23 subtable" oslash.sc
Substitution2: "'aalt' Access All Alternates lookup 0 subtable" oslash.sc
Position2: "'cpsp' Capital Spacing lookup 0 subtable" dx=5 dy=0 dh=10 dv=0
EndChar

StartChar: Ugrave
Encoding: 217 217 106
Width: 647
GlyphClass: 2
Flags: MW
HStem: -18 135<290 357.5 290 418> 675 20G<44 229 229 229 418 604 604 604>
VStem: 44 185<233 239 239 695> 418 186<239 695>
AnchorPoint: "Anchor-11" 0 0 basechar 0
AnchorPoint: "Anchor-10" 0 0 basechar 0
AnchorPoint: "Anchor-9" 324 695 basechar 0
AnchorPoint: "Anchor-8" 454 0 basechar 0
LayerCount: 2
Fore
SplineSet
464 840 m 1
 419 750 l 1
 172 839 l 1
 239 970 l 1
 464 840 l 1
604 233 m 2
 604 92 512 -18 324 -18 c 0
 135 -18 44 84 44 233 c 2
 44 695 l 1
 229 695 l 1
 229 239 l 2
 229 157 256 117 324 117 c 0
 391 117 418 157 418 239 c 2
 418 695 l 1
 604 695 l 1
 604 233 l 2
EndSplineSet
Substitution2: "'c2sc' Capitals to Small Capitals lookup 23 subtable" ugrave.sc
Substitution2: "'aalt' Access All Alternates lookup 0 subtable" ugrave.sc
Position2: "'cpsp' Capital Spacing lookup 0 subtable" dx=5 dy=0 dh=10 dv=0
EndChar

StartChar: Ucircumflex
Encoding: 219 219 104
Width: 647
GlyphClass: 2
Flags: MW
HStem: -18 135<290 357.5 290 418> 675 20G<44 229 229 229 418 604 604 604>
VStem: 44 185<233 239 239 695> 418 186<239 695>
AnchorPoint: "Anchor-11" 0 0 basechar 0
AnchorPoint: "Anchor-10" 0 0 basechar 0
AnchorPoint: "Anchor-9" 324 695 basechar 0
AnchorPoint: "Anchor-8" 454 0 basechar 0
LayerCount: 2
Fore
SplineSet
324 838 m 1
 189 753 l 1
 127 824 l 1
 270 959 l 1
 378 959 l 1
 521 824 l 1
 459 753 l 1
 324 838 l 1
604 233 m 2
 604 92 512 -18 324 -18 c 0
 135 -18 44 84 44 233 c 2
 44 695 l 1
 229 695 l 1
 229 239 l 2
 229 157 256 117 324 117 c 0
 391 117 418 157 418 239 c 2
 418 695 l 1
 604 695 l 1
 604 233 l 2
EndSplineSet
Substitution2: "'c2sc' Capitals to Small Capitals lookup 23 subtable" ucircumflex.sc
Substitution2: "'aalt' Access All Alternates lookup 0 subtable" ucircumflex.sc
Position2: "'cpsp' Capital Spacing lookup 0 subtable" dx=5 dy=0 dh=10 dv=0
EndChar

StartChar: Udieresis
Encoding: 220 220 105
Width: 647
GlyphClass: 2
Flags: MW
HStem: -18 135<290 357.5 290 418> 675 20G<44 229 229 229 418 604 604 604> 763 172<179.5 228.5 418 467>
VStem: 44 185<233 239 239 695> 116 175<825 873> 354 176<825 873> 418 186<239 695>
AnchorPoint: "Anchor-11" 0 0 basechar 0
AnchorPoint: "Anchor-10" 0 0 basechar 0
AnchorPoint: "Anchor-9" 320 856 basechar 0
AnchorPoint: "Anchor-8" 454 0 basechar 0
LayerCount: 2
Fore
SplineSet
204 935 m 0xf2
 253 935 291 897 291 849 c 0xea
 291 801 253 763 204 763 c 0
 155 763 116 801 116 849 c 0
 116 897 155 935 204 935 c 0xf2
442 935 m 0
 492 935 530 897 530 849 c 0xf2
 530 801 492 763 442 763 c 0
 394 763 354 801 354 849 c 0xf4
 354 897 394 935 442 935 c 0
604 233 m 2
 604 92 512 -18 324 -18 c 0
 135 -18 44 84 44 233 c 2
 44 695 l 1
 229 695 l 1
 229 239 l 2
 229 157 256 117 324 117 c 0
 391 117 418 157 418 239 c 2
 418 695 l 1
 604 695 l 1
 604 233 l 2
EndSplineSet
Substitution2: "'c2sc' Capitals to Small Capitals lookup 23 subtable" udieresis.sc
Substitution2: "'aalt' Access All Alternates lookup 0 subtable" udieresis.sc
Position2: "'cpsp' Capital Spacing lookup 0 subtable" dx=5 dy=0 dh=10 dv=0
EndChar
StartChar: Yacute
Encoding: 221 221 303
Width: 607
GlyphClass: 2
Flags: MW
HStem: 0 21G<211 396 211 211> 675 20G<-11 191 191 191 422 618 618 618>
VStem: 211 185<0 258 258 258>
AnchorPoint: "Anchor-14" 0 0 basechar 0
AnchorPoint: "Anchor-13" 0 0 basechar 0
AnchorPoint: "Anchor-12" 305 970 basechar 0
AnchorPoint: "Anchor-11" 0 0 basechar 0
AnchorPoint: "Anchor-10" 303 0 basechar 0
LayerCount: 2
Back
Fore
SplineSet
382 970 m 1
 449 839 l 1
 202 750 l 1
 157 840 l 1
 382 970 l 1
618 695 m 1
 396 259 l 1
 396 0 l 1
 211 0 l 1
 211 258 l 1
 -11 695 l 1
 191 695 l 1
 306 400 l 1
 422 695 l 1
 618 695 l 1
EndSplineSet
Substitution2: "'c2sc' Capitals to Small Capitals lookup 26 subtable" yacute.sc
Substitution2: "'aalt' Access All Alternates lookup 0 subtable" yacute.sc
Position2: "'cpsp' Capital Spacing lookup 0 subtable" dx=5 dy=0 dh=10 dv=0
EndChar

StartChar: Thorn
Encoding: 222 222 84
Width: 605
GlyphClass: 2
Flags: MW
HStem: 0 21G<54 239 54 54> 110 132<239 293 293 310 239 293> 459 130<239 289 239 292> 675 20G<54 239 239 239>
VStem: 54 185<0 110 0 242 242 459 589 695> 398 189<315 390.5>
AnchorPoint: "Anchor-11" 0 0 basechar 0
AnchorPoint: "Anchor-10" 0 0 basechar 0
AnchorPoint: "Anchor-9" 118 565 basechar 0
AnchorPoint: "Anchor-8" 0 0 basechar 0
LayerCount: 2
Fore
SplineSet
292 589 m 2
 475 589 587 513 587 357 c 0
 587 189 473 110 310 110 c 2
 239 110 l 1
 239 0 l 1
 54 0 l 1
 54 695 l 1
 239 695 l 1
 239 589 l 1
 292 589 l 2
293 242 m 2
 360 242 398 273 398 357 c 0
 398 424 363 459 289 459 c 2
 239 459 l 1
 239 242 l 1
 293 242 l 2
EndSplineSet
Substitution2: "'c2sc' Capitals to Small Capitals lookup 23 subtable" thorn.sc
Substitution2: "'aalt' Access All Alternates lookup 0 subtable" thorn.sc
Position2: "'cpsp' Capital Spacing lookup 0 subtable" dx=5 dy=0 dh=10 dv=0
EndChar
StartChar: germandbls
Encoding: 223 223 634
Width: 610
GlyphClass: 2
Flags: MW
HStem: -18 136<366.5 381 357 449.5> 0 9 0 21G<52 230 52 52> 638 123<272 310.5>
VStem: 52 178<0 532 532 537 0 603> 264 152<396.5 455> 346 167<561 601.5> 414 184<153 221>
LayerCount: 2
Back
Fore
SplineSet
298 761 m 0x3a
 440 761 513 689 513 610 c 0x3a
 513 512 416 490 416 433 c 0x3c
 416 360 598 343 598 167 c 0
 598 50 509 -18 390 -18 c 0x99
 343 -18 298 -7 266 9 c 1x5a
 319 129 l 1
 333 122 348 118 366 118 c 0
 396 118 414 136 414 170 c 0x99
 414 272 264 269 264 401 c 0x3c
 264 509 346 504 346 586 c 0
 346 617 327 638 294 638 c 0
 250 638 230 603 230 537 c 2
 230 0 l 1
 52 0 l 1
 52 532 l 2
 52 674 138 761 298 761 c 0x3a
EndSplineSet
Substitution2: "'smcp' Lowercase to Small Capitals lookup 27 subtable" germandbls.sc
Substitution2: "'aalt' Access All Alternates lookup 0 subtable" germandbls.sc
EndChar
StartChar: aacute
Encoding: 225 225 336
Width: 550
GlyphClass: 2
Flags: MW
HStem: -18 125<142 264> -15 21G<492 492> 236 95<274 290 290 320> 423 128<234 267.5>
VStem: 21 175<148 189.5 148 207.5> 320 174<149 164 164 236 236 236 331 349 349 358>
AnchorPoint: "Anchor-14" 0 0 basechar 0
AnchorPoint: "Anchor-13" 0 0 basechar 0
AnchorPoint: "Anchor-12" 274 846 basechar 0
AnchorPoint: "Anchor-11" 502 -15 basechar 0
AnchorPoint: "Anchor-10" 274 0 basechar 0
LayerCount: 2
Back
Fore
SplineSet
412 714 m 1x7c
 168 618 l 1
 120 707 l 1
 344 846 l 1
 412 714 l 1x7c
494 164 m 2
 494 124 504 109 528 100 c 1
 492 -15 l 1x7c
 426 -10 383 9 355 60 c 1
 317 2 257 -18 195 -18 c 0xbc
 89 -18 21 51 21 149 c 0
 21 266 110 331 274 331 c 2
 320 331 l 1
 320 349 l 2
 320 407 298 423 237 423 c 0
 204 423 151 413 98 395 c 1
 59 510 l 1
 125 537 204 551 264 551 c 0
 426 551 494 486 494 358 c 2
 494 164 l 2
249 107 m 0xbc
 279 107 304 124 320 149 c 1
 320 236 l 1
 290 236 l 2
 226 236 196 213 196 166 c 0
 196 130 215 107 249 107 c 0xbc
EndSplineSet
Substitution2: "'smcp' Lowercase to Small Capitals lookup 27 subtable" aacute.sc
Substitution2: "'aalt' Access All Alternates lookup 0 subtable" aacute.sc
EndChar

StartChar: acircumflex
Encoding: 226 226 137
Width: 550
GlyphClass: 2
Flags: MW
HStem: -18 125<142 264> -15 21G<492 492> 236 95<274 290 290 320> 423 128<234 267.5>
VStem: 21 175<148 189.5 148 207.5> 320 174<150 164 164 236 236 236 331 349 349 358>
AnchorPoint: "Anchor-11" 0 0 basechar 0
AnchorPoint: "Anchor-10" 0 0 basechar 0
AnchorPoint: "Anchor-9" 274 533 basechar 0
AnchorPoint: "Anchor-8" 502 -15 basechar 0
LayerCount: 2
Fore
SplineSet
139 616 m 1x7c
 77 687 l 1
 220 831 l 1
 327 831 l 1
 471 687 l 1
 409 616 l 1
 274 710 l 1
 139 616 l 1x7c
494 164 m 2
 494 124 504 109 528 100 c 1
 492 -15 l 1x7c
 426 -10 383 9 356 60 c 1
 318 2 258 -18 195 -18 c 0xbc
 89 -18 21 51 21 149 c 0
 21 266 110 331 274 331 c 2
 320 331 l 1
 320 349 l 2
 320 407 298 423 237 423 c 0
 204 423 151 413 98 395 c 1
 59 510 l 1
 125 537 204 551 264 551 c 0
 426 551 494 486 494 358 c 2
 494 164 l 2
249 107 m 0xbc
 279 107 304 124 320 150 c 1
 320 236 l 1
 290 236 l 2
 226 236 196 213 196 166 c 0
 196 130 215 107 249 107 c 0xbc
EndSplineSet
Substitution2: "'smcp' Lowercase to Small Capitals lookup 24 subtable" acircumflex.sc
Substitution2: "'aalt' Access All Alternates lookup 0 subtable" acircumflex.sc
EndChar
StartChar: atilde
Encoding: 227 227 366
Width: 550
GlyphClass: 2
Flags: MW
HStem: -18 125<142 264> -15 21G<492 492> 236 95<274 290 290 320> 423 128<234 267.5> 628 126<314 341.5 314 363.5> 672 126<205.5 234>
VStem: 21 175<148 189.5 148 207.5> 320 174<149 164 164 236 236 236 331 349 349 358>
AnchorPoint: "Anchor-14" 0 0 basechar 0
AnchorPoint: "Anchor-13" 0 0 basechar 0
AnchorPoint: "Anchor-12" 274 754 basechar 0
AnchorPoint: "Anchor-11" 502 -15 basechar 0
AnchorPoint: "Anchor-10" 274 0 basechar 0
LayerCount: 2
Back
Fore
SplineSet
218 672 m 0x75
 193 672 181 657 165 629 c 1
 79 671 l 1x75
 104 739 151 798 214 798 c 0
 276 798 298 754 330 754 c 0
 353 754 366 768 382 797 c 1
 468 755 l 1
 442 685 395 628 332 628 c 0x79
 272 628 250 672 218 672 c 0x75
494 164 m 2xbb
 494 124 504 109 528 100 c 1
 492 -15 l 1x79
 426 -10 383 9 355 60 c 1
 317 2 257 -18 195 -18 c 0
 89 -18 21 51 21 149 c 0
 21 266 110 331 274 331 c 2
 320 331 l 1
 320 349 l 2
 320 407 298 423 237 423 c 0
 204 423 151 413 98 395 c 1
 59 510 l 1
 125 537 204 551 264 551 c 0
 426 551 494 486 494 358 c 2
 494 164 l 2xbb
249 107 m 0
 279 107 304 124 320 149 c 1
 320 236 l 1
 290 236 l 2
 226 236 196 213 196 166 c 0
 196 130 215 107 249 107 c 0
EndSplineSet
Substitution2: "'smcp' Lowercase to Small Capitals lookup 27 subtable" atilde.sc
Substitution2: "'aalt' Access All Alternates lookup 0 subtable" atilde.sc
EndChar
StartChar: aring
Encoding: 229 229 363
Width: 550
GlyphClass: 2
Flags: MW
HStem: -18 125<142 264> -15 21G<492 492> 236 95<274 290 290 320> 423 128<234 267.5> 599 91<262 286.5 262 320> 786 91<262 286.5>
VStem: 21 175<148 189.5 148 207.5> 128 104<722 754.5 722 775.5> 317 104<722 754.5> 320 174<149 164 164 236 236 236 331 349 349 358>
AnchorPoint: "Anchor-14" 0 0 basechar 0
AnchorPoint: "Anchor-13" 0 0 basechar 0
AnchorPoint: "Anchor-12" 276 877 basechar 0
AnchorPoint: "Anchor-11" 502 -15 basechar 0
AnchorPoint: "Anchor-10" 274 0 basechar 0
LayerCount: 2
Back
Fore
SplineSet
274 599 m 0x7d40
 183 599 128 664 128 738 c 0
 128 813 183 877 274 877 c 0
 366 877 421 813 421 738 c 0x7d80
 421 664 366 599 274 599 c 0x7d40
274 786 m 0x7d80
 250 786 232 771 232 738 c 0
 232 706 250 690 274 690 c 0
 299 690 317 706 317 738 c 0
 317 771 299 786 274 786 c 0x7d80
494 164 m 2xbe40
 494 124 504 109 528 100 c 1
 492 -15 l 1x7d40
 426 -10 383 9 355 60 c 1
 317 2 257 -18 195 -18 c 0
 89 -18 21 51 21 149 c 0
 21 266 110 331 274 331 c 2
 320 331 l 1
 320 349 l 2
 320 407 298 423 237 423 c 0
 204 423 151 413 98 395 c 1
 59 510 l 1
 125 537 204 551 264 551 c 0
 426 551 494 486 494 358 c 2
 494 164 l 2xbe40
249 107 m 0
 279 107 304 124 320 149 c 1
 320 236 l 1
 290 236 l 2
 226 236 196 213 196 166 c 0
 196 130 215 107 249 107 c 0
EndSplineSet
Substitution2: "'smcp' Lowercase to Small Capitals lookup 27 subtable" aring.sc
Substitution2: "'aalt' Access All Alternates lookup 0 subtable" aring.sc
EndChar
StartChar: ccedilla
Encoding: 231 231 384
Width: 479
GlyphClass: 2
Flags: MW
HStem: -269 94<254 277 251 328> -17 21G<328 328> -12 21G<229 229> 416 135<277.5 326>
VStem: 25 185<206.5 319.5 206.5 346.5> 309 126<-157.5 -136>
AnchorPoint: "Anchor-14" 0 0 basechar 0
AnchorPoint: "Anchor-13" 0 0 basechar 0
AnchorPoint: "Anchor-12" 291 533 basechar 0
AnchorPoint: "Anchor-11" 0 0 basechar 0
AnchorPoint: "Anchor-10" 300 -269 basechar 0
LayerCount: 2
Back
Fore
SplineSet
481 46 m 1xdc
 439 12 390 -11 328 -17 c 1
 328 -45 l 1xdc
 400 -54 435 -91 435 -149 c 0
 435 -218 377 -269 279 -269 c 0
 229 -269 186 -254 160 -236 c 1
 200 -157 l 1
 219 -168 239 -175 263 -175 c 0
 291 -175 309 -168 309 -147 c 0
 309 -125 281 -116 216 -116 c 1
 229 -12 l 1xbc
 101 15 25 118 25 262 c 0
 25 431 129 551 293 551 c 0
 372 551 431 527 481 483 c 1
 406 379 l 1
 374 405 343 416 309 416 c 0
 246 416 210 376 210 263 c 0
 210 150 250 120 307 120 c 0
 342 120 367 132 404 155 c 1
 481 46 l 1xdc
EndSplineSet
Substitution2: "'smcp' Lowercase to Small Capitals lookup 27 subtable" ccedilla.sc
Substitution2: "'aalt' Access All Alternates lookup 0 subtable" ccedilla.sc
EndChar

StartChar: eacute
Encoding: 233 233 158
Width: 556
GlyphClass: 2
Flags: MW
HStem: -18 127<288 339.5 288 346.5> 215 104<206 360 205 532 206 206> 436 115<261.5 313.5>
VStem: 25 180<319 319 319 343> 360 175<319 325 325 325>
AnchorPoint: "Anchor-11" 294 0 basechar 0
AnchorPoint: "Anchor-10" 0 0 basechar 0
AnchorPoint: "Anchor-9" 284 533 basechar 0
AnchorPoint: "Anchor-8" 444 10 basechar 0
LayerCount: 2
Fore
SplineSet
176 618 m 1
 128 707 l 1
 352 846 l 1
 420 714 l 1
 176 618 l 1
535 275 m 0
 535 258 533 233 532 215 c 1
 206 215 l 1
 216 129 257 109 319 109 c 0
 360 109 397 124 443 156 c 1
 515 58 l 1
 463 15 391 -18 302 -18 c 0
 115 -18 25 99 25 264 c 0
 25 422 112 551 282 551 c 0
 437 551 535 451 535 275 c 0
360 319 m 1
 360 325 l 1
 359 389 342 436 285 436 c 0
 238 436 212 408 205 319 c 1
 360 319 l 1
EndSplineSet
Substitution2: "'smcp' Lowercase to Small Capitals lookup 24 subtable" eacute.sc
Substitution2: "'aalt' Access All Alternates lookup 0 subtable" eacute.sc
EndChar

StartChar: edieresis
Encoding: 235 235 162
Width: 556
GlyphClass: 2
Flags: MW
HStem: -18 127<288 339.5 288 346.5> 215 104<206 360 205 532 206 206> 436 115<261.5 313.5> 637 172<140.5 189.5 379 428>
VStem: 25 180<319 319 319 343> 77 175<699 747> 315 176<699 747> 360 175<319 325 325 325>
AnchorPoint: "Anchor-11" 294 0 basechar 0
AnchorPoint: "Anchor-10" 0 0 basechar 0
AnchorPoint: "Anchor-9" 281 730 basechar 0
AnchorPoint: "Anchor-8" 444 10 basechar 0
LayerCount: 2
Fore
SplineSet
165 637 m 0xf6
 116 637 77 675 77 723 c 0
 77 771 116 809 165 809 c 0
 214 809 252 771 252 723 c 0
 252 675 214 637 165 637 c 0xf6
403 637 m 0
 355 637 315 675 315 723 c 0
 315 771 355 809 403 809 c 0
 453 809 491 771 491 723 c 0
 491 675 453 637 403 637 c 0
535 275 m 0xe9
 535 258 533 233 532 215 c 1
 206 215 l 1
 216 129 257 109 319 109 c 0
 360 109 397 124 443 156 c 1
 515 58 l 1
 463 15 391 -18 302 -18 c 0
 115 -18 25 99 25 264 c 0
 25 422 112 551 282 551 c 0
 437 551 535 451 535 275 c 0xe9
360 319 m 1
 360 325 l 1
 359 389 342 436 285 436 c 0
 238 436 212 408 205 319 c 1
 360 319 l 1
EndSplineSet
Substitution2: "'smcp' Lowercase to Small Capitals lookup 24 subtable" edieresis.sc
Substitution2: "'aalt' Access All Alternates lookup 0 subtable" edieresis.sc
EndChar
StartChar: igrave
Encoding: 236 236 489
Width: 282
GlyphClass: 2
Flags: MW
HStem: 0 21G<52 230 52 52> 513 20G<52 230 230 230> 687 20G<297 297> 694 20G<5 5>
VStem: 52 178<0 533 0 533>
AnchorPoint: "Anchor-14" 0 0 basechar 0
AnchorPoint: "Anchor-13" 0 0 basechar 0
AnchorPoint: "Anchor-12" 153 846 basechar 0
AnchorPoint: "Anchor-11" 208 0 basechar 0
AnchorPoint: "Anchor-10" 141 0 basechar 0
LayerCount: 2
Back
Fore
SplineSet
73 846 m 1xd8
 297 707 l 1
 249 618 l 1xe8
 5 714 l 1
 73 846 l 1xd8
230 533 m 1
 230 0 l 1
 52 0 l 1
 52 533 l 1
 230 533 l 1
EndSplineSet
Substitution2: "'smcp' Lowercase to Small Capitals lookup 27 subtable" igrave.sc
Substitution2: "'aalt' Access All Alternates lookup 0 subtable" igrave.sc
EndChar
StartChar: iacute
Encoding: 237 237 480
Width: 282
GlyphClass: 2
Flags: MW
HStem: 0 21G<52 230 52 52> 513 20G<52 230 230 230>
VStem: 52 178<0 533 0 533>
AnchorPoint: "Anchor-14" 0 0 basechar 0
AnchorPoint: "Anchor-13" 0 0 basechar 0
AnchorPoint: "Anchor-12" 141 846 basechar 0
AnchorPoint: "Anchor-11" 208 0 basechar 0
AnchorPoint: "Anchor-10" 141 0 basechar 0
LayerCount: 2
Back
Fore
SplineSet
211 846 m 1
 279 714 l 1
 35 618 l 1
 -13 707 l 1
 211 846 l 1
230 533 m 1
 230 0 l 1
 52 0 l 1
 52 533 l 1
 230 533 l 1
EndSplineSet
Substitution2: "'smcp' Lowercase to Small Capitals lookup 27 subtable" iacute.sc
Substitution2: "'aalt' Access All Alternates lookup 0 subtable" iacute.sc
EndChar
StartChar: icircumflex
Encoding: 238 238 483
Width: 282
GlyphClass: 2
Flags: MW
HStem: 0 21G<52 230 52 52> 513 20G<52 230 230 230>
VStem: 52 178<0 533 0 533>
AnchorPoint: "Anchor-14" 0 0 basechar 0
AnchorPoint: "Anchor-13" 0 0 basechar 0
AnchorPoint: "Anchor-12" 143 831 basechar 0
AnchorPoint: "Anchor-11" 208 0 basechar 0
AnchorPoint: "Anchor-10" 141 0 basechar 0
LayerCount: 2
Back
Fore
SplineSet
6 616 m 1
 -56 687 l 1
 87 831 l 1
 194 831 l 1
 338 687 l 1
 276 616 l 1
 141 710 l 1
 6 616 l 1
230 533 m 1
 230 0 l 1
 52 0 l 1
 52 533 l 1
 230 533 l 1
EndSplineSet
Substitution2: "'smcp' Lowercase to Small Capitals lookup 27 subtable" icircumflex.sc
Substitution2: "'aalt' Access All Alternates lookup 0 subtable" icircumflex.sc
EndChar

StartChar: idieresis
Encoding: 239 239 181
Width: 282
GlyphClass: 2
Flags: MW
HStem: 0 21G<52 230 52 52> 513 20G<52 230 230 230> 637 172<-2.5 46.5 236 285>
VStem: -66 175<699 747> 52 178<0 533> 172 176<699 747>
AnchorPoint: "Anchor-11" 0 0 basechar 0
AnchorPoint: "Anchor-10" 0 0 basechar 0
AnchorPoint: "Anchor-9" 138 730 basechar 0
AnchorPoint: "Anchor-8" 208 0 basechar 0
LayerCount: 2
Fore
SplineSet
22 809 m 0xf4
 71 809 109 771 109 723 c 0
 109 675 71 637 22 637 c 0
 -27 637 -66 675 -66 723 c 0
 -66 771 -27 809 22 809 c 0xf4
260 809 m 0
 310 809 348 771 348 723 c 0
 348 675 310 637 260 637 c 0
 212 637 172 675 172 723 c 0
 172 771 212 809 260 809 c 0
230 0 m 1xe8
 52 0 l 1
 52 533 l 1
 230 533 l 1
 230 0 l 1xe8
EndSplineSet
Substitution2: "'smcp' Lowercase to Small Capitals lookup 24 subtable" idieresis.sc
Substitution2: "'aalt' Access All Alternates lookup 0 subtable" idieresis.sc
EndChar
StartChar: eth
Encoding: 240 240 392
Width: 581
GlyphClass: 2
Flags: MW
HStem: -18 128<262.5 317.5 262.5 371.5> 358 123<257.5 261 176.5 302.5> 555 20G<105 105> 741 20G<107 107>
VStem: 25 180<190 274.5 190 304.5> 370 182<253 327 327 327>
AnchorPoint: "Anchor-14" 0 0 basechar 0
AnchorPoint: "Anchor-13" 0 0 basechar 0
AnchorPoint: "Anchor-12" 311 743 basechar 0
AnchorPoint: "Anchor-11" 0 0 basechar 0
AnchorPoint: "Anchor-10" 285 0 basechar 0
LayerCount: 2
Back
Fore
SplineSet
362 672 m 1
 503 573 552 445 552 280 c 0
 552 117 459 -18 284 -18 c 0
 137 -18 25 75 25 233 c 0
 25 376 119 481 234 481 c 0
 288 481 327 466 362 440 c 1
 344 493 318 534 265 574 c 1
 216 524 l 1
 105 575 l 1
 156 628 l 1
 124 637 95 643 72 647 c 1
 107 761 l 1
 152 754 193 745 251 726 c 1
 326 804 l 1
 415 727 l 1
 362 672 l 1
288 110 m 0
 347 110 370 155 370 253 c 2
 370 327 l 1
 347 347 319 358 286 358 c 0
 229 358 205 313 205 236 c 0
 205 144 237 110 288 110 c 0
EndSplineSet
Substitution2: "'smcp' Lowercase to Small Capitals lookup 27 subtable" eth.sc
Substitution2: "'aalt' Access All Alternates lookup 0 subtable" eth.sc
EndChar

StartChar: ntilde
Encoding: 241 241 207
Width: 575
GlyphClass: 2
Flags: MW
HStem: 0 21G<52 230 52 52 350 528 350 350> 421 130<295.5 427> 513 20G<52 207 207 207> 531 20G<349.5 427> 628 126<333 360.5 333 384> 672 126<224.5 253>
VStem: 52 178<0 360 0 533 0 533> 350 178<0 359 359 383.5>
AnchorPoint: "Anchor-11" 287 0 basechar 0
AnchorPoint: "Anchor-10" 0 0 basechar 0
AnchorPoint: "Anchor-9" 292 533 basechar 0
AnchorPoint: "Anchor-8" 0 0 basechar 0
LayerCount: 2
Fore
SplineSet
237 672 m 0x97
 212 672 200 657 184 629 c 1
 98 671 l 1x97
 123 739 170 798 233 798 c 0
 298 798 317 754 349 754 c 0
 372 754 385 768 401 797 c 1
 487 755 l 1
 461 685 414 628 354 628 c 0x9b
 288 628 269 672 237 672 c 0x97
382 551 m 0x9b
 472 551 528 493 528 391 c 2
 528 0 l 1
 350 0 l 1
 350 359 l 2
 350 408 334 421 310 421 c 0
 281 421 255 400 230 360 c 1xcb
 230 0 l 1
 52 0 l 1
 52 533 l 1
 207 533 l 1xab
 220 473 l 1
 267 526 317 551 382 551 c 0x9b
EndSplineSet
Substitution2: "'smcp' Lowercase to Small Capitals lookup 24 subtable" ntilde.sc
Substitution2: "'aalt' Access All Alternates lookup 0 subtable" ntilde.sc
EndChar

StartChar: ograve
Encoding: 242 242 213
Width: 584
GlyphClass: 2
Flags: MW
HStem: -18 129<263.5 320.5 263.5 375> 422 129<263.5 320.5> 687 20G<448 448> 694 20G<156 156>
VStem: 25 183<211 321 211 353> 376 183<212 321.5>
AnchorPoint: "Anchor-11" 0 0 basechar 0
AnchorPoint: "Anchor-10" 0 0 basechar 0
AnchorPoint: "Anchor-9" 292 533 basechar 0
AnchorPoint: "Anchor-8" 0 0 basechar 0
LayerCount: 2
Fore
SplineSet
448 707 m 1xec
 400 618 l 1xec
 156 714 l 1xdc
 224 846 l 1
 448 707 l 1xec
292 551 m 0
 457 551 559 448 559 266 c 0
 559 94 458 -18 292 -18 c 0
 127 -18 25 85 25 267 c 0
 25 439 126 551 292 551 c 0
292 422 m 0
 235 422 208 375 208 267 c 0
 208 155 235 111 292 111 c 0
 349 111 376 158 376 266 c 0
 376 377 349 422 292 422 c 0
EndSplineSet
Substitution2: "'smcp' Lowercase to Small Capitals lookup 24 subtable" ograve.sc
Substitution2: "'aalt' Access All Alternates lookup 0 subtable" ograve.sc
EndChar

StartChar: otilde
Encoding: 245 245 218
Width: 584
GlyphClass: 2
Flags: MW
HStem: -18 129<263.5 320.5 263.5 375> 422 129<263.5 320.5> 628 126<332 359.5 332 383> 672 126<223.5 252>
VStem: 25 183<211 321 211 353> 376 183<212 321.5>
AnchorPoint: "Anchor-11" 0 0 basechar 0
AnchorPoint: "Anchor-10" 0 0 basechar 0
AnchorPoint: "Anchor-9" 292 533 basechar 0
AnchorPoint: "Anchor-8" 0 0 basechar 0
LayerCount: 2
Fore
SplineSet
353 628 m 0xec
 287 628 268 672 236 672 c 0
 211 672 199 657 183 629 c 1
 97 671 l 1xdc
 122 739 169 798 232 798 c 0
 297 798 316 754 348 754 c 0
 371 754 384 768 400 797 c 1
 486 755 l 1
 460 685 413 628 353 628 c 0xec
292 551 m 0
 457 551 559 448 559 266 c 0
 559 94 458 -18 292 -18 c 0
 127 -18 25 85 25 267 c 0
 25 439 126 551 292 551 c 0
292 422 m 0
 235 422 208 375 208 267 c 0
 208 155 235 111 292 111 c 0
 349 111 376 158 376 266 c 0
 376 377 349 422 292 422 c 0
EndSplineSet
Substitution2: "'smcp' Lowercase to Small Capitals lookup 24 subtable" otilde.sc
Substitution2: "'aalt' Access All Alternates lookup 0 subtable" otilde.sc
EndChar
StartChar: odieresis
Encoding: 246 246 566
Width: 584
GlyphClass: 2
Flags: MW
HStem: -18 129<263.5 320.5 263.5 375> 422 129<263.5 320.5> 637 172<148.5 197.5 387 436>
VStem: 25 183<211 321 211 353> 85 175<699 747> 323 176<699 747> 376 183<212 321.5>
AnchorPoint: "Anchor-14" 0 0 basechar 0
AnchorPoint: "Anchor-13" 503 533 basechar 0
AnchorPoint: "Anchor-12" 294 809 basechar 0
AnchorPoint: "Anchor-11" 408 0 basechar 0
AnchorPoint: "Anchor-10" 292 0 basechar 0
LayerCount: 2
Back
Fore
SplineSet
173 809 m 0xec
 222 809 260 771 260 723 c 0
 260 675 222 637 173 637 c 0
 124 637 85 675 85 723 c 0
 85 771 124 809 173 809 c 0xec
411 809 m 0
 461 809 499 771 499 723 c 0
 499 675 461 637 411 637 c 0
 363 637 323 675 323 723 c 0
 323 771 363 809 411 809 c 0
292 551 m 0xf2
 457 551 559 448 559 266 c 0
 559 94 458 -18 292 -18 c 0
 127 -18 25 85 25 267 c 0
 25 439 126 551 292 551 c 0xf2
292 422 m 0
 235 422 208 375 208 267 c 0
 208 155 235 111 292 111 c 0
 349 111 376 158 376 266 c 0
 376 377 349 422 292 422 c 0
EndSplineSet
Substitution2: "'smcp' Lowercase to Small Capitals lookup 27 subtable" odieresis.sc
Substitution2: "'aalt' Access All Alternates lookup 0 subtable" odieresis.sc
EndChar

StartChar: divide
Encoding: 247 247 1089
Width: 524
Flags: MW
HStem: -10 21G<235.5 289> -10 194<235.5 289> 264 136<44 480 44 480> 481 193<235.5 289>
VStem: 166 193<60.5 113.5 551 603.5>
LayerCount: 2
Fore
SplineSet
262 674 m 0xb8
 316 674 359 630 359 577 c 0
 359 525 316 481 262 481 c 0
 209 481 166 525 166 577 c 0
 166 630 209 674 262 674 c 0xb8
44 400 m 1
 480 400 l 1
 480 264 l 1
 44 264 l 1
 44 400 l 1
262 184 m 0x78
 316 184 359 140 359 87 c 0
 359 34 316 -10 262 -10 c 0
 209 -10 166 34 166 87 c 0
 166 140 209 184 262 184 c 0x78
EndSplineSet
Substitution2: "'onum' Oldstyle Figures lookup 22 subtable" divide.osf
Substitution2: "'tnum' Tabular Numbers lookup 21 subtable" divide.tf
AlternateSubs2: "'aalt' Access All Alternates lookup 1 subtable" divide.tf divide.osf
EndChar
StartChar: oslash
Encoding: 248 248 589
Width: 584
GlyphClass: 2
Flags: MW
HStem: -18 129<287.5 292 292 324.5 282 375> 422 129<259.5 292 292 297 209 302>
VStem: 25 167<237 321 237 353> 392 167<212 296>
AnchorPoint: "Anchor-14" 0 0 basechar 0
AnchorPoint: "Anchor-13" 0 0 basechar 0
AnchorPoint: "Anchor-12" 292 533 basechar 0
AnchorPoint: "Anchor-11" 0 0 basechar 0
AnchorPoint: "Anchor-10" 291 0 basechar 0
LayerCount: 2
Back
Fore
SplineSet
446 511 m 1
 518 465 559 381 559 266 c 0
 559 94 458 -18 292 -18 c 0
 283 -18 273 -18 264 -17 c 1
 227 -136 l 1
 99 -99 l 1
 138 22 l 1
 66 68 25 151 25 267 c 0
 25 439 126 551 292 551 c 0
 302 551 311 551 320 550 c 1
 359 670 l 1
 486 632 l 1
 446 511 l 1
292 422 m 2
 227 422 192 375 192 267 c 0
 192 207 198 170 211 147 c 1
 302 422 l 1
 292 422 l 2
292 111 m 2
 357 111 392 158 392 266 c 0
 392 326 386 363 373 386 c 1
 282 111 l 1
 292 111 l 2
EndSplineSet
Substitution2: "'smcp' Lowercase to Small Capitals lookup 27 subtable" oslash.sc
Substitution2: "'aalt' Access All Alternates lookup 0 subtable" oslash.sc
EndChar
StartChar: ugrave
Encoding: 249 249 674
Width: 569
GlyphClass: 2
Flags: MW
HStem: -18 130<145 279.5> 0 21G<362 517 362 362> 513 20G<47 225 225 225 339 517 517 517> 687 20G<439 439> 694 20G<147 147>
VStem: 47 178<150 173 173 533> 339 178<165 533 0 533>
AnchorPoint: "Anchor-14" 0 0 basechar 0
AnchorPoint: "Anchor-13" 527 533 basechar 0
AnchorPoint: "Anchor-12" 295 846 basechar 0
AnchorPoint: "Anchor-11" 527 0 basechar 0
AnchorPoint: "Anchor-10" 283 0 basechar 0
LayerCount: 2
Back
Fore
SplineSet
215 846 m 1x6e
 439 707 l 1
 391 618 l 1xb6
 147 714 l 1
 215 846 l 1x6e
517 533 m 1
 517 0 l 1
 362 0 l 1x6e
 355 63 l 1
 317 8 264 -18 196 -18 c 0
 94 -18 47 48 47 150 c 2
 47 533 l 1
 225 533 l 1
 225 173 l 2
 225 125 241 112 267 112 c 0
 292 112 318 130 339 165 c 1
 339 533 l 1
 517 533 l 1
EndSplineSet
Substitution2: "'smcp' Lowercase to Small Capitals lookup 27 subtable" ugrave.sc
Substitution2: "'aalt' Access All Alternates lookup 0 subtable" ugrave.sc
EndChar

StartChar: uacute
Encoding: 250 250 240
Width: 569
GlyphClass: 2
Flags: MW
HStem: -18 130<145 279.5> 0 21G<362 517 362 362> 513 20G<47 225 225 225 339 517 517 517>
VStem: 47 178<150 173 173 533> 339 178<165 533>
AnchorPoint: "Anchor-11" 0 0 basechar 0
AnchorPoint: "Anchor-10" 0 0 basechar 0
AnchorPoint: "Anchor-9" 283 533 basechar 0
AnchorPoint: "Anchor-8" 527 0 basechar 0
LayerCount: 2
Fore
SplineSet
419 714 m 1x78
 175 618 l 1
 127 707 l 1
 351 846 l 1
 419 714 l 1x78
517 0 m 1
 362 0 l 1x78
 355 63 l 1
 317 8 264 -18 196 -18 c 0
 94 -18 47 48 47 150 c 2
 47 533 l 1
 225 533 l 1
 225 173 l 2
 225 125 241 112 267 112 c 0
 292 112 318 130 339 165 c 1xb8
 339 533 l 1
 517 533 l 1
 517 0 l 1
EndSplineSet
Substitution2: "'smcp' Lowercase to Small Capitals lookup 24 subtable" uacute.sc
Substitution2: "'aalt' Access All Alternates lookup 0 subtable" uacute.sc
EndChar
StartChar: ucircumflex
Encoding: 251 251 666
Width: 569
GlyphClass: 2
Flags: MW
HStem: -18 130<145 279.5> 0 21G<362 517 362 362> 513 20G<47 225 225 225 339 517 517 517>
VStem: 47 178<150 173 173 533> 339 178<165 533 0 533>
AnchorPoint: "Anchor-14" 0 0 basechar 0
AnchorPoint: "Anchor-13" 527 533 basechar 0
AnchorPoint: "Anchor-12" 285 831 basechar 0
AnchorPoint: "Anchor-11" 527 0 basechar 0
AnchorPoint: "Anchor-10" 283 0 basechar 0
LayerCount: 2
Back
Fore
SplineSet
148 616 m 1x78
 86 687 l 1
 229 831 l 1
 336 831 l 1
 480 687 l 1
 418 616 l 1
 283 710 l 1
 148 616 l 1x78
517 533 m 1
 517 0 l 1
 362 0 l 1x78
 355 63 l 1
 317 8 264 -18 196 -18 c 0
 94 -18 47 48 47 150 c 2
 47 533 l 1
 225 533 l 1
 225 173 l 2
 225 125 241 112 267 112 c 0
 292 112 318 130 339 165 c 1xb8
 339 533 l 1
 517 533 l 1
EndSplineSet
Substitution2: "'smcp' Lowercase to Small Capitals lookup 27 subtable" ucircumflex.sc
Substitution2: "'aalt' Access All Alternates lookup 0 subtable" ucircumflex.sc
EndChar

StartChar: udieresis
Encoding: 252 252 243
Width: 569
GlyphClass: 2
Flags: MW
HStem: -18 130<145 279.5> 0 21G<362 517 362 362> 513 20G<47 225 225 225 339 517 517 517> 637 172<138.5 187.5 377 426>
VStem: 47 178<150 173 173 533> 75 175<699 747> 313 176<699 747> 339 178<165 533>
AnchorPoint: "Anchor-11" 0 0 basechar 0
AnchorPoint: "Anchor-10" 0 0 basechar 0
AnchorPoint: "Anchor-9" 279 730 basechar 0
AnchorPoint: "Anchor-8" 527 0 basechar 0
LayerCount: 2
Fore
SplineSet
163 809 m 0x76
 212 809 250 771 250 723 c 0
 250 675 212 637 163 637 c 0
 114 637 75 675 75 723 c 0
 75 771 114 809 163 809 c 0x76
401 809 m 0
 451 809 489 771 489 723 c 0
 489 675 451 637 401 637 c 0
 353 637 313 675 313 723 c 0
 313 771 353 809 401 809 c 0
517 0 m 1x79
 362 0 l 1x79
 355 63 l 1
 317 8 264 -18 196 -18 c 0
 94 -18 47 48 47 150 c 2
 47 533 l 1
 225 533 l 1
 225 173 l 2
 225 125 241 112 267 112 c 0
 292 112 318 130 339 165 c 1xb9
 339 533 l 1
 517 533 l 1
 517 0 l 1x79
EndSplineSet
Substitution2: "'smcp' Lowercase to Small Capitals lookup 24 subtable" udieresis.sc
Substitution2: "'aalt' Access All Alternates lookup 0 subtable" udieresis.sc
EndChar
StartChar: yacute
Encoding: 253 253 704
Width: 526
GlyphClass: 2
Flags: MW
HStem: -225 21G<55 55> 0 21G<146 207 146 146 370 370> 513 20G<-10 179 179 179 353 536 536 536>
VStem: -10 546<533 533>
AnchorPoint: "Anchor-14" 0 0 basechar 0
AnchorPoint: "Anchor-13" 0 0 basechar 0
AnchorPoint: "Anchor-12" 263 846 basechar 0
AnchorPoint: "Anchor-11" 0 0 basechar 0
AnchorPoint: "Anchor-10" 260 -213 basechar 0
LayerCount: 2
Back
Fore
SplineSet
333 846 m 1
 401 714 l 1
 157 618 l 1
 109 707 l 1
 333 846 l 1
536 533 m 1
 370 0 l 2
 327 -141 227 -218 55 -225 c 1
 36 -102 l 1
 139 -91 179 -64 207 0 c 1
 146 0 l 1
 -10 533 l 1
 179 533 l 1
 260 111 l 1
 353 533 l 1
 536 533 l 1
EndSplineSet
Substitution2: "'smcp' Lowercase to Small Capitals lookup 27 subtable" yacute.sc
Substitution2: "'aalt' Access All Alternates lookup 0 subtable" yacute.sc
EndChar

StartChar: thorn
Encoding: 254 254 221
Width: 598
GlyphClass: 2
Flags: MW
HStem: -224 21G<52 52> -205 21G<230 230> -18 128<285.5 421.5> 422 129<294 436> 723 20G<52 52> 741 20G<230 230>
VStem: 52 178<-205 36 -205 152 152 366 487 743 743 743> 385 184<209 331>
AnchorPoint: "Anchor-11" 0 0 basechar 0
AnchorPoint: "Anchor-10" 0 0 basechar 0
AnchorPoint: "Anchor-9" 152 565 basechar 0
AnchorPoint: "Anchor-8" 0 0 basechar 0
LayerCount: 2
Fore
SplineSet
366 551 m 0x77
 506 551 569 442 569 268 c 0
 569 103 486 -18 357 -18 c 0
 305 -18 262 0 230 36 c 1
 230 -205 l 1x77
 52 -224 l 1
 52 743 l 1xbb
 230 761 l 1
 230 487 l 1
 272 536 324 551 366 551 c 0x77
300 110 m 0
 351 110 385 152 385 266 c 0
 385 396 355 422 308 422 c 0
 280 422 252 403 230 366 c 1
 230 152 l 1
 250 123 271 110 300 110 c 0
EndSplineSet
Substitution2: "'smcp' Lowercase to Small Capitals lookup 24 subtable" thorn.sc
Substitution2: "'aalt' Access All Alternates lookup 0 subtable" thorn.sc
EndChar

StartChar: ydieresis
Encoding: 255 255 260
Width: 526
GlyphClass: 2
Flags: MW
HStem: -225 21G<55 55> 0 21G<146 207 146 146 370 370> 513 20G<-10 179 179 179 353 536 536 536> 637 172<119.5 168.5 358 407>
VStem: 56 175<699 747> 294 176<699 747>
AnchorPoint: "Anchor-11" 0 0 basechar 0
AnchorPoint: "Anchor-10" 0 0 basechar 0
AnchorPoint: "Anchor-9" 260 730 basechar 0
AnchorPoint: "Anchor-8" 0 0 basechar 0
LayerCount: 2
Fore
SplineSet
144 809 m 0
 193 809 231 771 231 723 c 0
 231 675 193 637 144 637 c 0
 95 637 56 675 56 723 c 0
 56 771 95 809 144 809 c 0
382 809 m 0
 432 809 470 771 470 723 c 0
 470 675 432 637 382 637 c 0
 334 637 294 675 294 723 c 0
 294 771 334 809 382 809 c 0
370 0 m 2
 327 -141 227 -218 55 -225 c 1
 36 -102 l 1
 139 -91 179 -64 207 0 c 1
 146 0 l 1
 -10 533 l 1
 179 533 l 1
 260 111 l 1
 353 533 l 1
 536 533 l 1
 370 0 l 2
EndSplineSet
Substitution2: "'smcp' Lowercase to Small Capitals lookup 24 subtable" ydieresis.sc
Substitution2: "'aalt' Access All Alternates lookup 0 subtable" ydieresis.sc
EndChar

StartChar: Amacron
Encoding: 256 256 7
Width: 596
GlyphClass: 2
Flags: MW
HStem: 0 21G<-19 173 -19 -19 419 419 419 615> 142 132<233 359 233 388 204 359> 563 132<296 296> 675 20G<187 409 409 409> 777 121<140 455 140 455>
VStem: 140 315<777 898 777 898>
AnchorPoint: "Anchor-11" 0 0 basechar 0
AnchorPoint: "Anchor-10" 148 695 basechar 0
AnchorPoint: "Anchor-9" 298 695 basechar 0
AnchorPoint: "Anchor-8" 528 0 basechar 0
LayerCount: 2
Fore
SplineSet
455 777 m 1xdc
 140 777 l 1
 140 898 l 1
 455 898 l 1
 455 777 l 1xdc
388 142 m 1
 204 142 l 1
 173 0 l 1
 -19 0 l 1
 187 695 l 1
 409 695 l 1
 615 0 l 1
 419 0 l 1
 388 142 l 1
359 274 m 1
 296 563 l 1xec
 233 274 l 1
 359 274 l 1
EndSplineSet
Substitution2: "'c2sc' Capitals to Small Capitals lookup 23 subtable" amacron.sc
Substitution2: "'aalt' Access All Alternates lookup 0 subtable" amacron.sc
Position2: "'cpsp' Capital Spacing lookup 0 subtable" dx=5 dy=0 dh=10 dv=0
EndChar

StartChar: Abreve
Encoding: 258 258 3
Width: 596
GlyphClass: 2
Flags: MW
HStem: 0 21G<-19 173 -19 -19 419 419 419 615> 142 132<233 359 233 388 204 359> 563 132<296 296> 675 20G<187 409 409 409> 748 122<275.5 321 275.5 354.5>
VStem: -19 634<0 0>
AnchorPoint: "Anchor-11" 0 0 basechar 0
AnchorPoint: "Anchor-10" 148 695 basechar 0
AnchorPoint: "Anchor-9" 298 695 basechar 0
AnchorPoint: "Anchor-8" 528 0 basechar 0
LayerCount: 2
Fore
SplineSet
298 748 m 0xdc
 186 748 128 834 120 922 c 1
 215 939 l 1
 227 901 253 870 298 870 c 0
 344 870 371 901 382 939 c 1
 477 922 l 1
 469 834 411 748 298 748 c 0xdc
388 142 m 1
 204 142 l 1
 173 0 l 1
 -19 0 l 1
 187 695 l 1
 409 695 l 1
 615 0 l 1
 419 0 l 1
 388 142 l 1
359 274 m 1
 296 563 l 1xec
 233 274 l 1
 359 274 l 1
EndSplineSet
Substitution2: "'c2sc' Capitals to Small Capitals lookup 23 subtable" abreve.sc
Substitution2: "'aalt' Access All Alternates lookup 0 subtable" abreve.sc
Position2: "'cpsp' Capital Spacing lookup 0 subtable" dx=5 dy=0 dh=10 dv=0
EndChar

StartChar: abreve
Encoding: 259 259 136
Width: 550
GlyphClass: 2
Flags: MW
HStem: -18 125<142 264> -15 21G<492 492> 236 95<274 290 290 320> 423 128<234 267.5> 629 122<250.5 296 250.5 329.5>
VStem: 21 175<148 189.5 148 207.5> 320 174<150 164 164 236 236 236 331 349 349 358>
AnchorPoint: "Anchor-11" 0 0 basechar 0
AnchorPoint: "Anchor-10" 0 0 basechar 0
AnchorPoint: "Anchor-9" 274 533 basechar 0
AnchorPoint: "Anchor-8" 502 -15 basechar 0
LayerCount: 2
Fore
SplineSet
273 629 m 0x7e
 161 629 103 715 95 813 c 1
 190 830 l 1
 202 782 228 751 273 751 c 0
 319 751 346 782 357 830 c 1
 452 813 l 1
 444 715 386 629 273 629 c 0x7e
494 164 m 2
 494 124 504 109 528 100 c 1
 492 -15 l 1x7e
 426 -10 383 9 356 60 c 1
 318 2 258 -18 195 -18 c 0xbe
 89 -18 21 51 21 149 c 0
 21 266 110 331 274 331 c 2
 320 331 l 1
 320 349 l 2
 320 407 298 423 237 423 c 0
 204 423 151 413 98 395 c 1
 59 510 l 1
 125 537 204 551 264 551 c 0
 426 551 494 486 494 358 c 2
 494 164 l 2
249 107 m 0xbe
 279 107 304 124 320 150 c 1
 320 236 l 1
 290 236 l 2
 226 236 196 213 196 166 c 0
 196 130 215 107 249 107 c 0xbe
EndSplineSet
Substitution2: "'smcp' Lowercase to Small Capitals lookup 24 subtable" abreve.sc
Substitution2: "'aalt' Access All Alternates lookup 0 subtable" abreve.sc
EndChar

StartChar: Aogonek
Encoding: 260 260 8
Width: 596
GlyphClass: 2
Flags: MW
HStem: -250 107<436.5 444.5> 0 21G<-19 173 -19 -19 518 615 518 518> 142 132<233 359 233 388 204 359> 563 132<296 296> 675 20G<187 409 409 409>
VStem: 278 123<-114 -91>
AnchorPoint: "Anchor-11" 0 0 basechar 0
AnchorPoint: "Anchor-10" 148 695 basechar 0
AnchorPoint: "Anchor-9" 298 695 basechar 0
AnchorPoint: "Anchor-8" 528 0 basechar 0
LayerCount: 2
Fore
SplineSet
518 0 m 1xec
 421 -34 401 -72 401 -99 c 0
 401 -129 420 -143 453 -143 c 0
 473 -143 492 -141 514 -136 c 1
 503 -242 l 1
 481 -247 458 -250 431 -250 c 0
 344 -250 278 -204 278 -129 c 0
 278 -53 332 -3 412 30 c 1
 388 142 l 1
 204 142 l 1
 173 0 l 1
 -19 0 l 1
 187 695 l 1
 409 695 l 1
 615 0 l 1
 518 0 l 1xec
359 274 m 1
 296 563 l 1xf4
 233 274 l 1
 359 274 l 1
EndSplineSet
Substitution2: "'c2sc' Capitals to Small Capitals lookup 23 subtable" aogonek.sc
Substitution2: "'aalt' Access All Alternates lookup 0 subtable" aogonek.sc
Position2: "'cpsp' Capital Spacing lookup 0 subtable" dx=5 dy=0 dh=10 dv=0
EndChar

StartChar: aogonek
Encoding: 261 261 141
Width: 550
GlyphClass: 2
Flags: MW
HStem: -265 107<410.5 418.5> -18 125<142 264> 236 95<274 290 290 320> 423 128<234 267.5>
VStem: 21 175<148 189.5 148 207.5> 252 123<-129 -105> 320 174<150 164 164 236 236 236 331 349 349 358>
AnchorPoint: "Anchor-11" 0 0 basechar 0
AnchorPoint: "Anchor-10" 0 0 basechar 0
AnchorPoint: "Anchor-9" 274 533 basechar 0
AnchorPoint: "Anchor-8" 502 -15 basechar 0
LayerCount: 2
Fore
SplineSet
492 -15 m 1xfa
 395 -49 375 -87 375 -114 c 0
 375 -144 394 -158 427 -158 c 0
 447 -158 466 -156 488 -151 c 1
 477 -257 l 1
 455 -262 432 -265 405 -265 c 0
 318 -265 252 -219 252 -144 c 0xfc
 252 -66 308 -17 391 17 c 1
 377 28 365 42 356 60 c 1
 318 2 258 -18 195 -18 c 0
 89 -18 21 51 21 149 c 0
 21 266 110 331 274 331 c 2
 320 331 l 1
 320 349 l 2
 320 407 298 423 237 423 c 0
 204 423 151 413 98 395 c 1
 59 510 l 1
 125 537 204 551 264 551 c 0
 426 551 494 486 494 358 c 2
 494 164 l 2
 494 124 504 109 528 100 c 1
 492 -15 l 1xfa
249 107 m 0
 279 107 304 124 320 150 c 1
 320 236 l 1
 290 236 l 2
 226 236 196 213 196 166 c 0
 196 130 215 107 249 107 c 0
EndSplineSet
Substitution2: "'smcp' Lowercase to Small Capitals lookup 24 subtable" aogonek.sc
Substitution2: "'aalt' Access All Alternates lookup 0 subtable" aogonek.sc
EndChar

StartChar: cacute
Encoding: 263 263 148
Width: 479
GlyphClass: 2
Flags: MW
HStem: -18 138<278.5 324.5 278.5 336> 416 135<277.5 326>
VStem: 25 185<206.5 319.5 206.5 346.5>
AnchorPoint: "Anchor-11" 278 0 basechar 0
AnchorPoint: "Anchor-10" 0 0 basechar 0
AnchorPoint: "Anchor-9" 291 533 basechar 0
AnchorPoint: "Anchor-8" 0 0 basechar 0
LayerCount: 2
Fore
SplineSet
427 714 m 1
 183 618 l 1
 135 707 l 1
 359 846 l 1
 427 714 l 1
293 551 m 0
 372 551 431 527 481 483 c 1
 406 378 l 1
 374 405 343 416 309 416 c 0
 246 416 210 376 210 263 c 0
 210 150 250 120 307 120 c 0
 342 120 367 132 402 158 c 1
 481 46 l 1
 433 6 374 -18 298 -18 c 0
 128 -18 25 95 25 262 c 0
 25 431 129 551 293 551 c 0
EndSplineSet
Substitution2: "'smcp' Lowercase to Small Capitals lookup 24 subtable" cacute.sc
Substitution2: "'locl' Localized Forms in Latin lookup 7 subtable" cacute.loclPLK
AlternateSubs2: "'aalt' Access All Alternates lookup 1 subtable" cacute.loclPLK cacute.sc
EndChar

StartChar: ccircumflex
Encoding: 265 265 151
Width: 479
GlyphClass: 2
Flags: MW
HStem: -18 138<278.5 324.5 278.5 336> 416 135<277.5 326>
VStem: 25 185<206.5 319.5 206.5 346.5>
AnchorPoint: "Anchor-11" 278 0 basechar 0
AnchorPoint: "Anchor-10" 0 0 basechar 0
AnchorPoint: "Anchor-9" 291 533 basechar 0
AnchorPoint: "Anchor-8" 0 0 basechar 0
LayerCount: 2
Fore
SplineSet
95 687 m 1
 238 831 l 1
 345 831 l 1
 489 687 l 1
 427 616 l 1
 292 710 l 1
 157 616 l 1
 95 687 l 1
293 551 m 0
 372 551 431 527 481 483 c 1
 406 378 l 1
 374 405 343 416 309 416 c 0
 246 416 210 376 210 263 c 0
 210 150 250 120 307 120 c 0
 342 120 367 132 402 158 c 1
 481 46 l 1
 433 6 374 -18 298 -18 c 0
 128 -18 25 95 25 262 c 0
 25 431 129 551 293 551 c 0
EndSplineSet
Substitution2: "'smcp' Lowercase to Small Capitals lookup 24 subtable" ccircumflex.sc
Substitution2: "'aalt' Access All Alternates lookup 0 subtable" ccircumflex.sc
EndChar
StartChar: Cdotaccent
Encoding: 266 266 49
Width: 579
GlyphClass: 2
Flags: MW
HStem: -18 140<318.5 388 318.5 400.5> 578 135<316.5 382> 750 196<326 386>
VStem: 27 192<270.5 428.5 270.5 465> 254 204<820.5 875.5>
AnchorPoint: "Anchor-14" 369 352 basechar 0
AnchorPoint: "Anchor-13" 0 0 basechar 0
AnchorPoint: "Anchor-12" 358 946 basechar 0
AnchorPoint: "Anchor-11" 0 0 basechar 0
AnchorPoint: "Anchor-10" 340 0 basechar 0
LayerCount: 2
Back
Fore
SplineSet
356 946 m 0
 416 946 458 903 458 848 c 0
 458 793 416 750 356 750 c 0
 296 750 254 793 254 848 c 0
 254 903 296 946 356 946 c 0
347 713 m 0
 442 713 509 683 568 634 c 1
 478 529 l 1
 443 560 406 578 358 578 c 0
 275 578 219 508 219 349 c 0
 219 192 275 122 362 122 c 0
 414 122 453 149 494 180 c 1
 576 75 l 1
 527 26 449 -18 352 -18 c 0
 156 -18 27 110 27 349 c 0
 27 581 161 713 347 713 c 0
EndSplineSet
Substitution2: "'c2sc' Capitals to Small Capitals lookup 26 subtable" cdotaccent.sc
Substitution2: "'aalt' Access All Alternates lookup 0 subtable" cdotaccent.sc
Position2: "'cpsp' Capital Spacing lookup 0 subtable" dx=5 dy=0 dh=10 dv=0
EndChar

StartChar: cdotaccent
Encoding: 267 267 152
Width: 479
GlyphClass: 2
Flags: MW
HStem: -18 138<278.5 324.5 278.5 336> 416 135<277.5 326> 624 196<261 321>
VStem: 25 185<206.5 319.5 206.5 346.5> 189 204<694.5 749.5>
AnchorPoint: "Anchor-11" 278 0 basechar 0
AnchorPoint: "Anchor-10" 0 0 basechar 0
AnchorPoint: "Anchor-9" 291 533 basechar 0
AnchorPoint: "Anchor-8" 0 0 basechar 0
LayerCount: 2
Fore
SplineSet
291 820 m 0xe8
 351 820 393 777 393 722 c 0
 393 667 351 624 291 624 c 0
 231 624 189 667 189 722 c 0
 189 777 231 820 291 820 c 0xe8
293 551 m 0
 372 551 431 527 481 483 c 1
 406 378 l 1
 374 405 343 416 309 416 c 0
 246 416 210 376 210 263 c 0
 210 150 250 120 307 120 c 0
 342 120 367 132 402 158 c 1
 481 46 l 1
 433 6 374 -18 298 -18 c 0
 128 -18 25 95 25 262 c 0xf0
 25 431 129 551 293 551 c 0
EndSplineSet
Substitution2: "'smcp' Lowercase to Small Capitals lookup 24 subtable" cdotaccent.sc
Substitution2: "'aalt' Access All Alternates lookup 0 subtable" cdotaccent.sc
EndChar
StartChar: ccaron
Encoding: 269 269 383
Width: 479
GlyphClass: 2
Flags: MW
HStem: -18 138<278.5 324.5 278.5 336> 416 135<277.5 326> 731 20G<95 95 489 489>
VStem: 25 185<206.5 319.5 206.5 346.5>
AnchorPoint: "Anchor-14" 0 0 basechar 0
AnchorPoint: "Anchor-13" 0 0 basechar 0
AnchorPoint: "Anchor-12" 294 822 basechar 0
AnchorPoint: "Anchor-11" 0 0 basechar 0
AnchorPoint: "Anchor-10" 278 0 basechar 0
LayerCount: 2
Back
Fore
SplineSet
427 822 m 1
 489 751 l 1
 346 607 l 1
 238 607 l 1
 95 751 l 1
 157 822 l 1
 292 728 l 1
 427 822 l 1
293 551 m 0
 372 551 431 527 481 483 c 1
 406 379 l 1
 374 405 343 416 309 416 c 0
 246 416 210 376 210 263 c 0
 210 150 250 120 307 120 c 0
 342 120 367 132 404 155 c 1
 481 46 l 1
 433 6 374 -18 298 -18 c 0
 128 -18 25 95 25 262 c 0
 25 431 129 551 293 551 c 0
EndSplineSet
Substitution2: "'smcp' Lowercase to Small Capitals lookup 27 subtable" ccaron.sc
Substitution2: "'aalt' Access All Alternates lookup 0 subtable" ccaron.sc
EndChar

StartChar: Dcaron
Encoding: 270 270 22
Width: 654
GlyphClass: 2
Flags: MW
HStem: 0 132<239 276> 563 132<239 239 239 262 262 286>
VStem: 54 185<132 563 132 695 132 695> 436 191<264.5 436.5>
AnchorPoint: "Anchor-11" 0 0 basechar 0
AnchorPoint: "Anchor-10" 0 0 basechar 0
AnchorPoint: "Anchor-9" 293 695 basechar 0
AnchorPoint: "Anchor-8" 0 0 basechar 0
LayerCount: 2
Fore
SplineSet
490 883 m 1
 347 748 l 1
 239 748 l 1
 96 883 l 1
 158 954 l 1
 293 869 l 1
 428 954 l 1
 490 883 l 1
262 695 m 2
 450 695 627 636 627 350 c 0
 627 72 461 0 276 0 c 2
 54 0 l 1
 54 695 l 1
 262 695 l 2
239 563 m 1
 239 132 l 1
 287 132 l 2
 382 132 436 179 436 350 c 0
 436 523 378 563 286 563 c 2
 239 563 l 1
EndSplineSet
Substitution2: "'c2sc' Capitals to Small Capitals lookup 23 subtable" dcaron.sc
Substitution2: "'aalt' Access All Alternates lookup 0 subtable" dcaron.sc
Position2: "'cpsp' Capital Spacing lookup 0 subtable" dx=5 dy=0 dh=10 dv=0
EndChar
StartChar: dcaron
Encoding: 271 271 394
Width: 712
GlyphClass: 2
Flags: MW
HStem: -18 128<163.5 307> 0 21G<390 548 390 390> 423 128<275 276 184 315> 531 20G<184 276> 723 20G<548 548> 741 20G<370 370 608 608>
VStem: 30 183<202 324 202 350.5> 370 178<164 386 386 386 505 743 0 761 0 761>
AnchorPoint: "Anchor-14" 301 266 basechar 0
AnchorPoint: "Anchor-13" 558 743 basechar 0
AnchorPoint: "Anchor-12" 297 743 basechar 0
AnchorPoint: "Anchor-11" 0 0 basechar 0
AnchorPoint: "Anchor-10" 308 0 basechar 0
LayerCount: 2
Back
Fore
SplineSet
370 505 m 1x67
 370 761 l 1x97
 548 743 l 1
 548 0 l 1
 390 0 l 1x6b
 383 59 l 1
 354 18 306 -18 232 -18 c 0xa7
 95 -18 30 95 30 268 c 0
 30 433 114 551 254 551 c 0
 298 551 340 534 370 505 c 1x67
608 761 m 1
 738 742 l 1
 682 517 l 1
 584 532 l 1
 608 761 l 1
292 110 m 0
 322 110 348 128 370 164 c 1
 370 386 l 1
 349 409 330 423 300 423 c 0xa7
 250 423 213 381 213 267 c 0
 213 137 246 110 292 110 c 0
EndSplineSet
Substitution2: "'smcp' Lowercase to Small Capitals lookup 27 subtable" dcaron.sc
Substitution2: "'aalt' Access All Alternates lookup 0 subtable" dcaron.sc
EndChar
StartChar: dcroat
Encoding: 273 273 396
Width: 610
GlyphClass: 2
Flags: MW
HStem: -18 128<163.5 307> 0 21G<390 548 390 390> 423 128<275 276 184 315> 593 99<240 370 240 370 548 606> 723 20G<548 548> 741 20G<370 370>
VStem: 30 183<202 324 202 350.5> 370 178<164 386 386 386 505 593 0 593 692 743 0 761 0 761>
AnchorPoint: "Anchor-14" 301 266 basechar 0
AnchorPoint: "Anchor-13" 558 743 basechar 0
AnchorPoint: "Anchor-12" 297 743 basechar 0
AnchorPoint: "Anchor-11" 0 0 basechar 0
AnchorPoint: "Anchor-10" 308 0 basechar 0
LayerCount: 2
Back
Fore
SplineSet
548 692 m 1x77
 606 692 l 1
 606 593 l 1
 548 593 l 1
 548 0 l 1
 390 0 l 1x77
 383 59 l 1
 354 18 306 -18 232 -18 c 0
 95 -18 30 95 30 268 c 0
 30 433 114 551 254 551 c 0
 298 551 340 534 370 505 c 1
 370 593 l 1
 240 593 l 1
 240 692 l 1
 370 692 l 1
 370 761 l 1xb7
 548 743 l 1x7b
 548 692 l 1x77
292 110 m 0xb7
 322 110 348 128 370 164 c 1
 370 386 l 1
 349 409 330 423 300 423 c 0
 250 423 213 381 213 267 c 0
 213 137 246 110 292 110 c 0xb7
EndSplineSet
Substitution2: "'smcp' Lowercase to Small Capitals lookup 27 subtable" dcroat.sc
Substitution2: "'aalt' Access All Alternates lookup 0 subtable" dcroat.sc
EndChar

StartChar: Emacron
Encoding: 274 274 32
Width: 523
GlyphClass: 2
Flags: MW
HStem: 0 131<239 492 239 492> 289 127<239 446 239 446> 564 131<239 476 239 239> 777 121<117 432 117 432>
VStem: 54 185<131 289 416 564> 117 315<777 898 777 898>
AnchorPoint: "Anchor-11" 273 0 basechar 0
AnchorPoint: "Anchor-10" 52 695 basechar 0
AnchorPoint: "Anchor-9" 275 695 basechar 0
AnchorPoint: "Anchor-8" 462 0 basechar 0
LayerCount: 2
Fore
SplineSet
117 777 m 1xf4
 117 898 l 1
 432 898 l 1
 432 777 l 1
 117 777 l 1xf4
476 564 m 1
 239 564 l 1
 239 416 l 1
 446 416 l 1
 446 289 l 1
 239 289 l 1
 239 131 l 1
 492 131 l 1
 492 0 l 1
 54 0 l 1
 54 695 l 1xf8
 495 695 l 1
 476 564 l 1
EndSplineSet
Substitution2: "'c2sc' Capitals to Small Capitals lookup 23 subtable" emacron.sc
Substitution2: "'aalt' Access All Alternates lookup 0 subtable" emacron.sc
Position2: "'cpsp' Capital Spacing lookup 0 subtable" dx=5 dy=0 dh=10 dv=0
EndChar
StartChar: emacron
Encoding: 275 275 428
Width: 556
GlyphClass: 2
Flags: MW
HStem: -18 127<288 339.5 288 346.5> 215 104<205 360 205 532 205 360> 436 115<261.5 313.5> 652 121<126 441 126 441>
VStem: 25 180<215 215 215 319 215 343> 126 315<652 773 652 773> 360 175<319 325 325 325>
AnchorPoint: "Anchor-14" 0 0 basechar 0
AnchorPoint: "Anchor-13" 0 0 basechar 0
AnchorPoint: "Anchor-12" 284 747 basechar 0
AnchorPoint: "Anchor-11" 444 10 basechar 0
AnchorPoint: "Anchor-10" 294 0 basechar 0
LayerCount: 2
Back
Fore
SplineSet
441 773 m 1xf4
 441 652 l 1
 126 652 l 1
 126 773 l 1
 441 773 l 1xf4
535 275 m 0xfa
 535 258 533 233 532 215 c 1
 205 215 l 1
 216 129 257 109 319 109 c 0
 360 109 397 124 443 156 c 1
 515 58 l 1
 463 15 391 -18 302 -18 c 0
 115 -18 25 99 25 264 c 0
 25 422 112 551 282 551 c 0
 437 551 535 451 535 275 c 0xfa
360 319 m 1
 360 325 l 2
 359 389 342 436 285 436 c 0
 238 436 212 407 205 319 c 1
 360 319 l 1
EndSplineSet
Substitution2: "'smcp' Lowercase to Small Capitals lookup 27 subtable" emacron.sc
Substitution2: "'aalt' Access All Alternates lookup 0 subtable" emacron.sc
EndChar
StartChar: Ebreve
Encoding: 276 276 69
Width: 523
GlyphClass: 2
Flags: MW
HStem: 0 131<239 492 239 492> 289 127<239 446 239 446> 564 131<239 476 239 239> 748 122<252.5 298 252.5 331.5>
VStem: 54 185<131 289 416 564>
AnchorPoint: "Anchor-14" 0 0 basechar 0
AnchorPoint: "Anchor-13" 0 0 basechar 0
AnchorPoint: "Anchor-12" 278 939 basechar 0
AnchorPoint: "Anchor-11" 462 0 basechar 0
AnchorPoint: "Anchor-10" 273 0 basechar 0
LayerCount: 2
Back
Fore
SplineSet
275 748 m 0
 163 748 105 834 97 922 c 1
 192 939 l 1
 204 901 230 870 275 870 c 0
 321 870 348 901 359 939 c 1
 454 922 l 1
 446 834 388 748 275 748 c 0
495 695 m 1
 476 564 l 1
 239 564 l 1
 239 416 l 1
 446 416 l 1
 446 289 l 1
 239 289 l 1
 239 131 l 1
 492 131 l 1
 492 0 l 1
 54 0 l 1
 54 695 l 1
 495 695 l 1
EndSplineSet
Substitution2: "'c2sc' Capitals to Small Capitals lookup 26 subtable" ebreve.sc
Substitution2: "'aalt' Access All Alternates lookup 0 subtable" ebreve.sc
Position2: "'cpsp' Capital Spacing lookup 0 subtable" dx=5 dy=0 dh=10 dv=0
EndChar

StartChar: ebreve
Encoding: 277 277 159
Width: 556
GlyphClass: 2
Flags: MW
HStem: -18 127<288 339.5 288 346.5> 215 104<206 360 205 532 206 206> 436 115<261.5 313.5> 629 122<260.5 306 260.5 339.5>
VStem: 25 180<319 319 319 343> 360 175<319 325 325 325>
AnchorPoint: "Anchor-11" 294 0 basechar 0
AnchorPoint: "Anchor-10" 0 0 basechar 0
AnchorPoint: "Anchor-9" 284 533 basechar 0
AnchorPoint: "Anchor-8" 444 10 basechar 0
LayerCount: 2
Fore
SplineSet
283 629 m 0
 171 629 113 715 105 813 c 1
 200 830 l 1
 212 782 238 751 283 751 c 0
 329 751 356 782 367 830 c 1
 462 813 l 1
 454 715 396 629 283 629 c 0
535 275 m 0
 535 258 533 233 532 215 c 1
 206 215 l 1
 216 129 257 109 319 109 c 0
 360 109 397 124 443 156 c 1
 515 58 l 1
 463 15 391 -18 302 -18 c 0
 115 -18 25 99 25 264 c 0
 25 422 112 551 282 551 c 0
 437 551 535 451 535 275 c 0
360 319 m 1
 360 325 l 1
 359 389 342 436 285 436 c 0
 238 436 212 408 205 319 c 1
 360 319 l 1
EndSplineSet
Substitution2: "'smcp' Lowercase to Small Capitals lookup 24 subtable" ebreve.sc
Substitution2: "'aalt' Access All Alternates lookup 0 subtable" ebreve.sc
EndChar

StartChar: Edotaccent
Encoding: 278 278 30
Width: 523
GlyphClass: 2
Flags: MW
HStem: 0 131<239 492 239 492> 289 127<239 446 239 446> 564 131<239 476 239 239> 750 196<245 305>
VStem: 54 185<131 289 416 564> 173 204<820.5 875.5>
AnchorPoint: "Anchor-11" 273 0 basechar 0
AnchorPoint: "Anchor-10" 52 695 basechar 0
AnchorPoint: "Anchor-9" 275 695 basechar 0
AnchorPoint: "Anchor-8" 462 0 basechar 0
LayerCount: 2
Fore
SplineSet
275 946 m 0xf4
 335 946 377 903 377 848 c 0
 377 793 335 750 275 750 c 0
 215 750 173 793 173 848 c 0
 173 903 215 946 275 946 c 0xf4
476 564 m 1
 239 564 l 1
 239 416 l 1
 446 416 l 1
 446 289 l 1
 239 289 l 1
 239 131 l 1
 492 131 l 1
 492 0 l 1
 54 0 l 1
 54 695 l 1xe8
 495 695 l 1
 476 564 l 1
EndSplineSet
Substitution2: "'c2sc' Capitals to Small Capitals lookup 23 subtable" edotaccent.sc
Substitution2: "'aalt' Access All Alternates lookup 0 subtable" edotaccent.sc
Position2: "'cpsp' Capital Spacing lookup 0 subtable" dx=5 dy=0 dh=10 dv=0
EndChar

StartChar: edotaccent
Encoding: 279 279 163
Width: 556
GlyphClass: 2
Flags: MW
HStem: -18 127<288 339.5 288 346.5> 215 104<206 360 205 532 206 206> 436 115<261.5 313.5> 624 196<254 314>
VStem: 25 180<319 319 319 343> 182 204<694.5 749.5> 360 175<319 325 325 325>
AnchorPoint: "Anchor-11" 294 0 basechar 0
AnchorPoint: "Anchor-10" 0 0 basechar 0
AnchorPoint: "Anchor-9" 284 533 basechar 0
AnchorPoint: "Anchor-8" 444 10 basechar 0
LayerCount: 2
Fore
SplineSet
284 624 m 0xf4
 224 624 182 667 182 722 c 0
 182 777 224 820 284 820 c 0
 344 820 386 777 386 722 c 0
 386 667 344 624 284 624 c 0xf4
535 275 m 0xea
 535 258 533 233 532 215 c 1
 206 215 l 1
 216 129 257 109 319 109 c 0
 360 109 397 124 443 156 c 1
 515 58 l 1
 463 15 391 -18 302 -18 c 0
 115 -18 25 99 25 264 c 0
 25 422 112 551 282 551 c 0
 437 551 535 451 535 275 c 0xea
360 319 m 1
 360 325 l 1
 359 389 342 436 285 436 c 0
 238 436 212 408 205 319 c 1
 360 319 l 1
EndSplineSet
Substitution2: "'smcp' Lowercase to Small Capitals lookup 24 subtable" edotaccent.sc
Substitution2: "'aalt' Access All Alternates lookup 0 subtable" edotaccent.sc
EndChar
StartChar: Eogonek
Encoding: 280 280 86
Width: 523
GlyphClass: 2
Flags: MW
HStem: -250 107<370.5 378.5> 0 131<239 289 452 492 452 452> 289 127<239 446 239 446> 564 131<239 476 239 239>
VStem: 54 185<131 289 131 416 416 564> 212 123<-114 -101>
AnchorPoint: "Anchor-14" 0 0 basechar 0
AnchorPoint: "Anchor-13" 0 0 basechar 0
AnchorPoint: "Anchor-12" 275 695 basechar 0
AnchorPoint: "Anchor-11" 462 0 basechar 0
AnchorPoint: "Anchor-10" 273 0 basechar 0
LayerCount: 2
Back
Fore
SplineSet
239 289 m 1x78
 239 131 l 1x78
 492 131 l 1
 492 0 l 1
 452 0 l 1
 355 -34 335 -72 335 -99 c 0
 335 -129 354 -143 387 -143 c 0
 407 -143 426 -141 448 -136 c 1
 437 -242 l 1
 415 -247 392 -250 365 -250 c 0
 278 -250 212 -204 212 -129 c 0
 212 -73 241 -31 289 0 c 1xf4
 54 0 l 1
 54 695 l 1
 495 695 l 1
 476 564 l 1
 239 564 l 1
 239 416 l 1
 446 416 l 1
 446 289 l 1
 239 289 l 1x78
EndSplineSet
Substitution2: "'c2sc' Capitals to Small Capitals lookup 26 subtable" eogonek.sc
Substitution2: "'aalt' Access All Alternates lookup 0 subtable" eogonek.sc
Position2: "'cpsp' Capital Spacing lookup 0 subtable" dx=5 dy=0 dh=10 dv=0
EndChar
StartChar: eogonek
Encoding: 281 281 429
Width: 556
GlyphClass: 2
Flags: MW
HStem: -240 107<352.5 360.5> -16 21G 215 104<205 360 205 532 205 360> 436 115<261.5 313.5>
VStem: 25 180<215 215 215 319 215 343> 194 123<-104 -96> 360 175<319 325 325 325>
AnchorPoint: "Anchor-14" 0 0 basechar 0
AnchorPoint: "Anchor-13" 0 0 basechar 0
AnchorPoint: "Anchor-12" 284 533 basechar 0
AnchorPoint: "Anchor-11" 444 10 basechar 0
AnchorPoint: "Anchor-10" 294 0 basechar 0
LayerCount: 2
Back
Fore
SplineSet
535 275 m 0xfa
 535 258 533 233 532 215 c 1
 205 215 l 1
 216 129 257 109 319 109 c 0
 360 109 397 124 443 156 c 1
 515 58 l 1
 483 32 443 9 396 -5 c 1
 332 -35 317 -66 317 -89 c 0
 317 -119 336 -133 369 -133 c 0
 389 -133 408 -131 430 -126 c 1
 419 -232 l 1
 397 -237 374 -240 347 -240 c 0
 260 -240 194 -194 194 -119 c 0xf6
 194 -73 218 -40 257 -16 c 1
 101 2 25 113 25 264 c 0
 25 422 112 551 282 551 c 0
 437 551 535 451 535 275 c 0xfa
360 319 m 1
 360 325 l 2
 359 389 342 436 285 436 c 0
 238 436 212 407 205 319 c 1
 360 319 l 1
EndSplineSet
Substitution2: "'smcp' Lowercase to Small Capitals lookup 27 subtable" eogonek.sc
Substitution2: "'aalt' Access All Alternates lookup 0 subtable" eogonek.sc
EndChar

StartChar: ecaron
Encoding: 283 283 160
Width: 556
GlyphClass: 2
Flags: MW
HStem: -18 127<288 339.5 288 346.5> 215 104<206 360 205 532 206 206> 436 115<261.5 313.5> 731 20G<87 87 481 481>
VStem: 25 180<319 319 319 343> 360 175<319 325 325 325>
AnchorPoint: "Anchor-11" 294 0 basechar 0
AnchorPoint: "Anchor-10" 0 0 basechar 0
AnchorPoint: "Anchor-9" 284 533 basechar 0
AnchorPoint: "Anchor-8" 444 10 basechar 0
LayerCount: 2
Fore
SplineSet
230 607 m 1
 87 751 l 1
 149 822 l 1
 284 728 l 1
 419 822 l 1
 481 751 l 1
 338 607 l 1
 230 607 l 1
535 275 m 0
 535 258 533 233 532 215 c 1
 206 215 l 1
 216 129 257 109 319 109 c 0
 360 109 397 124 443 156 c 1
 515 58 l 1
 463 15 391 -18 302 -18 c 0
 115 -18 25 99 25 264 c 0
 25 422 112 551 282 551 c 0
 437 551 535 451 535 275 c 0
360 319 m 1
 360 325 l 1
 359 389 342 436 285 436 c 0
 238 436 212 408 205 319 c 1
 360 319 l 1
EndSplineSet
Substitution2: "'smcp' Lowercase to Small Capitals lookup 24 subtable" ecaron.sc
Substitution2: "'aalt' Access All Alternates lookup 0 subtable" ecaron.sc
EndChar
StartChar: gbreve
Encoding: 287 287 454
Width: 561
GlyphClass: 2
Flags: MW
HStem: -224 115<223 311 223 357> -11 123<167.5 340 262 305> 161 114<269 296 252 351> 435 116<251 267 194.5 296> 476 75 629 122<257.5 303 257.5 336.5>
VStem: 1 159<-71.5 -50 -71.5 -50> 25 177<329.5 382 329.5 415.5> 343 167<331 373.5 287 385.5> 371 179<-70.5 -44.5>
AnchorPoint: "Anchor-14" 0 0 basechar 0
AnchorPoint: "Anchor-13" 0 0 basechar 0
AnchorPoint: "Anchor-12" 283 830 basechar 0
AnchorPoint: "Anchor-11" 0 0 basechar 0
AnchorPoint: "Anchor-10" 252 -213 basechar 0
LayerCount: 2
Back
Fore
SplineSet
280 629 m 0xf580
 168 629 110 715 102 813 c 1
 197 830 l 1
 209 782 235 751 280 751 c 0
 326 751 353 782 364 830 c 1
 459 813 l 1
 451 715 393 629 280 629 c 0xf580
521 627 m 1
 561 499 l 1
 525 484 476 476 408 476 c 1
 477 448 510 409 510 338 c 0xed80
 510 236 422 161 280 161 c 0
 258 161 240 162 221 166 c 1
 212 160 206 151 206 141 c 0
 206 128 212 112 262 112 c 2
 340 112 l 2
 469 112 550 47 550 -44 c 0
 550 -155 451 -224 263 -224 c 0
 53 -224 1 -154 1 -50 c 1
 160 -50 l 1
 160 -93 178 -109 268 -109 c 0
 354 -109 371 -84 371 -57 c 0
 371 -32 353 -11 305 -11 c 2xf640
 229 -11 l 2
 106 -11 57 37 57 95 c 0
 57 136 84 176 123 199 c 1
 52 237 25 285 25 353 c 0
 25 478 122 551 267 551 c 1
 382 547 455 585 521 627 c 1
272 435 m 0xf580
 230 435 202 407 202 357 c 0
 202 302 231 275 273 275 c 0
 319 275 343 303 343 359 c 0
 343 412 320 435 272 435 c 0xf580
EndSplineSet
Substitution2: "'smcp' Lowercase to Small Capitals lookup 27 subtable" gbreve.sc
Substitution2: "'aalt' Access All Alternates lookup 0 subtable" gbreve.sc
EndChar
StartChar: Hcircumflex
Encoding: 292 292 112
Width: 661
GlyphClass: 2
Flags: MW
HStem: 0 21G<54 239 54 54 423 608 423 423> 289 143<239 423 239 423> 675 20G<54 239 239 239 423 608 608 608>
VStem: 54 185<0 289 0 432 432 695> 423 185<0 289 289 289 432 695 0 695>
AnchorPoint: "Anchor-14" 331 347 basechar 0
AnchorPoint: "Anchor-13" 437 843 basechar 0
AnchorPoint: "Anchor-12" 331 959 basechar 0
AnchorPoint: "Anchor-11" 0 0 basechar 0
AnchorPoint: "Anchor-10" 331 0 basechar 0
LayerCount: 2
Back
Fore
SplineSet
466 753 m 1
 331 838 l 1
 196 753 l 1
 134 824 l 1
 277 959 l 1
 385 959 l 1
 528 824 l 1
 466 753 l 1
423 0 m 1
 423 289 l 1
 239 289 l 1
 239 0 l 1
 54 0 l 1
 54 695 l 1
 239 695 l 1
 239 432 l 1
 423 432 l 1
 423 695 l 1
 608 695 l 1
 608 0 l 1
 423 0 l 1
EndSplineSet
Substitution2: "'c2sc' Capitals to Small Capitals lookup 26 subtable" hcircumflex.sc
Substitution2: "'aalt' Access All Alternates lookup 0 subtable" hcircumflex.sc
Position2: "'cpsp' Capital Spacing lookup 0 subtable" dx=5 dy=0 dh=10 dv=0
EndChar
StartChar: hcircumflex
Encoding: 293 293 472
Width: 575
GlyphClass: 2
Flags: MW
HStem: 0 21G<52 230 52 52 350 528 350 350> 421 130<295.5 427> 531 20G<351.5 427> 723 20G<52 52> 741 20G<230 230>
VStem: 52 178<0 360 0 480 480 743 743 743> 350 178<0 359 359 383.5>
AnchorPoint: "Anchor-14" 287 266 basechar 0
AnchorPoint: "Anchor-13" 393 891 basechar 0
AnchorPoint: "Anchor-12" 287 1007 basechar 0
AnchorPoint: "Anchor-11" 0 0 basechar 0
AnchorPoint: "Anchor-10" 290 0 basechar 0
LayerCount: 2
Back
Fore
SplineSet
287 886 m 1xae
 152 801 l 1
 90 872 l 1
 233 1007 l 1
 341 1007 l 1
 484 872 l 1
 422 801 l 1
 287 886 l 1xae
382 551 m 0
 472 551 528 492 528 391 c 2
 528 0 l 1
 350 0 l 1
 350 359 l 2
 350 408 333 421 309 421 c 0
 282 421 255 400 230 360 c 1
 230 0 l 1
 52 0 l 1
 52 743 l 1xd6
 230 761 l 1
 230 480 l 1
 274 529 321 551 382 551 c 0
EndSplineSet
Substitution2: "'smcp' Lowercase to Small Capitals lookup 27 subtable" hcircumflex.sc
Substitution2: "'aalt' Access All Alternates lookup 0 subtable" hcircumflex.sc
EndChar

StartChar: Hbar
Encoding: 294 294 41
Width: 674
GlyphClass: 2
Flags: MW
HStem: 0 21G<60 245 60 60 429 614 429 429> 289 143<245 429 245 429> 497 99<7 60 7 60 245 429 614 668> 497 198<7 245 7 245 60 245 60 429>
VStem: 60 185<0 289 0 432 432 497 596 695> 429 185<0 289 289 289 432 497 0 497 596 695>
AnchorPoint: "Anchor-11" 0 0 basechar 0
AnchorPoint: "Anchor-10" 58 695 basechar 0
AnchorPoint: "Anchor-9" 338 695 basechar 0
AnchorPoint: "Anchor-8" 0 0 basechar 0
LayerCount: 2
Fore
SplineSet
668 497 m 1xdc
 614 497 l 1
 614 0 l 1
 429 0 l 1
 429 289 l 1
 245 289 l 1
 245 0 l 1
 60 0 l 1
 60 497 l 1
 7 497 l 1xdc
 7 596 l 1
 60 596 l 1xec
 60 695 l 1
 245 695 l 1xdc
 245 596 l 1
 429 596 l 1xec
 429 695 l 1
 614 695 l 1xdc
 614 596 l 1
 668 596 l 1xec
 668 497 l 1xdc
429 497 m 1
 245 497 l 1
 245 432 l 1
 429 432 l 1
 429 497 l 1
EndSplineSet
Substitution2: "'c2sc' Capitals to Small Capitals lookup 23 subtable" hbar.sc
Substitution2: "'aalt' Access All Alternates lookup 0 subtable" hbar.sc
Position2: "'cpsp' Capital Spacing lookup 0 subtable" dx=5 dy=0 dh=10 dv=0
EndChar

StartChar: Itilde
Encoding: 296 296 53
Width: 293
GlyphClass: 2
Flags: MW
HStem: 0 21G<54 239 54 54> 675 20G<54 239 239 239> 754 126<187 214.5 187 238> 798 126<78.5 107>
VStem: 54 185<0 695>
AnchorPoint: "Anchor-11" 0 0 basechar 0
AnchorPoint: "Anchor-10" 52 695 basechar 0
AnchorPoint: "Anchor-9" 146 695 basechar 0
AnchorPoint: "Anchor-8" 212 0 basechar 0
LayerCount: 2
Fore
SplineSet
208 754 m 0xe8
 142 754 123 798 91 798 c 0
 66 798 54 783 38 755 c 1
 -48 797 l 1
 -23 865 24 924 87 924 c 0xd8
 152 924 171 880 203 880 c 0
 226 880 239 894 255 923 c 1
 341 881 l 1
 315 811 268 754 208 754 c 0xe8
239 0 m 1xd8
 54 0 l 1
 54 695 l 1
 239 695 l 1
 239 0 l 1xd8
EndSplineSet
Substitution2: "'c2sc' Capitals to Small Capitals lookup 23 subtable" itilde.sc
Substitution2: "'aalt' Access All Alternates lookup 0 subtable" itilde.sc
Position2: "'cpsp' Capital Spacing lookup 0 subtable" dx=5 dy=0 dh=10 dv=0
EndChar
StartChar: itilde
Encoding: 297 297 497
Width: 282
GlyphClass: 2
Flags: MW
HStem: 0 21G<52 230 52 52> 513 20G<52 230 230 230> 628 126<181 208.5 181 230.5> 672 126<72.5 101>
VStem: 52 178<0 533 0 533>
AnchorPoint: "Anchor-14" 0 0 basechar 0
AnchorPoint: "Anchor-13" 0 0 basechar 0
AnchorPoint: "Anchor-12" 141 754 basechar 0
AnchorPoint: "Anchor-11" 208 0 basechar 0
AnchorPoint: "Anchor-10" 141 0 basechar 0
LayerCount: 2
Back
Fore
SplineSet
199 628 m 0xe8
 139 628 117 672 85 672 c 0
 60 672 48 657 32 629 c 1
 -54 671 l 1xd8
 -29 739 18 798 81 798 c 0
 143 798 165 754 197 754 c 0
 220 754 233 768 249 797 c 1
 335 755 l 1
 309 685 262 628 199 628 c 0xe8
230 533 m 1
 230 0 l 1
 52 0 l 1
 52 533 l 1
 230 533 l 1
EndSplineSet
Substitution2: "'smcp' Lowercase to Small Capitals lookup 27 subtable" itilde.sc
Substitution2: "'aalt' Access All Alternates lookup 0 subtable" itilde.sc
EndChar

StartChar: Imacron
Encoding: 298 298 51
Width: 293
GlyphClass: 2
Flags: MW
HStem: 0 21G<54 239 54 54> 675 20G<54 239 239 239> 777 121<-12 303 -12 303>
VStem: 54 185<0 695>
AnchorPoint: "Anchor-11" 0 0 basechar 0
AnchorPoint: "Anchor-10" 52 695 basechar 0
AnchorPoint: "Anchor-9" 146 695 basechar 0
AnchorPoint: "Anchor-8" 212 0 basechar 0
LayerCount: 2
Fore
SplineSet
-12 777 m 1
 -12 898 l 1
 303 898 l 1
 303 777 l 1
 -12 777 l 1
239 0 m 1
 54 0 l 1
 54 695 l 1
 239 695 l 1
 239 0 l 1
EndSplineSet
Substitution2: "'c2sc' Capitals to Small Capitals lookup 23 subtable" imacron.sc
Substitution2: "'aalt' Access All Alternates lookup 0 subtable" imacron.sc
Position2: "'cpsp' Capital Spacing lookup 0 subtable" dx=5 dy=0 dh=10 dv=0
EndChar

StartChar: imacron
Encoding: 299 299 185
Width: 282
GlyphClass: 2
Flags: MW
HStem: 0 21G<52 230 52 52> 513 20G<52 230 230 230> 652 121<-17 298 -17 298>
VStem: 52 178<0 533>
AnchorPoint: "Anchor-11" 0 0 basechar 0
AnchorPoint: "Anchor-10" 0 0 basechar 0
AnchorPoint: "Anchor-9" 141 533 basechar 0
AnchorPoint: "Anchor-8" 208 0 basechar 0
LayerCount: 2
Fore
SplineSet
-17 652 m 1
 -17 773 l 1
 298 773 l 1
 298 652 l 1
 -17 652 l 1
230 0 m 1
 52 0 l 1
 52 533 l 1
 230 533 l 1
 230 0 l 1
EndSplineSet
Substitution2: "'smcp' Lowercase to Small Capitals lookup 24 subtable" imacron.sc
Substitution2: "'aalt' Access All Alternates lookup 0 subtable" imacron.sc
EndChar
StartChar: Ibreve
Encoding: 300 300 121
Width: 293
GlyphClass: 2
Flags: MW
HStem: 0 21G<54 239 54 54> 675 20G<54 239 239 239> 748 122<122.5 168 122.5 201.5>
VStem: 54 185<0 695 0 695>
AnchorPoint: "Anchor-14" 0 0 basechar 0
AnchorPoint: "Anchor-13" 0 0 basechar 0
AnchorPoint: "Anchor-12" 148 939 basechar 0
AnchorPoint: "Anchor-11" 211 0 basechar 0
AnchorPoint: "Anchor-10" 146 0 basechar 0
LayerCount: 2
Back
Fore
SplineSet
145 748 m 0
 33 748 -25 834 -33 922 c 1
 62 939 l 1
 74 901 100 870 145 870 c 0
 191 870 218 901 229 939 c 1
 324 922 l 1
 316 834 258 748 145 748 c 0
239 695 m 1
 239 0 l 1
 54 0 l 1
 54 695 l 1
 239 695 l 1
EndSplineSet
Substitution2: "'c2sc' Capitals to Small Capitals lookup 26 subtable" ibreve.sc
Substitution2: "'aalt' Access All Alternates lookup 0 subtable" ibreve.sc
Position2: "'cpsp' Capital Spacing lookup 0 subtable" dx=5 dy=0 dh=10 dv=0
EndChar

StartChar: ibreve
Encoding: 301 301 179
Width: 282
GlyphClass: 2
Flags: MW
HStem: 0 21G<52 230 52 52> 513 20G<52 230 230 230> 629 122<117.5 163 117.5 196.5>
VStem: 52 178<0 533>
AnchorPoint: "Anchor-11" 0 0 basechar 0
AnchorPoint: "Anchor-10" 0 0 basechar 0
AnchorPoint: "Anchor-9" 141 533 basechar 0
AnchorPoint: "Anchor-8" 208 0 basechar 0
LayerCount: 2
Fore
SplineSet
140 629 m 0
 28 629 -30 715 -38 813 c 1
 57 830 l 1
 69 782 95 751 140 751 c 0
 186 751 213 782 224 830 c 1
 319 813 l 1
 311 715 253 629 140 629 c 0
230 0 m 1
 52 0 l 1
 52 533 l 1
 230 533 l 1
 230 0 l 1
EndSplineSet
Substitution2: "'smcp' Lowercase to Small Capitals lookup 24 subtable" ibreve.sc
Substitution2: "'aalt' Access All Alternates lookup 0 subtable" ibreve.sc
EndChar
StartChar: Iogonek
Encoding: 302 302 133
Width: 293
GlyphClass: 2
Flags: MW
HStem: -250 107<119.5 127.5> 0 21G<201 239 201 201> 675 20G<54 239 239 239>
VStem: -39 123<-114 -98> 54 185<10 695 0 695>
AnchorPoint: "Anchor-14" 0 0 basechar 0
AnchorPoint: "Anchor-13" 0 0 basechar 0
AnchorPoint: "Anchor-12" 146 695 basechar 0
AnchorPoint: "Anchor-11" 211 0 basechar 0
AnchorPoint: "Anchor-10" 146 0 basechar 0
LayerCount: 2
Back
Fore
SplineSet
54 695 m 1xe8
 239 695 l 1
 239 0 l 1xe8
 201 0 l 1
 104 -34 84 -72 84 -99 c 0
 84 -129 103 -143 136 -143 c 0xf0
 156 -143 175 -141 197 -136 c 1
 186 -242 l 1xe8
 164 -247 141 -250 114 -250 c 0
 27 -250 -39 -204 -39 -129 c 0xf0
 -39 -67 -3 -22 54 10 c 1
 54 695 l 1xe8
EndSplineSet
Substitution2: "'c2sc' Capitals to Small Capitals lookup 26 subtable" iogonek.sc
Substitution2: "'aalt' Access All Alternates lookup 0 subtable" iogonek.sc
Position2: "'cpsp' Capital Spacing lookup 0 subtable" dx=5 dy=0 dh=10 dv=0
EndChar
StartChar: iogonek
Encoding: 303 303 494
Width: 282
GlyphClass: 2
Flags: MW
HStem: -250 107<116.5 124.5> 0 21G<198 230 198 198> 513 20G<52 230 230 230> 624 196<111 171>
VStem: -42 123<-114 -97.5> 39 204<694.5 749.5> 52 178<11 533 0 533>
AnchorPoint: "Anchor-14" 0 0 basechar 0
AnchorPoint: "Anchor-13" 0 0 basechar 0
AnchorPoint: "Anchor-12" 143 820 basechar 0
AnchorPoint: "Anchor-11" 208 0 basechar 0
AnchorPoint: "Anchor-10" 141 0 basechar 0
LayerCount: 2
Back
Fore
SplineSet
141 624 m 0xf4
 81 624 39 667 39 722 c 0
 39 777 81 820 141 820 c 0
 201 820 243 777 243 722 c 0
 243 667 201 624 141 624 c 0xf4
52 11 m 1xf2
 52 533 l 1
 230 533 l 1
 230 0 l 1xf2
 198 0 l 1
 101 -34 81 -72 81 -99 c 0
 81 -129 100 -143 133 -143 c 0xf8
 153 -143 172 -141 194 -136 c 1
 183 -242 l 1xf2
 161 -247 138 -250 111 -250 c 0
 24 -250 -42 -204 -42 -129 c 0xf8
 -42 -66 -6 -22 52 11 c 1xf2
EndSplineSet
Substitution2: "'smcp' Lowercase to Small Capitals lookup 27 subtable" iogonek.sc
Substitution2: "'aalt' Access All Alternates lookup 0 subtable" iogonek.sc
EndChar
StartChar: Idotaccent
Encoding: 304 304 127
Width: 293
GlyphClass: 2
Flags: MW
HStem: 0 21G<54 239 54 54> 675 20G<54 239 239 239> 750 196<116 176>
VStem: 44 204<820.5 875.5> 54 185<0 695 0 695>
AnchorPoint: "Anchor-14" 0 0 basechar 0
AnchorPoint: "Anchor-13" 0 0 basechar 0
AnchorPoint: "Anchor-12" 148 946 basechar 0
AnchorPoint: "Anchor-11" 211 0 basechar 0
AnchorPoint: "Anchor-10" 146 0 basechar 0
LayerCount: 2
Back
Fore
SplineSet
146 946 m 0xf0
 206 946 248 903 248 848 c 0
 248 793 206 750 146 750 c 0
 86 750 44 793 44 848 c 0
 44 903 86 946 146 946 c 0xf0
239 695 m 1xe8
 239 0 l 1
 54 0 l 1
 54 695 l 1
 239 695 l 1xe8
EndSplineSet
Substitution2: "'c2sc' Capitals to Small Capitals lookup 26 subtable" i.sc.loclTRK
Substitution2: "'aalt' Access All Alternates lookup 0 subtable" i.sc.loclTRK
Position2: "'cpsp' Capital Spacing lookup 0 subtable" dx=5 dy=0 dh=10 dv=0
EndChar

StartChar: dotlessi
Encoding: 305 305 177
Width: 282
GlyphClass: 2
Flags: MW
HStem: 0 21G<52 230 52 52> 513 20G<52 230 230 230>
VStem: 52 178<0 533>
AnchorPoint: "Anchor-11" 0 0 basechar 0
AnchorPoint: "Anchor-10" 0 0 basechar 0
AnchorPoint: "Anchor-9" 141 533 basechar 0
AnchorPoint: "Anchor-8" 208 0 basechar 0
LayerCount: 2
Fore
SplineSet
230 0 m 1
 52 0 l 1
 52 533 l 1
 230 533 l 1
 230 0 l 1
EndSplineSet
Substitution2: "'smcp' Lowercase to Small Capitals lookup 24 subtable" dotlessi.sc
Substitution2: "'aalt' Access All Alternates lookup 0 subtable" dotlessi.sc
EndChar

StartChar: IJ
Encoding: 306 306 44
Width: 614
GlyphClass: 2
Flags: MW
HStem: 0 21G<54 239 54 54> 675 20G<54 239 239 239 378 563 563 563>
VStem: 54 185<0 695> 378 185<115 695>
AnchorPoint: "Anchor-11" 0 0 basechar 0
AnchorPoint: "Anchor-10" 52 695 basechar 0
AnchorPoint: "Anchor-9" 471 695 basechar 0
AnchorPoint: "Anchor-8" 212 0 basechar 0
LayerCount: 2
Fore
SplineSet
239 0 m 1
 54 0 l 1
 54 695 l 1
 239 695 l 1
 239 0 l 1
563 108 m 2
 563 -76 446 -140 327 -179 c 1
 278 -49 l 1
 367 -14 378 35 378 115 c 2
 378 695 l 1
 563 695 l 1
 563 108 l 2
EndSplineSet
Substitution2: "'c2sc' Capitals to Small Capitals lookup 23 subtable" ij.sc
Substitution2: "'aalt' Access All Alternates lookup 0 subtable" ij.sc
Position2: "'cpsp' Capital Spacing lookup 0 subtable" dx=5 dy=0 dh=10 dv=0
EndChar

StartChar: ij
Encoding: 307 307 184
Width: 564
GlyphClass: 2
Flags: MW
HStem: -224 21G<284 284> 0 21G<52 230 52 52> 513 20G<52 230 230 230 334 512 512 512> 624 196<111 171 392 452>
VStem: 39 204<694.5 749.5> 52 178<0 533> 320 204<694.5 749.5> 334 178<58 69 69 533>
AnchorPoint: "Anchor-11" 0 0 basechar 0
AnchorPoint: "Anchor-10" 0 0 basechar 0
AnchorPoint: "Anchor-9" 423 533 basechar 0
AnchorPoint: "Anchor-8" 208 0 basechar 0
LayerCount: 2
Fore
SplineSet
141 820 m 0xfa
 201 820 243 777 243 722 c 0
 243 667 201 624 141 624 c 0
 81 624 39 667 39 722 c 0
 39 777 81 820 141 820 c 0xfa
422 820 m 0
 482 820 524 777 524 722 c 0
 524 667 482 624 422 624 c 0
 362 624 320 667 320 722 c 0
 320 777 362 820 422 820 c 0
230 0 m 1xf5
 52 0 l 1
 52 533 l 1
 230 533 l 1
 230 0 l 1xf5
512 69 m 2
 512 -112 412 -180 284 -224 c 1
 224 -95 l 1
 291 -64 334 -34 334 58 c 2
 334 533 l 1
 512 533 l 1
 512 69 l 2
EndSplineSet
Substitution2: "'smcp' Lowercase to Small Capitals lookup 24 subtable" ij.sc
Substitution2: "'aalt' Access All Alternates lookup 0 subtable" ij.sc
EndChar
StartChar: Jcircumflex
Encoding: 308 308 138
Width: 321
GlyphClass: 2
Flags: MW
HStem: 675 20G<85 270 270 270>
VStem: 85 185<115 695>
AnchorPoint: "Anchor-14" 0 0 basechar 0
AnchorPoint: "Anchor-13" 284 843 basechar 0
AnchorPoint: "Anchor-12" 178 959 basechar 0
AnchorPoint: "Anchor-11" 0 0 basechar 0
AnchorPoint: "Anchor-10" 0 0 basechar 0
LayerCount: 2
Back
Fore
SplineSet
313 753 m 1
 178 838 l 1
 43 753 l 1
 -19 824 l 1
 124 959 l 1
 232 959 l 1
 375 824 l 1
 313 753 l 1
270 695 m 1
 270 108 l 2
 270 -76 153 -140 34 -179 c 1
 -15 -49 l 1
 74 -14 85 35 85 115 c 2
 85 695 l 1
 270 695 l 1
EndSplineSet
Substitution2: "'c2sc' Capitals to Small Capitals lookup 26 subtable" jcircumflex.sc
Substitution2: "'aalt' Access All Alternates lookup 0 subtable" jcircumflex.sc
Position2: "'cpsp' Capital Spacing lookup 0 subtable" dx=5 dy=0 dh=10 dv=0
EndChar
StartChar: Kcommaaccent
Encoding: 310 310 142
Width: 646
GlyphClass: 2
Flags: MW
HStem: -219 21G<277 277> 0 21G<54 239 54 54 450 450 450 662> 675 20G<54 239 239 239 451 644 644 644>
VStem: 54 185<0 695 0 695> 242 171<-163.5 -126>
AnchorPoint: "Anchor-14" 0 0 basechar 0
AnchorPoint: "Anchor-13" 0 0 basechar 0
AnchorPoint: "Anchor-12" 330 695 basechar 0
AnchorPoint: "Anchor-11" 0 0 basechar 0
AnchorPoint: "Anchor-10" 327 0 basechar 0
LayerCount: 2
Back
Fore
SplineSet
239 695 m 1
 239 0 l 1
 54 0 l 1
 54 695 l 1
 239 695 l 1
644 695 m 1
 435 385 l 1
 662 0 l 1
 450 0 l 1
 245 370 l 1
 451 695 l 1
 644 695 l 1
328 -65 m 0xe8
 377 -65 413 -101 413 -149 c 0
 413 -178 404 -198 386 -235 c 2
 338 -333 l 1
 252 -333 l 1
 277 -219 l 1
 257 -203 242 -180 242 -149 c 0
 242 -103 278 -65 328 -65 c 0xe8
EndSplineSet
Substitution2: "'c2sc' Capitals to Small Capitals lookup 26 subtable" kcommaaccent.sc
Substitution2: "'aalt' Access All Alternates lookup 0 subtable" kcommaaccent.sc
Position2: "'cpsp' Capital Spacing lookup 0 subtable" dx=5 dy=0 dh=10 dv=0
EndChar
StartChar: kcommaaccent
Encoding: 311 311 508
Width: 564
GlyphClass: 2
Flags: MW
HStem: -219 21G<232 232> 0 21G<52 230 52 52 378 378 378 576> 513 20G<387 565 565 565> 723 20G<52 52> 741 20G<230 230>
VStem: 52 178<0 743 743 743> 197 171<-163.5 -126>
AnchorPoint: "Anchor-14" 0 0 basechar 0
AnchorPoint: "Anchor-13" 0 0 basechar 0
AnchorPoint: "Anchor-12" 302 743 basechar 0
AnchorPoint: "Anchor-11" 0 0 basechar 0
AnchorPoint: "Anchor-10" 282 0 basechar 0
LayerCount: 2
Back
Fore
SplineSet
230 761 m 1xec
 230 0 l 1
 52 0 l 1
 52 743 l 1xf4
 230 761 l 1xec
565 533 m 1
 414 299 l 1
 576 0 l 1
 378 0 l 1
 234 291 l 1
 387 533 l 1
 565 533 l 1
283 -65 m 0xea
 332 -65 368 -101 368 -149 c 0
 368 -178 359 -198 341 -235 c 2
 293 -333 l 1
 207 -333 l 1
 232 -219 l 1
 212 -203 197 -180 197 -149 c 0
 197 -103 233 -65 283 -65 c 0xea
EndSplineSet
Substitution2: "'smcp' Lowercase to Small Capitals lookup 27 subtable" kcommaaccent.sc
Substitution2: "'aalt' Access All Alternates lookup 0 subtable" kcommaaccent.sc
EndChar
StartChar: kgreenlandic
Encoding: 312 312 509
Width: 563
GlyphClass: 2
Flags: MW
HStem: 0 21G<52 230 52 52 377 377 377 576> 513 20G<52 230 230 230 386 565 565 565>
VStem: 52 178<0 533 0 533>
LayerCount: 2
Back
Fore
SplineSet
230 533 m 1
 230 0 l 1
 52 0 l 1
 52 533 l 1
 230 533 l 1
565 533 m 1
 414 289 l 1
 576 0 l 1
 377 0 l 1
 234 281 l 1
 386 533 l 1
 565 533 l 1
EndSplineSet
Substitution2: "'smcp' Lowercase to Small Capitals lookup 27 subtable" kgreenlandic.sc
Substitution2: "'aalt' Access All Alternates lookup 0 subtable" kgreenlandic.sc
EndChar

StartChar: Lacute
Encoding: 313 313 59
Width: 517
GlyphClass: 2
Flags: MW
HStem: 0 144<239 486> 675 20G<54 239 239 239>
VStem: 54 185<144 144 144 695>
AnchorPoint: "Anchor-11" 270 0 basechar 0
AnchorPoint: "Anchor-10" 0 0 basechar 0
AnchorPoint: "Anchor-9" 146 695 basechar 0
AnchorPoint: "Anchor-8" 0 0 basechar 0
LayerCount: 2
Fore
SplineSet
289 839 m 1
 42 750 l 1
 -3 840 l 1
 222 970 l 1
 289 839 l 1
239 144 m 1
 506 144 l 1
 486 0 l 1
 54 0 l 1
 54 695 l 1
 239 695 l 1
 239 144 l 1
EndSplineSet
Substitution2: "'c2sc' Capitals to Small Capitals lookup 23 subtable" lacute.sc
Substitution2: "'aalt' Access All Alternates lookup 0 subtable" lacute.sc
Position2: "'cpsp' Capital Spacing lookup 0 subtable" dx=5 dy=0 dh=10 dv=0
EndChar

StartChar: lacute
Encoding: 314 314 195
Width: 299
GlyphClass: 2
Flags: MW
HStem: -18 21G<150.5 218> -18 140<150.5 253.5> 0 21G<307 307> 723 20G<47 47> 741 20G<225 225>
VStem: 47 178<147 162 162 743 743 743>
AnchorPoint: "Anchor-11" 179 0 basechar 0
AnchorPoint: "Anchor-10" 0 0 basechar 0
AnchorPoint: "Anchor-9" 136 743 basechar 0
AnchorPoint: "Anchor-8" 0 0 basechar 0
LayerCount: 2
Fore
SplineSet
278 887 m 1x2c
 31 798 l 1
 -14 888 l 1
 211 1018 l 1
 278 887 l 1x2c
225 162 m 2x4c
 225 132 235 122 250 122 c 0
 257 122 267 124 274 126 c 1x4c
 307 0 l 1
 280 -11 238 -18 198 -18 c 0
 103 -18 47 38 47 142 c 2
 47 743 l 1x94
 225 761 l 1
 225 162 l 2x4c
EndSplineSet
Substitution2: "'smcp' Lowercase to Small Capitals lookup 24 subtable" lacute.sc
Substitution2: "'aalt' Access All Alternates lookup 0 subtable" lacute.sc
EndChar

StartChar: Lcommaaccent
Encoding: 315 315 61
Width: 517
GlyphClass: 2
Flags: MW
HStem: -219 21G<220 220> 0 144<239 486> 675 20G<54 239 239 239>
VStem: 54 185<144 144 144 695> 185 171<-163.5 -126>
AnchorPoint: "Anchor-11" 270 0 basechar 0
AnchorPoint: "Anchor-10" 0 0 basechar 0
AnchorPoint: "Anchor-9" 146 695 basechar 0
AnchorPoint: "Anchor-8" 0 0 basechar 0
LayerCount: 2
Fore
SplineSet
239 144 m 1xf0
 506 144 l 1
 486 0 l 1
 54 0 l 1
 54 695 l 1
 239 695 l 1
 239 144 l 1xf0
271 -65 m 0xe8
 320 -65 356 -101 356 -149 c 0
 356 -178 347 -198 329 -235 c 2
 281 -333 l 1
 195 -333 l 1
 220 -219 l 1
 200 -203 185 -180 185 -149 c 0
 185 -103 221 -65 271 -65 c 0xe8
EndSplineSet
Substitution2: "'c2sc' Capitals to Small Capitals lookup 23 subtable" lcommaaccent.sc
Substitution2: "'aalt' Access All Alternates lookup 0 subtable" lcommaaccent.sc
Position2: "'cpsp' Capital Spacing lookup 0 subtable" dx=5 dy=0 dh=10 dv=0
EndChar
StartChar: lcommaaccent
Encoding: 316 316 519
Width: 299
GlyphClass: 2
Flags: MW
HStem: -219 21G<135 135> -18 21G<154 225> -18 140<154 255.5> 0 21G<307 307> 723 20G<47 47> 741 20G<225 225>
VStem: 47 178<145 151 151 743 743 743> 100 171<-163.5 -126>
AnchorPoint: "Anchor-14" 372 374 basechar 0
AnchorPoint: "Anchor-13" 235 743 basechar 0
AnchorPoint: "Anchor-12" 136 743 basechar 0
AnchorPoint: "Anchor-11" 0 0 basechar 0
AnchorPoint: "Anchor-10" 184 0 basechar 0
LayerCount: 2
Back
Fore
SplineSet
204 -18 m 0xc6
 104 -18 47 40 47 145 c 2
 47 743 l 1x9a
 225 761 l 1
 225 151 l 2
 225 132 233 122 251 122 c 0
 260 122 268 124 274 126 c 1xa6
 307 0 l 1
 282 -11 246 -18 204 -18 c 0xc6
186 -65 m 0x95
 235 -65 271 -101 271 -149 c 0
 271 -178 262 -198 244 -235 c 2
 196 -333 l 1
 110 -333 l 1
 135 -219 l 1
 115 -203 100 -180 100 -149 c 0
 100 -103 136 -65 186 -65 c 0x95
EndSplineSet
Substitution2: "'smcp' Lowercase to Small Capitals lookup 27 subtable" lcommaaccent.sc
Substitution2: "'aalt' Access All Alternates lookup 0 subtable" lcommaaccent.sc
EndChar
StartChar: Lcaron
Encoding: 317 317 148
Width: 517
GlyphClass: 2
Flags: MW
HStem: 0 144<239 486> 675 20G<54 239 239 239> 693 20G<301 301>
VStem: 54 185<144 695 144 695 144 695>
AnchorPoint: "Anchor-14" 401 401 basechar 0
AnchorPoint: "Anchor-13" 251 695 basechar 0
AnchorPoint: "Anchor-12" 146 695 basechar 0
AnchorPoint: "Anchor-11" 0 0 basechar 0
AnchorPoint: "Anchor-10" 270 0 basechar 0
LayerCount: 2
Back
Fore
SplineSet
301 713 m 1xb0
 431 694 l 1
 375 469 l 1
 277 484 l 1
 301 713 l 1xb0
239 695 m 1xd0
 239 144 l 1
 506 144 l 1
 486 0 l 1
 54 0 l 1
 54 695 l 1
 239 695 l 1xd0
EndSplineSet
Substitution2: "'c2sc' Capitals to Small Capitals lookup 26 subtable" lcaron.sc
Substitution2: "'aalt' Access All Alternates lookup 0 subtable" lcaron.sc
Position2: "'cpsp' Capital Spacing lookup 0 subtable" dx=5 dy=0 dh=10 dv=0
EndChar

StartChar: lcaron
Encoding: 318 318 196
Width: 448
GlyphClass: 2
Flags: MW
HStem: -18 21G<150.5 218> -18 140<150.5 253.5> 0 21G<307 307> 723 20G<47 47> 738 20G<303 303> 741 20G<225 225>
VStem: 47 178<147 162 162 743 743 743>
AnchorPoint: "Anchor-11" 179 0 basechar 0
AnchorPoint: "Anchor-10" 0 0 basechar 0
AnchorPoint: "Anchor-9" 136 743 basechar 0
AnchorPoint: "Anchor-8" 0 0 basechar 0
LayerCount: 2
Fore
SplineSet
225 162 m 2x46
 225 132 235 122 250 122 c 0
 257 122 267 124 274 126 c 1x46
 307 0 l 1
 280 -11 238 -18 198 -18 c 0
 103 -18 47 38 47 142 c 2
 47 743 l 1x92
 225 761 l 1
 225 162 l 2x46
433 742 m 1
 385 517 l 1
 296 525 l 1
 303 758 l 1x2a
 433 742 l 1
EndSplineSet
Substitution2: "'smcp' Lowercase to Small Capitals lookup 24 subtable" lcaron.sc
Substitution2: "'aalt' Access All Alternates lookup 0 subtable" lcaron.sc
EndChar
StartChar: Ldot
Encoding: 319 319 151
Width: 517
GlyphClass: 2
Flags: MW
HStem: 0 144<239 486> 305 196<372 432> 675 20G<54 239 239 239>
VStem: 54 185<144 695 144 695 144 695> 300 204<375.5 430.5>
AnchorPoint: "Anchor-14" 401 401 basechar 0
AnchorPoint: "Anchor-13" 251 695 basechar 0
AnchorPoint: "Anchor-12" 404 501 basechar 0
AnchorPoint: "Anchor-11" 0 0 basechar 0
AnchorPoint: "Anchor-10" 270 0 basechar 0
LayerCount: 2
Back
Fore
SplineSet
239 695 m 1
 239 144 l 1
 506 144 l 1
 486 0 l 1
 54 0 l 1
 54 695 l 1
 239 695 l 1
402 501 m 0
 462 501 504 458 504 403 c 0
 504 348 462 305 402 305 c 0
 342 305 300 348 300 403 c 0
 300 458 342 501 402 501 c 0
EndSplineSet
Ligature2: "Ligature Substitution lookup 40 subtable" L periodcentered
Substitution2: "'c2sc' Capitals to Small Capitals lookup 26 subtable" ldot.sc
Substitution2: "'aalt' Access All Alternates lookup 0 subtable" ldot.sc
Position2: "'cpsp' Capital Spacing lookup 0 subtable" dx=5 dy=0 dh=10 dv=0
EndChar
StartChar: ldot
Encoding: 320 320 521
Width: 475
GlyphClass: 2
Flags: MW
HStem: -18 21G<154 225> -18 140<154 255.5> 0 21G<307 307> 278 196<343 403> 723 20G<47 47> 741 20G<225 225>
VStem: 47 178<145 151 151 743 743 743> 271 204<348.5 403.5>
AnchorPoint: "Anchor-14" 372 374 basechar 0
AnchorPoint: "Anchor-13" 235 743 basechar 0
AnchorPoint: "Anchor-12" 375 474 basechar 0
AnchorPoint: "Anchor-11" 0 0 basechar 0
AnchorPoint: "Anchor-10" 184 0 basechar 0
LayerCount: 2
Back
Fore
SplineSet
204 -18 m 0x96
 104 -18 47 40 47 145 c 2
 47 743 l 1x3a
 225 761 l 1
 225 151 l 2
 225 132 233 122 251 122 c 0
 260 122 268 124 274 126 c 1x56
 307 0 l 1
 282 -11 246 -18 204 -18 c 0x96
373 474 m 0x37
 433 474 475 431 475 376 c 0
 475 321 433 278 373 278 c 0
 313 278 271 321 271 376 c 0
 271 431 313 474 373 474 c 0x37
EndSplineSet
Ligature2: "Ligature Substitution lookup 40 subtable" l periodcentered
Substitution2: "'smcp' Lowercase to Small Capitals lookup 27 subtable" ldot.sc
Substitution2: "'aalt' Access All Alternates lookup 0 subtable" ldot.sc
EndChar

StartChar: Lslash
Encoding: 321 321 63
Width: 564
GlyphClass: 2
Flags: MW
HStem: 0 144<286 533> 513 20G<403 403> 675 20G<101 286 286 286>
VStem: 101 185<144 215 215 215 461 695>
AnchorPoint: "Anchor-11" 317 0 basechar 0
AnchorPoint: "Anchor-10" 0 0 basechar 0
AnchorPoint: "Anchor-9" 193 695 basechar 0
AnchorPoint: "Anchor-8" 0 0 basechar 0
LayerCount: 2
Fore
SplineSet
552 144 m 1
 533 0 l 1
 101 0 l 1
 101 215 l 1
 62 191 l 1
 4 286 l 1
 101 346 l 1
 101 695 l 1
 286 695 l 1
 286 461 l 1
 403 533 l 1
 463 439 l 1
 286 330 l 1
 286 144 l 1
 552 144 l 1
EndSplineSet
Substitution2: "'c2sc' Capitals to Small Capitals lookup 23 subtable" lslash.sc
Substitution2: "'aalt' Access All Alternates lookup 0 subtable" lslash.sc
Position2: "'cpsp' Capital Spacing lookup 0 subtable" dx=5 dy=0 dh=10 dv=0
EndChar

StartChar: lslash
Encoding: 322 322 199
Width: 358
GlyphClass: 2
Flags: MW
HStem: -18 21G<182 250> -18 140<182 285> 522 20G<316 316> 723 20G<78 78> 741 20G<256 256>
VStem: 78 178<147 162 162 263 263 263 505 743 743 743>
AnchorPoint: "Anchor-11" 210 0 basechar 0
AnchorPoint: "Anchor-10" 0 0 basechar 0
AnchorPoint: "Anchor-9" 167 743 basechar 0
AnchorPoint: "Anchor-8" 0 0 basechar 0
LayerCount: 2
Fore
SplineSet
281 122 m 0x6c
 289 122 299 124 305 126 c 1x6c
 338 0 l 1
 311 -11 270 -18 230 -18 c 0
 134 -18 78 38 78 142 c 2
 78 263 l 1
 34 236 l 1
 -8 343 l 1
 78 396 l 1
 78 743 l 1xb4
 256 761 l 1
 256 505 l 1
 316 542 l 1
 356 433 l 1
 256 372 l 1
 256 162 l 2
 256 132 266 122 281 122 c 0x6c
EndSplineSet
Substitution2: "'smcp' Lowercase to Small Capitals lookup 24 subtable" lslash.sc
Substitution2: "'aalt' Access All Alternates lookup 0 subtable" lslash.sc
EndChar
StartChar: Nacute
Encoding: 323 323 161
Width: 657
GlyphClass: 2
Flags: MW
HStem: 0 21G<54 218 54 54 370 603 370 370> 0 170<464 464 464 603 370 464> 523 172<194 194> 675 20G<54 282 282 282 439 603 603 603>
VStem: 54 164<0 235 0 695> 439 164<443 695 0 695>
AnchorPoint: "Anchor-14" 0 0 basechar 0
AnchorPoint: "Anchor-13" 0 0 basechar 0
AnchorPoint: "Anchor-12" 333 970 basechar 0
AnchorPoint: "Anchor-11" 0 0 basechar 0
AnchorPoint: "Anchor-10" 329 0 basechar 0
LayerCount: 2
Back
Fore
SplineSet
410 970 m 1x9c
 477 839 l 1
 230 750 l 1
 185 840 l 1
 410 970 l 1x9c
603 695 m 1
 603 0 l 1
 370 0 l 1
 194 523 l 1xac
 203 457 218 364 218 235 c 2
 218 0 l 1
 54 0 l 1
 54 695 l 1
 282 695 l 1
 464 170 l 1x5c
 453 239 439 325 439 443 c 2
 439 695 l 1
 603 695 l 1
EndSplineSet
Substitution2: "'c2sc' Capitals to Small Capitals lookup 26 subtable" nacute.sc
Substitution2: "'locl' Localized Forms in Latin lookup 7 subtable" Nacute.loclPLK
AlternateSubs2: "'aalt' Access All Alternates lookup 1 subtable" Nacute.loclPLK nacute.sc
Position2: "'cpsp' Capital Spacing lookup 0 subtable" dx=5 dy=0 dh=10 dv=0
EndChar
StartChar: nacute
Encoding: 324 324 537
Width: 575
GlyphClass: 2
Flags: MW
HStem: 0 21G<52 230 52 52 350 528 350 350> 421 130<295.5 427> 513 20G<52 207 207 207> 531 20G<349.5 427>
VStem: 52 178<0 360 0 533 0 533> 350 178<0 359 359 383.5>
AnchorPoint: "Anchor-14" 0 0 basechar 0
AnchorPoint: "Anchor-13" 0 0 basechar 0
AnchorPoint: "Anchor-12" 292 846 basechar 0
AnchorPoint: "Anchor-11" 0 0 basechar 0
AnchorPoint: "Anchor-10" 287 0 basechar 0
LayerCount: 2
Back
Fore
SplineSet
430 714 m 1x9c
 186 618 l 1
 138 707 l 1
 362 846 l 1
 430 714 l 1x9c
382 551 m 0
 472 551 528 493 528 391 c 2
 528 0 l 1
 350 0 l 1
 350 359 l 2
 350 408 334 421 310 421 c 0
 281 421 255 400 230 360 c 1xcc
 230 0 l 1
 52 0 l 1
 52 533 l 1
 207 533 l 1xac
 220 473 l 1
 267 526 317 551 382 551 c 0
EndSplineSet
Substitution2: "'smcp' Lowercase to Small Capitals lookup 27 subtable" nacute.sc
Substitution2: "'locl' Localized Forms in Latin lookup 7 subtable" nacute.loclPLK
AlternateSubs2: "'aalt' Access All Alternates lookup 1 subtable" nacute.loclPLK nacute.sc
EndChar

StartChar: Ncommaaccent
Encoding: 325 325 68
Width: 657
GlyphClass: 2
Flags: MW
HStem: -219 21G<279 279> 0 21G<54 218 54 54 370 603 370 370> 0 170<464 464 464 603 370 464> 523 172<194 194> 675 20G<54 282 282 282 439 603 603 603>
VStem: 54 164<0 235 0 695> 244 171<-163.5 -126> 439 164<443 695>
AnchorPoint: "Anchor-11" 329 0 basechar 0
AnchorPoint: "Anchor-10" 0 0 basechar 0
AnchorPoint: "Anchor-9" 331 695 basechar 0
AnchorPoint: "Anchor-8" 0 0 basechar 0
LayerCount: 2
Fore
SplineSet
603 0 m 1xcd
 370 0 l 1
 194 523 l 1xd5
 203 457 218 364 218 235 c 2
 218 0 l 1
 54 0 l 1
 54 695 l 1
 282 695 l 1
 464 170 l 1xad
 453 239 439 325 439 443 c 2
 439 695 l 1
 603 695 l 1
 603 0 l 1xcd
330 -65 m 0xcf
 379 -65 415 -101 415 -149 c 0
 415 -178 406 -198 388 -235 c 2
 340 -333 l 1
 254 -333 l 1
 279 -219 l 1
 259 -203 244 -180 244 -149 c 0
 244 -103 280 -65 330 -65 c 0xcf
EndSplineSet
Substitution2: "'c2sc' Capitals to Small Capitals lookup 23 subtable" ncommaaccent.sc
Substitution2: "'aalt' Access All Alternates lookup 0 subtable" ncommaaccent.sc
Position2: "'cpsp' Capital Spacing lookup 0 subtable" dx=5 dy=0 dh=10 dv=0
EndChar
StartChar: ncommaaccent
Encoding: 326 326 542
Width: 575
GlyphClass: 2
Flags: MW
HStem: -219 21G<237 237> 0 21G<52 230 52 52 350 528 350 350> 421 130<295.5 427> 513 20G<52 207 207 207> 531 20G<349.5 427>
VStem: 52 178<0 360 0 533 0 533> 202 171<-163.5 -126> 350 178<0 359 359 383.5>
AnchorPoint: "Anchor-14" 0 0 basechar 0
AnchorPoint: "Anchor-13" 0 0 basechar 0
AnchorPoint: "Anchor-12" 292 533 basechar 0
AnchorPoint: "Anchor-11" 0 0 basechar 0
AnchorPoint: "Anchor-10" 287 0 basechar 0
LayerCount: 2
Back
Fore
SplineSet
382 551 m 0xcd
 472 551 528 493 528 391 c 2
 528 0 l 1
 350 0 l 1
 350 359 l 2
 350 408 334 421 310 421 c 0
 281 421 255 400 230 360 c 1xe5
 230 0 l 1
 52 0 l 1
 52 533 l 1
 207 533 l 1xd5
 220 473 l 1
 267 526 317 551 382 551 c 0xcd
288 -65 m 0xca
 337 -65 373 -101 373 -149 c 0
 373 -178 364 -198 346 -235 c 2
 298 -333 l 1
 212 -333 l 1
 237 -219 l 1
 217 -203 202 -180 202 -149 c 0
 202 -103 238 -65 288 -65 c 0xca
EndSplineSet
Substitution2: "'smcp' Lowercase to Small Capitals lookup 27 subtable" ncommaaccent.sc
Substitution2: "'aalt' Access All Alternates lookup 0 subtable" ncommaaccent.sc
EndChar

StartChar: Ncaron
Encoding: 327 327 67
Width: 657
GlyphClass: 2
Flags: MW
HStem: 0 21G<54 218 54 54 370 603 370 370> 0 170<464 464 464 603 370 464> 523 172<194 194> 675 20G<54 282 282 282 439 603 603 603>
VStem: 54 164<0 235 0 695> 439 164<443 695>
AnchorPoint: "Anchor-11" 329 0 basechar 0
AnchorPoint: "Anchor-10" 0 0 basechar 0
AnchorPoint: "Anchor-9" 331 695 basechar 0
AnchorPoint: "Anchor-8" 0 0 basechar 0
LayerCount: 2
Fore
SplineSet
528 883 m 1x9c
 385 748 l 1
 277 748 l 1
 134 883 l 1
 196 954 l 1
 331 869 l 1
 466 954 l 1
 528 883 l 1x9c
603 0 m 1
 370 0 l 1
 194 523 l 1xac
 203 457 218 364 218 235 c 2
 218 0 l 1
 54 0 l 1
 54 695 l 1
 282 695 l 1
 464 170 l 1x5c
 453 239 439 325 439 443 c 2
 439 695 l 1
 603 695 l 1
 603 0 l 1
EndSplineSet
Substitution2: "'c2sc' Capitals to Small Capitals lookup 23 subtable" ncaron.sc
Substitution2: "'aalt' Access All Alternates lookup 0 subtable" ncaron.sc
Position2: "'cpsp' Capital Spacing lookup 0 subtable" dx=5 dy=0 dh=10 dv=0
EndChar

StartChar: ncaron
Encoding: 328 328 204
Width: 575
GlyphClass: 2
Flags: MW
HStem: 0 21G<52 230 52 52 350 528 350 350> 421 130<295.5 427> 513 20G<52 207 207 207> 531 20G<349.5 427> 731 20G<95 95 489 489>
VStem: 52 178<0 360 0 533 0 533> 350 178<0 359 359 383.5>
AnchorPoint: "Anchor-11" 287 0 basechar 0
AnchorPoint: "Anchor-10" 0 0 basechar 0
AnchorPoint: "Anchor-9" 292 533 basechar 0
AnchorPoint: "Anchor-8" 0 0 basechar 0
LayerCount: 2
Fore
SplineSet
238 607 m 1x9e
 95 751 l 1
 157 822 l 1
 292 728 l 1
 427 822 l 1
 489 751 l 1
 346 607 l 1
 238 607 l 1x9e
382 551 m 0
 472 551 528 493 528 391 c 2
 528 0 l 1
 350 0 l 1
 350 359 l 2
 350 408 334 421 310 421 c 0
 281 421 255 400 230 360 c 1xce
 230 0 l 1
 52 0 l 1
 52 533 l 1
 207 533 l 1xae
 220 473 l 1
 267 526 317 551 382 551 c 0
EndSplineSet
Substitution2: "'smcp' Lowercase to Small Capitals lookup 24 subtable" ncaron.sc
Substitution2: "'aalt' Access All Alternates lookup 0 subtable" ncaron.sc
EndChar

StartChar: napostrophe
Encoding: 329 329 203
Width: 687
GlyphClass: 2
Flags: MW
HStem: 0 21G<149 327 149 149 446 624 446 446> 421 130<392 523.5> 513 20G<61 135 61 61 149 304 304 304> 531 20G<445.5 523.5> 741 20G<105.5 147>
VStem: 53 147<677 708.5> 149 178<0 360 0 533 0 533> 446 178<0 359 359 383.5>
AnchorPoint: "Anchor-11" 384 0 basechar 0
AnchorPoint: "Anchor-10" 0 0 basechar 0
AnchorPoint: "Anchor-9" 389 533 basechar 0
AnchorPoint: "Anchor-8" 0 0 basechar 0
LayerCount: 2
Fore
SplineSet
200 689 m 0x9d
 200 665 192 646 176 615 c 2
 135 533 l 1
 61 533 l 1
 83 629 l 1
 66 643 53 662 53 689 c 0
 53 728 85 761 126 761 c 0
 168 761 200 730 200 689 c 0x9d
478 551 m 0
 569 551 624 493 624 391 c 2
 624 0 l 1
 446 0 l 1
 446 359 l 2
 446 408 430 421 406 421 c 0
 378 421 352 400 327 360 c 1xcb
 327 0 l 1
 149 0 l 1
 149 533 l 1
 304 533 l 1xab
 317 473 l 1
 364 526 413 551 478 551 c 0
EndSplineSet
Substitution2: "'smcp' Lowercase to Small Capitals lookup 24 subtable" napostrophe.sc
Substitution2: "'aalt' Access All Alternates lookup 0 subtable" napostrophe.sc
EndChar

StartChar: Eng
Encoding: 330 330 69
Width: 657
GlyphClass: 2
Flags: MW
HStem: -224 21G<375 375> 0 21G<54 218 54 54 370 434 370 370> 514 181<190 194 190 190> 675 20G<54 283 283 283 439 603 603 603>
VStem: 54 164<0 235 0 695> 439 164<443 695>
AnchorPoint: "Anchor-11" 264 0 basechar 0
AnchorPoint: "Anchor-10" 0 0 basechar 0
AnchorPoint: "Anchor-9" 264 565 basechar 0
AnchorPoint: "Anchor-8" 0 0 basechar 0
LayerCount: 2
Fore
SplineSet
603 695 m 1xdc
 603 69 l 2
 603 -112 504 -180 375 -224 c 1
 321 -105 l 1
 385 -78 421 -56 434 0 c 1
 370 0 l 1
 194 514 l 1
 190 514 l 1xec
 202 457 218 364 218 235 c 2
 218 0 l 1
 54 0 l 1
 54 695 l 1
 283 695 l 1
 463 180 l 1
 467 180 l 1
 453 239 439 325 439 443 c 2
 439 695 l 1
 603 695 l 1xdc
EndSplineSet
Substitution2: "'c2sc' Capitals to Small Capitals lookup 23 subtable" eng.sc
Substitution2: "'aalt' Access All Alternates lookup 0 subtable" eng.sc
Position2: "'cpsp' Capital Spacing lookup 0 subtable" dx=5 dy=0 dh=10 dv=0
EndChar

StartChar: eng
Encoding: 331 331 206
Width: 575
GlyphClass: 2
Flags: MW
HStem: -224 21G<300 300> 0 21G<52 230 52 52> 421 130<295 427> 513 20G<52 207 207 207> 531 20G<349.5 427>
VStem: 52 178<0 360 0 533 0 533> 350 178<58 69 69 359 359 383.5>
LayerCount: 2
Fore
SplineSet
382 551 m 0xce
 472 551 528 492 528 391 c 2
 528 69 l 2
 528 -112 428 -180 300 -224 c 1
 240 -95 l 1
 307 -64 350 -34 350 58 c 2
 350 359 l 2
 350 408 333 421 309 421 c 0
 281 421 255 400 230 360 c 1xe6
 230 0 l 1
 52 0 l 1
 52 533 l 1
 207 533 l 1xd6
 220 473 l 1
 267 526 317 551 382 551 c 0xce
EndSplineSet
Substitution2: "'smcp' Lowercase to Small Capitals lookup 24 subtable" eng.sc
Substitution2: "'aalt' Access All Alternates lookup 0 subtable" eng.sc
EndChar

StartChar: omacron
Encoding: 333 333 215
Width: 584
GlyphClass: 2
Flags: MW
HStem: -18 129<263.5 320.5 263.5 375> 422 129<263.5 320.5> 652 121<134 449 134 449>
VStem: 25 183<211 321 211 353> 134 315<652 773 652 773> 376 183<212 321.5>
AnchorPoint: "Anchor-11" 0 0 basechar 0
AnchorPoint: "Anchor-10" 0 0 basechar 0
AnchorPoint: "Anchor-9" 292 533 basechar 0
AnchorPoint: "Anchor-8" 0 0 basechar 0
LayerCount: 2
Fore
SplineSet
134 652 m 1xe8
 134 773 l 1
 449 773 l 1
 449 652 l 1
 134 652 l 1xe8
292 551 m 0xf4
 457 551 559 448 559 266 c 0
 559 94 458 -18 292 -18 c 0
 127 -18 25 85 25 267 c 0
 25 439 126 551 292 551 c 0xf4
292 422 m 0
 235 422 208 375 208 267 c 0
 208 155 235 111 292 111 c 0
 349 111 376 158 376 266 c 0
 376 377 349 422 292 422 c 0
EndSplineSet
Substitution2: "'smcp' Lowercase to Small Capitals lookup 24 subtable" omacron.sc
Substitution2: "'aalt' Access All Alternates lookup 0 subtable" omacron.sc
EndChar
StartChar: ohungarumlaut
Encoding: 337 337 579
Width: 584
GlyphClass: 2
Flags: MW
HStem: -18 129<263.5 320.5 263.5 375> 422 129<263.5 320.5>
VStem: 25 183<211 321 211 353> 376 183<212 321.5>
AnchorPoint: "Anchor-14" 0 0 basechar 0
AnchorPoint: "Anchor-13" 503 533 basechar 0
AnchorPoint: "Anchor-12" 292 533 basechar 0
AnchorPoint: "Anchor-11" 408 0 basechar 0
AnchorPoint: "Anchor-10" 292 0 basechar 0
LayerCount: 2
Back
Fore
SplineSet
237 869 m 1
 353 815 l 1
 235 627 l 1
 145 663 l 1
 237 869 l 1
420 869 m 1
 535 811 l 1
 408 623 l 1
 319 665 l 1
 420 869 l 1
292 551 m 0
 457 551 559 448 559 266 c 0
 559 94 458 -18 292 -18 c 0
 127 -18 25 85 25 267 c 0
 25 439 126 551 292 551 c 0
292 422 m 0
 235 422 208 375 208 267 c 0
 208 155 235 111 292 111 c 0
 349 111 376 158 376 266 c 0
 376 377 349 422 292 422 c 0
EndSplineSet
Substitution2: "'smcp' Lowercase to Small Capitals lookup 27 subtable" ohungarumlaut.sc
Substitution2: "'aalt' Access All Alternates lookup 0 subtable" ohungarumlaut.sc
EndChar
StartChar: OE
Encoding: 338 338 217
Width: 910
GlyphClass: 2
Flags: MW
HStem: -18 133<298 346.5> 0 115<298 877 298 429> 0 131<580 877 580 877> 289 127<640 640 640 831> 564 131<582 861 582 582> 580 115<297.5 880> 580 133<297.5 347.5 235.5 373>
VStem: 27 192<264 432 264 461> 451 188<416 416 416 432>
LayerCount: 2
Back
Fore
SplineSet
640 289 m 1x3980
 632 231 612 176 580 131 c 1
 877 131 l 1
 877 0 l 1
 429 0 l 1x3980
 399 -12 365 -18 328 -18 c 0
 143 -18 27 117 27 348 c 0
 27 574 143 713 328 713 c 0x9380
 367 713 403 707 433 695 c 1
 880 695 l 1
 861 564 l 1
 582 564 l 1
 612 522 631 471 639 416 c 1
 831 416 l 1
 831 289 l 1
 640 289 l 1x3980
335 115 m 0x5580
 412 115 451 180 451 348 c 0
 451 516 411 580 335 580 c 0
 260 580 219 516 219 348 c 0
 219 180 261 115 335 115 c 0x5580
EndSplineSet
Substitution2: "'c2sc' Capitals to Small Capitals lookup 26 subtable" oe.sc
Substitution2: "'aalt' Access All Alternates lookup 0 subtable" oe.sc
Position2: "'cpsp' Capital Spacing lookup 0 subtable" dx=5 dy=0 dh=10 dv=0
EndChar
StartChar: oe
Encoding: 339 339 595
Width: 906
GlyphClass: 2
Flags: MW
HStem: -18 129<263 319.5 263 328.5> 215 104<555 710 555 881 555 710> 422 129<263 319.5> 436 115<611.5 663.5>
VStem: 25 183<211 321 211 352> 374 181<215 215 215 319 215 321> 710 175<319 325 325 325>
AnchorPoint: "Anchor-14" 0 0 basechar 0
AnchorPoint: "Anchor-13" 0 0 basechar 0
AnchorPoint: "Anchor-12" 455 533 basechar 0
AnchorPoint: "Anchor-11" 0 0 basechar 0
AnchorPoint: "Anchor-10" 467 0 basechar 0
LayerCount: 2
Back
Fore
SplineSet
885 275 m 0xde
 885 258 883 233 881 215 c 1
 555 215 l 1
 566 129 607 109 669 109 c 0
 709 109 747 124 793 156 c 1
 865 58 l 1
 812 15 741 -18 652 -18 c 0
 569 -18 510 9 467 57 c 1
 423 8 366 -18 291 -18 c 0
 126 -18 25 85 25 267 c 0
 25 437 126 551 291 551 c 0
 363 551 422 525 466 478 c 1
 506 523 561 551 632 551 c 0
 787 551 885 451 885 275 c 0xde
710 319 m 1
 710 325 l 2
 709 389 692 436 635 436 c 0
 588 436 562 407 555 319 c 1
 710 319 l 1
291 111 m 0
 348 111 374 156 374 267 c 0
 374 375 348 422 291 422 c 0xee
 235 422 208 375 208 267 c 0
 208 155 235 111 291 111 c 0
EndSplineSet
Substitution2: "'smcp' Lowercase to Small Capitals lookup 27 subtable" oe.sc
Substitution2: "'aalt' Access All Alternates lookup 0 subtable" oe.sc
EndChar
StartChar: Racute
Encoding: 340 340 226
Width: 620
GlyphClass: 2
Flags: MW
HStem: 0 21G<54 239 54 54 426 632 426 426> 256 126<239 290 239 301> 566 129<239 239 239 291>
VStem: 54 185<0 256 0 382 382 566> 397 190<445.5 509>
AnchorPoint: "Anchor-14" 0 0 basechar 0
AnchorPoint: "Anchor-13" 0 0 basechar 0
AnchorPoint: "Anchor-12" 312 970 basechar 0
AnchorPoint: "Anchor-11" 0 0 basechar 0
AnchorPoint: "Anchor-10" 311 0 basechar 0
LayerCount: 2
Back
Fore
SplineSet
456 839 m 1
 209 750 l 1
 164 840 l 1
 389 970 l 1
 456 839 l 1
426 0 m 1
 290 256 l 1
 239 256 l 1
 239 0 l 1
 54 0 l 1
 54 695 l 1
 295 695 l 2
 489 695 587 627 587 479 c 0
 587 389 546 336 459 290 c 1
 632 0 l 1
 426 0 l 1
239 566 m 1
 239 382 l 1
 301 382 l 2
 364 382 397 412 397 479 c 0
 397 539 361 566 291 566 c 2
 239 566 l 1
EndSplineSet
Substitution2: "'c2sc' Capitals to Small Capitals lookup 26 subtable" racute.sc
Substitution2: "'aalt' Access All Alternates lookup 0 subtable" racute.sc
Position2: "'cpsp' Capital Spacing lookup 0 subtable" dx=5 dy=0 dh=10 dv=0
EndChar
StartChar: racute
Encoding: 341 341 608
Width: 405
GlyphClass: 2
Flags: MW
HStem: 0 21G<52 230 52 52> 376 173<328 343.5> 513 20G<52 207 207 207> 520 20G<412 412> 529 20G<328 368>
VStem: 52 178<0 254 0 533>
AnchorPoint: "Anchor-14" 0 0 basechar 0
AnchorPoint: "Anchor-13" 0 0 basechar 0
AnchorPoint: "Anchor-12" 232 846 basechar 0
AnchorPoint: "Anchor-11" 0 0 basechar 0
AnchorPoint: "Anchor-10" 141 0 basechar 0
LayerCount: 2
Back
Fore
SplineSet
370 714 m 1x8c
 126 618 l 1
 78 707 l 1
 302 846 l 1
 370 714 l 1x8c
358 549 m 0
 378 549 393 546 412 540 c 1x94
 383 368 l 1
 367 373 352 376 335 376 c 0xc4
 271 376 246 328 230 254 c 1
 230 0 l 1
 52 0 l 1
 52 533 l 1
 207 533 l 1xa4
 222 432 l 1
 245 503 298 549 358 549 c 0
EndSplineSet
Substitution2: "'smcp' Lowercase to Small Capitals lookup 27 subtable" racute.sc
Substitution2: "'aalt' Access All Alternates lookup 0 subtable" racute.sc
EndChar
StartChar: Rcommaaccent
Encoding: 342 342 228
Width: 620
GlyphClass: 2
Flags: MW
HStem: -219 21G<261 261> 0 21G<54 239 54 54 426 632 426 426> 256 126<239 290 239 301> 566 129<239 239 239 291>
VStem: 54 185<0 256 0 382 382 566> 226 171<-163.5 -126> 397 190<445.5 509>
AnchorPoint: "Anchor-14" 0 0 basechar 0
AnchorPoint: "Anchor-13" 0 0 basechar 0
AnchorPoint: "Anchor-12" 310 695 basechar 0
AnchorPoint: "Anchor-11" 0 0 basechar 0
AnchorPoint: "Anchor-10" 311 0 basechar 0
LayerCount: 2
Back
Fore
SplineSet
459 290 m 1xfa
 632 0 l 1
 426 0 l 1
 290 256 l 1
 239 256 l 1
 239 0 l 1
 54 0 l 1
 54 695 l 1
 295 695 l 2
 489 695 587 627 587 479 c 0
 587 389 546 336 459 290 c 1xfa
239 566 m 1
 239 382 l 1
 301 382 l 2
 364 382 397 412 397 479 c 0
 397 539 361 566 291 566 c 2
 239 566 l 1
312 -65 m 0xf4
 361 -65 397 -101 397 -149 c 0
 397 -178 388 -198 370 -235 c 2
 322 -333 l 1
 236 -333 l 1
 261 -219 l 1
 241 -203 226 -180 226 -149 c 0
 226 -103 262 -65 312 -65 c 0xf4
EndSplineSet
Substitution2: "'c2sc' Capitals to Small Capitals lookup 26 subtable" rcommaaccent.sc
Substitution2: "'aalt' Access All Alternates lookup 0 subtable" rcommaaccent.sc
Position2: "'cpsp' Capital Spacing lookup 0 subtable" dx=5 dy=0 dh=10 dv=0
EndChar
StartChar: rcommaaccent
Encoding: 343 343 611
Width: 405
GlyphClass: 2
Flags: MW
HStem: -219 21G<91 91> 0 21G<52 230 52 52> 376 173<328 343.5> 513 20G<52 207 207 207> 520 20G<412 412> 529 20G<328 368>
VStem: 52 178<0 254 0 533> 56 171<-163.5 -126>
AnchorPoint: "Anchor-14" 0 0 basechar 0
AnchorPoint: "Anchor-13" 0 0 basechar 0
AnchorPoint: "Anchor-12" 232 533 basechar 0
AnchorPoint: "Anchor-11" 0 0 basechar 0
AnchorPoint: "Anchor-10" 141 0 basechar 0
LayerCount: 2
Back
Fore
SplineSet
358 549 m 0xc6
 378 549 393 546 412 540 c 1xca
 383 368 l 1
 367 373 352 376 335 376 c 0xe2
 271 376 246 328 230 254 c 1
 230 0 l 1
 52 0 l 1
 52 533 l 1
 207 533 l 1xd2
 222 432 l 1
 245 503 298 549 358 549 c 0xc6
142 -65 m 0xc5
 191 -65 227 -101 227 -149 c 0
 227 -178 218 -198 200 -235 c 2
 152 -333 l 1
 66 -333 l 1
 91 -219 l 1
 71 -203 56 -180 56 -149 c 0
 56 -103 92 -65 142 -65 c 0xc5
EndSplineSet
Substitution2: "'smcp' Lowercase to Small Capitals lookup 27 subtable" rcommaaccent.sc
Substitution2: "'aalt' Access All Alternates lookup 0 subtable" rcommaaccent.sc
EndChar
StartChar: Rcaron
Encoding: 344 344 227
Width: 620
GlyphClass: 2
Flags: MW
HStem: 0 21G<54 239 54 54 426 632 426 426> 256 126<239 290 239 301> 566 129<239 239 239 291>
VStem: 54 185<0 256 0 382 382 566> 397 190<445.5 509>
AnchorPoint: "Anchor-14" 0 0 basechar 0
AnchorPoint: "Anchor-13" 0 0 basechar 0
AnchorPoint: "Anchor-12" 312 954 basechar 0
AnchorPoint: "Anchor-11" 0 0 basechar 0
AnchorPoint: "Anchor-10" 311 0 basechar 0
LayerCount: 2
Back
Fore
SplineSet
364 748 m 1
 256 748 l 1
 113 883 l 1
 175 954 l 1
 310 869 l 1
 445 954 l 1
 507 883 l 1
 364 748 l 1
426 0 m 1
 290 256 l 1
 239 256 l 1
 239 0 l 1
 54 0 l 1
 54 695 l 1
 295 695 l 2
 489 695 587 627 587 479 c 0
 587 389 546 336 459 290 c 1
 632 0 l 1
 426 0 l 1
239 566 m 1
 239 382 l 1
 301 382 l 2
 364 382 397 412 397 479 c 0
 397 539 361 566 291 566 c 2
 239 566 l 1
EndSplineSet
Substitution2: "'c2sc' Capitals to Small Capitals lookup 26 subtable" rcaron.sc
Substitution2: "'aalt' Access All Alternates lookup 0 subtable" rcaron.sc
Position2: "'cpsp' Capital Spacing lookup 0 subtable" dx=5 dy=0 dh=10 dv=0
EndChar

StartChar: rcaron
Encoding: 345 345 225
Width: 405
GlyphClass: 2
Flags: MW
HStem: 0 21G<52 230 52 52> 376 173<328.5 343.5> 513 20G<52 207 207 207> 520 20G<412 412> 529 20G<328.5 368> 731 20G<35 35 429 429>
VStem: 52 178<0 253 0 533>
AnchorPoint: "Anchor-11" 141 0 basechar 0
AnchorPoint: "Anchor-10" 0 0 basechar 0
AnchorPoint: "Anchor-9" 232 533 basechar 0
AnchorPoint: "Anchor-8" 0 0 basechar 0
LayerCount: 2
Fore
SplineSet
178 607 m 1x8e
 35 751 l 1
 97 822 l 1
 232 728 l 1
 367 822 l 1
 429 751 l 1
 286 607 l 1
 178 607 l 1x8e
223 432 m 1
 245 503 299 549 358 549 c 0x8e
 378 549 393 546 412 540 c 1x96
 383 368 l 1
 367 373 352 376 335 376 c 0xc6
 271 376 246 328 230 253 c 1
 230 0 l 1
 52 0 l 1
 52 533 l 1
 207 533 l 1xa6
 223 432 l 1
EndSplineSet
Substitution2: "'smcp' Lowercase to Small Capitals lookup 24 subtable" rcaron.sc
Substitution2: "'aalt' Access All Alternates lookup 0 subtable" rcaron.sc
EndChar

StartChar: Sacute
Encoding: 346 346 91
Width: 580
GlyphClass: 2
Flags: MW
HStem: -18 134<235.5 301 235.5 365> 580 133<281 335.5>
VStem: 34 190<501 540 501 569.5> 368 192<168.5 214>
AnchorPoint: "Anchor-11" 288 0 basechar 0
AnchorPoint: "Anchor-10" 0 0 basechar 0
AnchorPoint: "Anchor-9" 301 695 basechar 0
AnchorPoint: "Anchor-8" 0 0 basechar 0
LayerCount: 2
Fore
SplineSet
444 839 m 1
 197 750 l 1
 152 840 l 1
 377 970 l 1
 444 839 l 1
294 713 m 0
 402 713 480 680 542 621 c 1
 458 523 l 1
 411 561 363 580 308 580 c 0
 254 580 224 559 224 521 c 0
 224 481 250 467 354 433 c 1
 491 390 560 331 560 205 c 0
 560 74 454 -18 276 -18 c 0
 149 -18 62 28 5 83 c 1
 97 185 l 1
 146 142 202 116 269 116 c 0
 333 116 368 146 368 191 c 0
 368 237 344 257 248 286 c 1
 86 337 34 404 34 506 c 0
 34 633 145 713 294 713 c 0
EndSplineSet
Substitution2: "'c2sc' Capitals to Small Capitals lookup 23 subtable" sacute.sc
Substitution2: "'locl' Localized Forms in Latin lookup 7 subtable" Sacute.loclPLK
AlternateSubs2: "'aalt' Access All Alternates lookup 1 subtable" Sacute.loclPLK sacute.sc
Position2: "'cpsp' Capital Spacing lookup 0 subtable" dx=5 dy=0 dh=10 dv=0
EndChar

StartChar: Scircumflex
Encoding: 348 348 94
Width: 580
GlyphClass: 2
Flags: MW
HStem: -18 134<235.5 301 235.5 365> 580 133<281 335.5>
VStem: 34 190<501 540 501 569.5> 368 192<168.5 214>
AnchorPoint: "Anchor-11" 288 0 basechar 0
AnchorPoint: "Anchor-10" 0 0 basechar 0
AnchorPoint: "Anchor-9" 301 695 basechar 0
AnchorPoint: "Anchor-8" 0 0 basechar 0
LayerCount: 2
Fore
SplineSet
301 838 m 1
 166 753 l 1
 104 824 l 1
 247 959 l 1
 355 959 l 1
 498 824 l 1
 436 753 l 1
 301 838 l 1
294 713 m 0
 402 713 480 680 542 621 c 1
 458 523 l 1
 411 561 363 580 308 580 c 0
 254 580 224 559 224 521 c 0
 224 481 250 467 354 433 c 1
 491 390 560 331 560 205 c 0
 560 74 454 -18 276 -18 c 0
 149 -18 62 28 5 83 c 1
 97 185 l 1
 146 142 202 116 269 116 c 0
 333 116 368 146 368 191 c 0
 368 237 344 257 248 286 c 1
 86 337 34 404 34 506 c 0
 34 633 145 713 294 713 c 0
EndSplineSet
Substitution2: "'c2sc' Capitals to Small Capitals lookup 23 subtable" scircumflex.sc
Substitution2: "'aalt' Access All Alternates lookup 0 subtable" scircumflex.sc
Position2: "'cpsp' Capital Spacing lookup 0 subtable" dx=5 dy=0 dh=10 dv=0
EndChar
StartChar: scircumflex
Encoding: 349 349 630
Width: 488
GlyphClass: 2
Flags: MW
HStem: -18 124<199 245 199 299> 426 125<241 282>
VStem: 28 177<382.5 403.5 382.5 430> 291 182<134 163.5>
AnchorPoint: "Anchor-14" 0 0 basechar 0
AnchorPoint: "Anchor-13" 0 0 basechar 0
AnchorPoint: "Anchor-12" 252 831 basechar 0
AnchorPoint: "Anchor-11" 0 0 basechar 0
AnchorPoint: "Anchor-10" 244 0 basechar 0
LayerCount: 2
Back
Fore
SplineSet
115 616 m 1
 53 687 l 1
 196 831 l 1
 303 831 l 1
 447 687 l 1
 385 616 l 1
 250 710 l 1
 115 616 l 1
253 551 m 0
 331 551 404 525 453 484 c 1
 389 386 l 1
 349 411 304 426 260 426 c 0
 222 426 205 413 205 394 c 0
 205 371 215 361 313 331 c 0
 416 301 473 257 473 161 c 0
 473 51 369 -18 229 -18 c 0
 136 -18 54 14 1 63 c 1
 86 158 l 1
 125 128 174 106 224 106 c 0
 266 106 291 120 291 148 c 0
 291 179 277 186 183 214 c 0
 81 244 28 300 28 383 c 0
 28 477 110 551 253 551 c 0
EndSplineSet
Substitution2: "'smcp' Lowercase to Small Capitals lookup 27 subtable" scircumflex.sc
Substitution2: "'aalt' Access All Alternates lookup 0 subtable" scircumflex.sc
EndChar

StartChar: Scedilla
Encoding: 350 350 93
Width: 580
GlyphClass: 2
Flags: MW
HStem: -269 94<259 282 256 333> -16 21G<234 234> -16 132<234 301> -15 21G<333 333> 580 133<281 335.5>
VStem: 34 190<501 540 501 569.5> 314 126<-157.5 -136> 368 192<168.5 214>
AnchorPoint: "Anchor-11" 288 0 basechar 0
AnchorPoint: "Anchor-10" 0 0 basechar 0
AnchorPoint: "Anchor-9" 301 695 basechar 0
AnchorPoint: "Anchor-8" 0 0 basechar 0
LayerCount: 2
Fore
SplineSet
560 205 m 0x9d
 560 89 476 3 333 -15 c 1
 333 -45 l 1x9e
 405 -54 440 -91 440 -149 c 0
 440 -218 382 -269 284 -269 c 0
 234 -269 191 -254 165 -236 c 1
 205 -157 l 1
 224 -168 244 -175 268 -175 c 0
 296 -175 314 -168 314 -147 c 0
 314 -125 286 -116 221 -116 c 1
 234 -16 l 1xce
 129 -7 55 34 5 83 c 1
 97 185 l 1
 146 142 202 116 269 116 c 0
 333 116 368 146 368 191 c 0xad
 368 237 344 257 248 286 c 1
 86 337 34 404 34 506 c 0
 34 633 145 713 294 713 c 0
 402 713 480 680 542 621 c 1
 458 523 l 1
 411 561 363 580 308 580 c 0
 254 580 224 559 224 521 c 0
 224 481 250 467 354 433 c 1
 491 390 560 331 560 205 c 0x9d
EndSplineSet
Substitution2: "'c2sc' Capitals to Small Capitals lookup 23 subtable" scedilla.sc
Substitution2: "'locl' Localized Forms in Latin lookup 5 subtable" Scommaaccent
Substitution2: "'locl' Localized Forms in Latin lookup 4 subtable" Scommaaccent
AlternateSubs2: "'aalt' Access All Alternates lookup 1 subtable" Scommaaccent scedilla.sc
Position2: "'cpsp' Capital Spacing lookup 0 subtable" dx=5 dy=0 dh=10 dv=0
EndChar
